G04 #@! TF.FileFunction,Legend,Bot*
%FSLAX46Y46*%
G04 Gerber Fmt 4.6, Leading zero omitted, Abs format (unit mm)*
G04 Created by KiCad (PCBNEW (2015-01-16 BZR 5376)-product) date 2015-03-11 03:36:44*
%MOMM*%
G01*
G04 APERTURE LIST*
%ADD10C,0.100000*%
%ADD11C,2.032000*%
%ADD12C,0.150000*%
G04 APERTURE END LIST*
D10*
D11*
X30586438Y-10409163D02*
X17886438Y-10409163D01*
X17886438Y-15247258D01*
X18491200Y-16456782D01*
X19095962Y-17061543D01*
X20305486Y-17666305D01*
X22119771Y-17666305D01*
X23329295Y-17061543D01*
X23934057Y-16456782D01*
X24538819Y-15247258D01*
X24538819Y-10409163D01*
X30586438Y-30366305D02*
X24538819Y-26132972D01*
X30586438Y-23109163D02*
X17886438Y-23109163D01*
X17886438Y-27947258D01*
X18491200Y-29156782D01*
X19095962Y-29761543D01*
X20305486Y-30366305D01*
X22119771Y-30366305D01*
X23329295Y-29761543D01*
X23934057Y-29156782D01*
X24538819Y-27947258D01*
X24538819Y-23109163D01*
X17886438Y-38228210D02*
X17886438Y-40647258D01*
X18491200Y-41856782D01*
X19700724Y-43066305D01*
X22119771Y-43671067D01*
X26353105Y-43671067D01*
X28772152Y-43066305D01*
X29981676Y-41856782D01*
X30586438Y-40647258D01*
X30586438Y-38228210D01*
X29981676Y-37018686D01*
X28772152Y-35809163D01*
X26353105Y-35204401D01*
X22119771Y-35204401D01*
X19700724Y-35809163D01*
X18491200Y-37018686D01*
X17886438Y-38228210D01*
X17886438Y-47299639D02*
X17886438Y-54556782D01*
X30586438Y-50928210D02*
X17886438Y-50928210D01*
X17886438Y-61209162D02*
X17886438Y-63628210D01*
X18491200Y-64837734D01*
X19700724Y-66047257D01*
X22119771Y-66652019D01*
X26353105Y-66652019D01*
X28772152Y-66047257D01*
X29981676Y-64837734D01*
X30586438Y-63628210D01*
X30586438Y-61209162D01*
X29981676Y-59999638D01*
X28772152Y-58790115D01*
X26353105Y-58185353D01*
X22119771Y-58185353D01*
X19700724Y-58790115D01*
X18491200Y-59999638D01*
X17886438Y-61209162D01*
X17886438Y-70280591D02*
X17886438Y-77537734D01*
X30586438Y-73909162D02*
X17886438Y-73909162D01*
X24538819Y-84190114D02*
X30586438Y-84190114D01*
X17886438Y-79956781D02*
X24538819Y-84190114D01*
X17886438Y-88423447D01*
X30586438Y-92656781D02*
X17886438Y-92656781D01*
X17886438Y-97494876D01*
X18491200Y-98704400D01*
X19095962Y-99309161D01*
X20305486Y-99913923D01*
X22119771Y-99913923D01*
X23329295Y-99309161D01*
X23934057Y-98704400D01*
X24538819Y-97494876D01*
X24538819Y-92656781D01*
X23934057Y-105356781D02*
X23934057Y-109590114D01*
X30586438Y-111404400D02*
X30586438Y-105356781D01*
X17886438Y-105356781D01*
X17886438Y-111404400D01*
D12*
X47586000Y-53856000D02*
X47586000Y-54856000D01*
X45886000Y-54856000D02*
X45886000Y-53856000D01*
X9898000Y-53174000D02*
X8898000Y-53174000D01*
X8898000Y-51474000D02*
X9898000Y-51474000D01*
X23931500Y-46062000D02*
X22931500Y-46062000D01*
X22931500Y-44362000D02*
X23931500Y-44362000D01*
X19392000Y-17788000D02*
X19392000Y-18788000D01*
X17692000Y-18788000D02*
X17692000Y-17788000D01*
X44696000Y-41998000D02*
X43696000Y-41998000D01*
X43696000Y-40298000D02*
X44696000Y-40298000D01*
X9740000Y-17788000D02*
X9740000Y-18788000D01*
X8040000Y-18788000D02*
X8040000Y-17788000D01*
X61984000Y-39282000D02*
X62984000Y-39282000D01*
X62984000Y-40982000D02*
X61984000Y-40982000D01*
X58586000Y-36568000D02*
X58586000Y-35568000D01*
X60286000Y-35568000D02*
X60286000Y-36568000D01*
X48934000Y-36568000D02*
X48934000Y-35568000D01*
X50634000Y-35568000D02*
X50634000Y-36568000D01*
X42188500Y-31123000D02*
X42188500Y-32123000D01*
X40488500Y-32123000D02*
X40488500Y-31123000D01*
X7200000Y-32012000D02*
X7200000Y-33012000D01*
X5500000Y-33012000D02*
X5500000Y-32012000D01*
X61984000Y-45378000D02*
X62984000Y-45378000D01*
X62984000Y-47078000D02*
X61984000Y-47078000D01*
X55714000Y-53856000D02*
X55714000Y-54856000D01*
X54014000Y-54856000D02*
X54014000Y-53856000D01*
X58254000Y-53856000D02*
X58254000Y-54856000D01*
X56554000Y-54856000D02*
X56554000Y-53856000D01*
X51474000Y-36568000D02*
X51474000Y-35568000D01*
X53174000Y-35568000D02*
X53174000Y-36568000D01*
X49618000Y-53856000D02*
X49618000Y-54856000D01*
X47918000Y-54856000D02*
X47918000Y-53856000D01*
X11088000Y-46220000D02*
X11088000Y-45220000D01*
X12788000Y-45220000D02*
X12788000Y-46220000D01*
X44696000Y-48602000D02*
X43696000Y-48602000D01*
X43696000Y-46902000D02*
X44696000Y-46902000D01*
X61984000Y-43346000D02*
X62984000Y-43346000D01*
X62984000Y-45046000D02*
X61984000Y-45046000D01*
X61984000Y-41314000D02*
X62984000Y-41314000D01*
X62984000Y-43014000D02*
X61984000Y-43014000D01*
X51650000Y-53856000D02*
X51650000Y-54856000D01*
X49950000Y-54856000D02*
X49950000Y-53856000D01*
X53506000Y-36568000D02*
X53506000Y-35568000D01*
X55206000Y-35568000D02*
X55206000Y-36568000D01*
X44696000Y-46570000D02*
X43696000Y-46570000D01*
X43696000Y-44870000D02*
X44696000Y-44870000D01*
X38092000Y-86194000D02*
X37092000Y-86194000D01*
X37092000Y-84494000D02*
X38092000Y-84494000D01*
X51316000Y-92114000D02*
X52316000Y-92114000D01*
X52316000Y-93814000D02*
X51316000Y-93814000D01*
X38092000Y-91274000D02*
X37092000Y-91274000D01*
X37092000Y-89574000D02*
X38092000Y-89574000D01*
X44362000Y-81780000D02*
X44362000Y-80780000D01*
X46062000Y-80780000D02*
X46062000Y-81780000D01*
X46220000Y-90258000D02*
X45220000Y-90258000D01*
X45220000Y-88558000D02*
X46220000Y-88558000D01*
X45554000Y-95004000D02*
X45554000Y-96004000D01*
X43854000Y-96004000D02*
X43854000Y-95004000D01*
X46220000Y-88226000D02*
X45220000Y-88226000D01*
X45220000Y-86526000D02*
X46220000Y-86526000D01*
X43014000Y-95004000D02*
X43014000Y-96004000D01*
X41314000Y-96004000D02*
X41314000Y-95004000D01*
X46220000Y-92290000D02*
X45220000Y-92290000D01*
X45220000Y-90590000D02*
X46220000Y-90590000D01*
X41822000Y-81780000D02*
X41822000Y-80780000D01*
X43522000Y-80780000D02*
X43522000Y-81780000D01*
X46220000Y-86194000D02*
X45220000Y-86194000D01*
X45220000Y-84494000D02*
X46220000Y-84494000D01*
X51316000Y-89574000D02*
X52316000Y-89574000D01*
X52316000Y-91274000D02*
X51316000Y-91274000D01*
X38092000Y-88734000D02*
X37092000Y-88734000D01*
X37092000Y-87034000D02*
X38092000Y-87034000D01*
X37705000Y-66449500D02*
X37705000Y-65249500D01*
X35955000Y-65249500D02*
X35955000Y-66449500D01*
X39003000Y-65249500D02*
X39003000Y-66449500D01*
X40753000Y-66449500D02*
X40753000Y-65249500D01*
X60544000Y-28081000D02*
X59344000Y-28081000D01*
X59344000Y-29831000D02*
X60544000Y-29831000D01*
X59344000Y-26783000D02*
X60544000Y-26783000D01*
X60544000Y-25033000D02*
X59344000Y-25033000D01*
X49184000Y-26783000D02*
X50384000Y-26783000D01*
X50384000Y-25033000D02*
X49184000Y-25033000D01*
X50384000Y-28081000D02*
X49184000Y-28081000D01*
X49184000Y-29831000D02*
X50384000Y-29831000D01*
X33669000Y-86268000D02*
X33669000Y-87468000D01*
X35419000Y-87468000D02*
X35419000Y-86268000D01*
X47093143Y-57084934D02*
X47140762Y-57037315D01*
X47188381Y-56894458D01*
X47188381Y-56799220D01*
X47140762Y-56656362D01*
X47045524Y-56561124D01*
X46950286Y-56513505D01*
X46759810Y-56465886D01*
X46616952Y-56465886D01*
X46426476Y-56513505D01*
X46331238Y-56561124D01*
X46236000Y-56656362D01*
X46188381Y-56799220D01*
X46188381Y-56894458D01*
X46236000Y-57037315D01*
X46283619Y-57084934D01*
X47188381Y-58037315D02*
X47188381Y-57465886D01*
X47188381Y-57751600D02*
X46188381Y-57751600D01*
X46331238Y-57656362D01*
X46426476Y-57561124D01*
X46474095Y-57465886D01*
X9564666Y-54781143D02*
X9612285Y-54828762D01*
X9755142Y-54876381D01*
X9850380Y-54876381D01*
X9993238Y-54828762D01*
X10088476Y-54733524D01*
X10136095Y-54638286D01*
X10183714Y-54447810D01*
X10183714Y-54304952D01*
X10136095Y-54114476D01*
X10088476Y-54019238D01*
X9993238Y-53924000D01*
X9850380Y-53876381D01*
X9755142Y-53876381D01*
X9612285Y-53924000D01*
X9564666Y-53971619D01*
X9183714Y-53971619D02*
X9136095Y-53924000D01*
X9040857Y-53876381D01*
X8802761Y-53876381D01*
X8707523Y-53924000D01*
X8659904Y-53971619D01*
X8612285Y-54066857D01*
X8612285Y-54162095D01*
X8659904Y-54304952D01*
X9231333Y-54876381D01*
X8612285Y-54876381D01*
X23598166Y-47669143D02*
X23645785Y-47716762D01*
X23788642Y-47764381D01*
X23883880Y-47764381D01*
X24026738Y-47716762D01*
X24121976Y-47621524D01*
X24169595Y-47526286D01*
X24217214Y-47335810D01*
X24217214Y-47192952D01*
X24169595Y-47002476D01*
X24121976Y-46907238D01*
X24026738Y-46812000D01*
X23883880Y-46764381D01*
X23788642Y-46764381D01*
X23645785Y-46812000D01*
X23598166Y-46859619D01*
X23264833Y-46764381D02*
X22645785Y-46764381D01*
X22979119Y-47145333D01*
X22836261Y-47145333D01*
X22741023Y-47192952D01*
X22693404Y-47240571D01*
X22645785Y-47335810D01*
X22645785Y-47573905D01*
X22693404Y-47669143D01*
X22741023Y-47716762D01*
X22836261Y-47764381D01*
X23121976Y-47764381D01*
X23217214Y-47716762D01*
X23264833Y-47669143D01*
X17171943Y-18324534D02*
X17219562Y-18276915D01*
X17267181Y-18134058D01*
X17267181Y-18038820D01*
X17219562Y-17895962D01*
X17124324Y-17800724D01*
X17029086Y-17753105D01*
X16838610Y-17705486D01*
X16695752Y-17705486D01*
X16505276Y-17753105D01*
X16410038Y-17800724D01*
X16314800Y-17895962D01*
X16267181Y-18038820D01*
X16267181Y-18134058D01*
X16314800Y-18276915D01*
X16362419Y-18324534D01*
X16600514Y-19181677D02*
X17267181Y-19181677D01*
X16219562Y-18943581D02*
X16933848Y-18705486D01*
X16933848Y-19324534D01*
X41517866Y-41505143D02*
X41565485Y-41552762D01*
X41708342Y-41600381D01*
X41803580Y-41600381D01*
X41946438Y-41552762D01*
X42041676Y-41457524D01*
X42089295Y-41362286D01*
X42136914Y-41171810D01*
X42136914Y-41028952D01*
X42089295Y-40838476D01*
X42041676Y-40743238D01*
X41946438Y-40648000D01*
X41803580Y-40600381D01*
X41708342Y-40600381D01*
X41565485Y-40648000D01*
X41517866Y-40695619D01*
X40613104Y-40600381D02*
X41089295Y-40600381D01*
X41136914Y-41076571D01*
X41089295Y-41028952D01*
X40994057Y-40981333D01*
X40755961Y-40981333D01*
X40660723Y-41028952D01*
X40613104Y-41076571D01*
X40565485Y-41171810D01*
X40565485Y-41409905D01*
X40613104Y-41505143D01*
X40660723Y-41552762D01*
X40755961Y-41600381D01*
X40994057Y-41600381D01*
X41089295Y-41552762D01*
X41136914Y-41505143D01*
X7469143Y-18121334D02*
X7516762Y-18073715D01*
X7564381Y-17930858D01*
X7564381Y-17835620D01*
X7516762Y-17692762D01*
X7421524Y-17597524D01*
X7326286Y-17549905D01*
X7135810Y-17502286D01*
X6992952Y-17502286D01*
X6802476Y-17549905D01*
X6707238Y-17597524D01*
X6612000Y-17692762D01*
X6564381Y-17835620D01*
X6564381Y-17930858D01*
X6612000Y-18073715D01*
X6659619Y-18121334D01*
X6564381Y-18978477D02*
X6564381Y-18788000D01*
X6612000Y-18692762D01*
X6659619Y-18645143D01*
X6802476Y-18549905D01*
X6992952Y-18502286D01*
X7373905Y-18502286D01*
X7469143Y-18549905D01*
X7516762Y-18597524D01*
X7564381Y-18692762D01*
X7564381Y-18883239D01*
X7516762Y-18978477D01*
X7469143Y-19026096D01*
X7373905Y-19073715D01*
X7135810Y-19073715D01*
X7040571Y-19026096D01*
X6992952Y-18978477D01*
X6945333Y-18883239D01*
X6945333Y-18692762D01*
X6992952Y-18597524D01*
X7040571Y-18549905D01*
X7135810Y-18502286D01*
X65495466Y-40743143D02*
X65543085Y-40790762D01*
X65685942Y-40838381D01*
X65781180Y-40838381D01*
X65924038Y-40790762D01*
X66019276Y-40695524D01*
X66066895Y-40600286D01*
X66114514Y-40409810D01*
X66114514Y-40266952D01*
X66066895Y-40076476D01*
X66019276Y-39981238D01*
X65924038Y-39886000D01*
X65781180Y-39838381D01*
X65685942Y-39838381D01*
X65543085Y-39886000D01*
X65495466Y-39933619D01*
X65162133Y-39838381D02*
X64495466Y-39838381D01*
X64924038Y-40838381D01*
X59793143Y-33056534D02*
X59840762Y-33008915D01*
X59888381Y-32866058D01*
X59888381Y-32770820D01*
X59840762Y-32627962D01*
X59745524Y-32532724D01*
X59650286Y-32485105D01*
X59459810Y-32437486D01*
X59316952Y-32437486D01*
X59126476Y-32485105D01*
X59031238Y-32532724D01*
X58936000Y-32627962D01*
X58888381Y-32770820D01*
X58888381Y-32866058D01*
X58936000Y-33008915D01*
X58983619Y-33056534D01*
X59316952Y-33627962D02*
X59269333Y-33532724D01*
X59221714Y-33485105D01*
X59126476Y-33437486D01*
X59078857Y-33437486D01*
X58983619Y-33485105D01*
X58936000Y-33532724D01*
X58888381Y-33627962D01*
X58888381Y-33818439D01*
X58936000Y-33913677D01*
X58983619Y-33961296D01*
X59078857Y-34008915D01*
X59126476Y-34008915D01*
X59221714Y-33961296D01*
X59269333Y-33913677D01*
X59316952Y-33818439D01*
X59316952Y-33627962D01*
X59364571Y-33532724D01*
X59412190Y-33485105D01*
X59507429Y-33437486D01*
X59697905Y-33437486D01*
X59793143Y-33485105D01*
X59840762Y-33532724D01*
X59888381Y-33627962D01*
X59888381Y-33818439D01*
X59840762Y-33913677D01*
X59793143Y-33961296D01*
X59697905Y-34008915D01*
X59507429Y-34008915D01*
X59412190Y-33961296D01*
X59364571Y-33913677D01*
X59316952Y-33818439D01*
X50191943Y-33107334D02*
X50239562Y-33059715D01*
X50287181Y-32916858D01*
X50287181Y-32821620D01*
X50239562Y-32678762D01*
X50144324Y-32583524D01*
X50049086Y-32535905D01*
X49858610Y-32488286D01*
X49715752Y-32488286D01*
X49525276Y-32535905D01*
X49430038Y-32583524D01*
X49334800Y-32678762D01*
X49287181Y-32821620D01*
X49287181Y-32916858D01*
X49334800Y-33059715D01*
X49382419Y-33107334D01*
X50287181Y-33583524D02*
X50287181Y-33774000D01*
X50239562Y-33869239D01*
X50191943Y-33916858D01*
X50049086Y-34012096D01*
X49858610Y-34059715D01*
X49477657Y-34059715D01*
X49382419Y-34012096D01*
X49334800Y-33964477D01*
X49287181Y-33869239D01*
X49287181Y-33678762D01*
X49334800Y-33583524D01*
X49382419Y-33535905D01*
X49477657Y-33488286D01*
X49715752Y-33488286D01*
X49810990Y-33535905D01*
X49858610Y-33583524D01*
X49906229Y-33678762D01*
X49906229Y-33869239D01*
X49858610Y-33964477D01*
X49810990Y-34012096D01*
X49715752Y-34059715D01*
X43795643Y-30980143D02*
X43843262Y-30932524D01*
X43890881Y-30789667D01*
X43890881Y-30694429D01*
X43843262Y-30551571D01*
X43748024Y-30456333D01*
X43652786Y-30408714D01*
X43462310Y-30361095D01*
X43319452Y-30361095D01*
X43128976Y-30408714D01*
X43033738Y-30456333D01*
X42938500Y-30551571D01*
X42890881Y-30694429D01*
X42890881Y-30789667D01*
X42938500Y-30932524D01*
X42986119Y-30980143D01*
X43890881Y-31932524D02*
X43890881Y-31361095D01*
X43890881Y-31646809D02*
X42890881Y-31646809D01*
X43033738Y-31551571D01*
X43128976Y-31456333D01*
X43176595Y-31361095D01*
X42890881Y-32551571D02*
X42890881Y-32646810D01*
X42938500Y-32742048D01*
X42986119Y-32789667D01*
X43081357Y-32837286D01*
X43271833Y-32884905D01*
X43509929Y-32884905D01*
X43700405Y-32837286D01*
X43795643Y-32789667D01*
X43843262Y-32742048D01*
X43890881Y-32646810D01*
X43890881Y-32551571D01*
X43843262Y-32456333D01*
X43795643Y-32408714D01*
X43700405Y-32361095D01*
X43509929Y-32313476D01*
X43271833Y-32313476D01*
X43081357Y-32361095D01*
X42986119Y-32408714D01*
X42938500Y-32456333D01*
X42890881Y-32551571D01*
X8807143Y-31869143D02*
X8854762Y-31821524D01*
X8902381Y-31678667D01*
X8902381Y-31583429D01*
X8854762Y-31440571D01*
X8759524Y-31345333D01*
X8664286Y-31297714D01*
X8473810Y-31250095D01*
X8330952Y-31250095D01*
X8140476Y-31297714D01*
X8045238Y-31345333D01*
X7950000Y-31440571D01*
X7902381Y-31583429D01*
X7902381Y-31678667D01*
X7950000Y-31821524D01*
X7997619Y-31869143D01*
X8902381Y-32821524D02*
X8902381Y-32250095D01*
X8902381Y-32535809D02*
X7902381Y-32535809D01*
X8045238Y-32440571D01*
X8140476Y-32345333D01*
X8188095Y-32250095D01*
X8902381Y-33773905D02*
X8902381Y-33202476D01*
X8902381Y-33488190D02*
X7902381Y-33488190D01*
X8045238Y-33392952D01*
X8140476Y-33297714D01*
X8188095Y-33202476D01*
X66276457Y-46534343D02*
X66324076Y-46581962D01*
X66466933Y-46629581D01*
X66562171Y-46629581D01*
X66705029Y-46581962D01*
X66800267Y-46486724D01*
X66847886Y-46391486D01*
X66895505Y-46201010D01*
X66895505Y-46058152D01*
X66847886Y-45867676D01*
X66800267Y-45772438D01*
X66705029Y-45677200D01*
X66562171Y-45629581D01*
X66466933Y-45629581D01*
X66324076Y-45677200D01*
X66276457Y-45724819D01*
X65324076Y-46629581D02*
X65895505Y-46629581D01*
X65609791Y-46629581D02*
X65609791Y-45629581D01*
X65705029Y-45772438D01*
X65800267Y-45867676D01*
X65895505Y-45915295D01*
X64943124Y-45724819D02*
X64895505Y-45677200D01*
X64800267Y-45629581D01*
X64562171Y-45629581D01*
X64466933Y-45677200D01*
X64419314Y-45724819D01*
X64371695Y-45820057D01*
X64371695Y-45915295D01*
X64419314Y-46058152D01*
X64990743Y-46629581D01*
X64371695Y-46629581D01*
X55271943Y-56862743D02*
X55319562Y-56815124D01*
X55367181Y-56672267D01*
X55367181Y-56577029D01*
X55319562Y-56434171D01*
X55224324Y-56338933D01*
X55129086Y-56291314D01*
X54938610Y-56243695D01*
X54795752Y-56243695D01*
X54605276Y-56291314D01*
X54510038Y-56338933D01*
X54414800Y-56434171D01*
X54367181Y-56577029D01*
X54367181Y-56672267D01*
X54414800Y-56815124D01*
X54462419Y-56862743D01*
X55367181Y-57815124D02*
X55367181Y-57243695D01*
X55367181Y-57529409D02*
X54367181Y-57529409D01*
X54510038Y-57434171D01*
X54605276Y-57338933D01*
X54652895Y-57243695D01*
X54367181Y-58148457D02*
X54367181Y-58767505D01*
X54748133Y-58434171D01*
X54748133Y-58577029D01*
X54795752Y-58672267D01*
X54843371Y-58719886D01*
X54938610Y-58767505D01*
X55176705Y-58767505D01*
X55271943Y-58719886D01*
X55319562Y-58672267D01*
X55367181Y-58577029D01*
X55367181Y-58291314D01*
X55319562Y-58196076D01*
X55271943Y-58148457D01*
X57659543Y-56964343D02*
X57707162Y-56916724D01*
X57754781Y-56773867D01*
X57754781Y-56678629D01*
X57707162Y-56535771D01*
X57611924Y-56440533D01*
X57516686Y-56392914D01*
X57326210Y-56345295D01*
X57183352Y-56345295D01*
X56992876Y-56392914D01*
X56897638Y-56440533D01*
X56802400Y-56535771D01*
X56754781Y-56678629D01*
X56754781Y-56773867D01*
X56802400Y-56916724D01*
X56850019Y-56964343D01*
X57754781Y-57916724D02*
X57754781Y-57345295D01*
X57754781Y-57631009D02*
X56754781Y-57631009D01*
X56897638Y-57535771D01*
X56992876Y-57440533D01*
X57040495Y-57345295D01*
X57088114Y-58773867D02*
X57754781Y-58773867D01*
X56707162Y-58535771D02*
X57421448Y-58297676D01*
X57421448Y-58916724D01*
X52579543Y-32173943D02*
X52627162Y-32126324D01*
X52674781Y-31983467D01*
X52674781Y-31888229D01*
X52627162Y-31745371D01*
X52531924Y-31650133D01*
X52436686Y-31602514D01*
X52246210Y-31554895D01*
X52103352Y-31554895D01*
X51912876Y-31602514D01*
X51817638Y-31650133D01*
X51722400Y-31745371D01*
X51674781Y-31888229D01*
X51674781Y-31983467D01*
X51722400Y-32126324D01*
X51770019Y-32173943D01*
X52674781Y-33126324D02*
X52674781Y-32554895D01*
X52674781Y-32840609D02*
X51674781Y-32840609D01*
X51817638Y-32745371D01*
X51912876Y-32650133D01*
X51960495Y-32554895D01*
X51674781Y-34031086D02*
X51674781Y-33554895D01*
X52150971Y-33507276D01*
X52103352Y-33554895D01*
X52055733Y-33650133D01*
X52055733Y-33888229D01*
X52103352Y-33983467D01*
X52150971Y-34031086D01*
X52246210Y-34078705D01*
X52484305Y-34078705D01*
X52579543Y-34031086D01*
X52627162Y-33983467D01*
X52674781Y-33888229D01*
X52674781Y-33650133D01*
X52627162Y-33554895D01*
X52579543Y-33507276D01*
X49125143Y-56964343D02*
X49172762Y-56916724D01*
X49220381Y-56773867D01*
X49220381Y-56678629D01*
X49172762Y-56535771D01*
X49077524Y-56440533D01*
X48982286Y-56392914D01*
X48791810Y-56345295D01*
X48648952Y-56345295D01*
X48458476Y-56392914D01*
X48363238Y-56440533D01*
X48268000Y-56535771D01*
X48220381Y-56678629D01*
X48220381Y-56773867D01*
X48268000Y-56916724D01*
X48315619Y-56964343D01*
X49220381Y-57916724D02*
X49220381Y-57345295D01*
X49220381Y-57631009D02*
X48220381Y-57631009D01*
X48363238Y-57535771D01*
X48458476Y-57440533D01*
X48506095Y-57345295D01*
X48220381Y-58773867D02*
X48220381Y-58583390D01*
X48268000Y-58488152D01*
X48315619Y-58440533D01*
X48458476Y-58345295D01*
X48648952Y-58297676D01*
X49029905Y-58297676D01*
X49125143Y-58345295D01*
X49172762Y-58392914D01*
X49220381Y-58488152D01*
X49220381Y-58678629D01*
X49172762Y-58773867D01*
X49125143Y-58821486D01*
X49029905Y-58869105D01*
X48791810Y-58869105D01*
X48696571Y-58821486D01*
X48648952Y-58773867D01*
X48601333Y-58678629D01*
X48601333Y-58488152D01*
X48648952Y-58392914D01*
X48696571Y-58345295D01*
X48791810Y-58297676D01*
X10195143Y-45077143D02*
X10242762Y-45029524D01*
X10290381Y-44886667D01*
X10290381Y-44791429D01*
X10242762Y-44648571D01*
X10147524Y-44553333D01*
X10052286Y-44505714D01*
X9861810Y-44458095D01*
X9718952Y-44458095D01*
X9528476Y-44505714D01*
X9433238Y-44553333D01*
X9338000Y-44648571D01*
X9290381Y-44791429D01*
X9290381Y-44886667D01*
X9338000Y-45029524D01*
X9385619Y-45077143D01*
X10290381Y-46029524D02*
X10290381Y-45458095D01*
X10290381Y-45743809D02*
X9290381Y-45743809D01*
X9433238Y-45648571D01*
X9528476Y-45553333D01*
X9576095Y-45458095D01*
X9290381Y-46362857D02*
X9290381Y-47029524D01*
X10290381Y-46600952D01*
X41689257Y-48058343D02*
X41736876Y-48105962D01*
X41879733Y-48153581D01*
X41974971Y-48153581D01*
X42117829Y-48105962D01*
X42213067Y-48010724D01*
X42260686Y-47915486D01*
X42308305Y-47725010D01*
X42308305Y-47582152D01*
X42260686Y-47391676D01*
X42213067Y-47296438D01*
X42117829Y-47201200D01*
X41974971Y-47153581D01*
X41879733Y-47153581D01*
X41736876Y-47201200D01*
X41689257Y-47248819D01*
X40736876Y-48153581D02*
X41308305Y-48153581D01*
X41022591Y-48153581D02*
X41022591Y-47153581D01*
X41117829Y-47296438D01*
X41213067Y-47391676D01*
X41308305Y-47439295D01*
X40165448Y-47582152D02*
X40260686Y-47534533D01*
X40308305Y-47486914D01*
X40355924Y-47391676D01*
X40355924Y-47344057D01*
X40308305Y-47248819D01*
X40260686Y-47201200D01*
X40165448Y-47153581D01*
X39974971Y-47153581D01*
X39879733Y-47201200D01*
X39832114Y-47248819D01*
X39784495Y-47344057D01*
X39784495Y-47391676D01*
X39832114Y-47486914D01*
X39879733Y-47534533D01*
X39974971Y-47582152D01*
X40165448Y-47582152D01*
X40260686Y-47629771D01*
X40308305Y-47677390D01*
X40355924Y-47772629D01*
X40355924Y-47963105D01*
X40308305Y-48058343D01*
X40260686Y-48105962D01*
X40165448Y-48153581D01*
X39974971Y-48153581D01*
X39879733Y-48105962D01*
X39832114Y-48058343D01*
X39784495Y-47963105D01*
X39784495Y-47772629D01*
X39832114Y-47677390D01*
X39879733Y-47629771D01*
X39974971Y-47582152D01*
X66276457Y-44553143D02*
X66324076Y-44600762D01*
X66466933Y-44648381D01*
X66562171Y-44648381D01*
X66705029Y-44600762D01*
X66800267Y-44505524D01*
X66847886Y-44410286D01*
X66895505Y-44219810D01*
X66895505Y-44076952D01*
X66847886Y-43886476D01*
X66800267Y-43791238D01*
X66705029Y-43696000D01*
X66562171Y-43648381D01*
X66466933Y-43648381D01*
X66324076Y-43696000D01*
X66276457Y-43743619D01*
X65324076Y-44648381D02*
X65895505Y-44648381D01*
X65609791Y-44648381D02*
X65609791Y-43648381D01*
X65705029Y-43791238D01*
X65800267Y-43886476D01*
X65895505Y-43934095D01*
X64847886Y-44648381D02*
X64657410Y-44648381D01*
X64562171Y-44600762D01*
X64514552Y-44553143D01*
X64419314Y-44410286D01*
X64371695Y-44219810D01*
X64371695Y-43838857D01*
X64419314Y-43743619D01*
X64466933Y-43696000D01*
X64562171Y-43648381D01*
X64752648Y-43648381D01*
X64847886Y-43696000D01*
X64895505Y-43743619D01*
X64943124Y-43838857D01*
X64943124Y-44076952D01*
X64895505Y-44172190D01*
X64847886Y-44219810D01*
X64752648Y-44267429D01*
X64562171Y-44267429D01*
X64466933Y-44219810D01*
X64419314Y-44172190D01*
X64371695Y-44076952D01*
X66378057Y-42470343D02*
X66425676Y-42517962D01*
X66568533Y-42565581D01*
X66663771Y-42565581D01*
X66806629Y-42517962D01*
X66901867Y-42422724D01*
X66949486Y-42327486D01*
X66997105Y-42137010D01*
X66997105Y-41994152D01*
X66949486Y-41803676D01*
X66901867Y-41708438D01*
X66806629Y-41613200D01*
X66663771Y-41565581D01*
X66568533Y-41565581D01*
X66425676Y-41613200D01*
X66378057Y-41660819D01*
X65997105Y-41660819D02*
X65949486Y-41613200D01*
X65854248Y-41565581D01*
X65616152Y-41565581D01*
X65520914Y-41613200D01*
X65473295Y-41660819D01*
X65425676Y-41756057D01*
X65425676Y-41851295D01*
X65473295Y-41994152D01*
X66044724Y-42565581D01*
X65425676Y-42565581D01*
X64806629Y-41565581D02*
X64711390Y-41565581D01*
X64616152Y-41613200D01*
X64568533Y-41660819D01*
X64520914Y-41756057D01*
X64473295Y-41946533D01*
X64473295Y-42184629D01*
X64520914Y-42375105D01*
X64568533Y-42470343D01*
X64616152Y-42517962D01*
X64711390Y-42565581D01*
X64806629Y-42565581D01*
X64901867Y-42517962D01*
X64949486Y-42470343D01*
X64997105Y-42375105D01*
X65044724Y-42184629D01*
X65044724Y-41946533D01*
X64997105Y-41756057D01*
X64949486Y-41660819D01*
X64901867Y-41613200D01*
X64806629Y-41565581D01*
X51207943Y-56964343D02*
X51255562Y-56916724D01*
X51303181Y-56773867D01*
X51303181Y-56678629D01*
X51255562Y-56535771D01*
X51160324Y-56440533D01*
X51065086Y-56392914D01*
X50874610Y-56345295D01*
X50731752Y-56345295D01*
X50541276Y-56392914D01*
X50446038Y-56440533D01*
X50350800Y-56535771D01*
X50303181Y-56678629D01*
X50303181Y-56773867D01*
X50350800Y-56916724D01*
X50398419Y-56964343D01*
X50398419Y-57345295D02*
X50350800Y-57392914D01*
X50303181Y-57488152D01*
X50303181Y-57726248D01*
X50350800Y-57821486D01*
X50398419Y-57869105D01*
X50493657Y-57916724D01*
X50588895Y-57916724D01*
X50731752Y-57869105D01*
X51303181Y-57297676D01*
X51303181Y-57916724D01*
X51303181Y-58869105D02*
X51303181Y-58297676D01*
X51303181Y-58583390D02*
X50303181Y-58583390D01*
X50446038Y-58488152D01*
X50541276Y-58392914D01*
X50588895Y-58297676D01*
X54814743Y-32072343D02*
X54862362Y-32024724D01*
X54909981Y-31881867D01*
X54909981Y-31786629D01*
X54862362Y-31643771D01*
X54767124Y-31548533D01*
X54671886Y-31500914D01*
X54481410Y-31453295D01*
X54338552Y-31453295D01*
X54148076Y-31500914D01*
X54052838Y-31548533D01*
X53957600Y-31643771D01*
X53909981Y-31786629D01*
X53909981Y-31881867D01*
X53957600Y-32024724D01*
X54005219Y-32072343D01*
X54005219Y-32453295D02*
X53957600Y-32500914D01*
X53909981Y-32596152D01*
X53909981Y-32834248D01*
X53957600Y-32929486D01*
X54005219Y-32977105D01*
X54100457Y-33024724D01*
X54195695Y-33024724D01*
X54338552Y-32977105D01*
X54909981Y-32405676D01*
X54909981Y-33024724D01*
X54005219Y-33405676D02*
X53957600Y-33453295D01*
X53909981Y-33548533D01*
X53909981Y-33786629D01*
X53957600Y-33881867D01*
X54005219Y-33929486D01*
X54100457Y-33977105D01*
X54195695Y-33977105D01*
X54338552Y-33929486D01*
X54909981Y-33358057D01*
X54909981Y-33977105D01*
X41689257Y-46026343D02*
X41736876Y-46073962D01*
X41879733Y-46121581D01*
X41974971Y-46121581D01*
X42117829Y-46073962D01*
X42213067Y-45978724D01*
X42260686Y-45883486D01*
X42308305Y-45693010D01*
X42308305Y-45550152D01*
X42260686Y-45359676D01*
X42213067Y-45264438D01*
X42117829Y-45169200D01*
X41974971Y-45121581D01*
X41879733Y-45121581D01*
X41736876Y-45169200D01*
X41689257Y-45216819D01*
X41308305Y-45216819D02*
X41260686Y-45169200D01*
X41165448Y-45121581D01*
X40927352Y-45121581D01*
X40832114Y-45169200D01*
X40784495Y-45216819D01*
X40736876Y-45312057D01*
X40736876Y-45407295D01*
X40784495Y-45550152D01*
X41355924Y-46121581D01*
X40736876Y-46121581D01*
X40403543Y-45121581D02*
X39784495Y-45121581D01*
X40117829Y-45502533D01*
X39974971Y-45502533D01*
X39879733Y-45550152D01*
X39832114Y-45597771D01*
X39784495Y-45693010D01*
X39784495Y-45931105D01*
X39832114Y-46026343D01*
X39879733Y-46073962D01*
X39974971Y-46121581D01*
X40260686Y-46121581D01*
X40355924Y-46073962D01*
X40403543Y-46026343D01*
X34983657Y-84380343D02*
X35031276Y-84427962D01*
X35174133Y-84475581D01*
X35269371Y-84475581D01*
X35412229Y-84427962D01*
X35507467Y-84332724D01*
X35555086Y-84237486D01*
X35602705Y-84047010D01*
X35602705Y-83904152D01*
X35555086Y-83713676D01*
X35507467Y-83618438D01*
X35412229Y-83523200D01*
X35269371Y-83475581D01*
X35174133Y-83475581D01*
X35031276Y-83523200D01*
X34983657Y-83570819D01*
X34602705Y-83570819D02*
X34555086Y-83523200D01*
X34459848Y-83475581D01*
X34221752Y-83475581D01*
X34126514Y-83523200D01*
X34078895Y-83570819D01*
X34031276Y-83666057D01*
X34031276Y-83761295D01*
X34078895Y-83904152D01*
X34650324Y-84475581D01*
X34031276Y-84475581D01*
X33174133Y-83808914D02*
X33174133Y-84475581D01*
X33412229Y-83427962D02*
X33650324Y-84142248D01*
X33031276Y-84142248D01*
X55506857Y-93270343D02*
X55554476Y-93317962D01*
X55697333Y-93365581D01*
X55792571Y-93365581D01*
X55935429Y-93317962D01*
X56030667Y-93222724D01*
X56078286Y-93127486D01*
X56125905Y-92937010D01*
X56125905Y-92794152D01*
X56078286Y-92603676D01*
X56030667Y-92508438D01*
X55935429Y-92413200D01*
X55792571Y-92365581D01*
X55697333Y-92365581D01*
X55554476Y-92413200D01*
X55506857Y-92460819D01*
X55125905Y-92460819D02*
X55078286Y-92413200D01*
X54983048Y-92365581D01*
X54744952Y-92365581D01*
X54649714Y-92413200D01*
X54602095Y-92460819D01*
X54554476Y-92556057D01*
X54554476Y-92651295D01*
X54602095Y-92794152D01*
X55173524Y-93365581D01*
X54554476Y-93365581D01*
X53649714Y-92365581D02*
X54125905Y-92365581D01*
X54173524Y-92841771D01*
X54125905Y-92794152D01*
X54030667Y-92746533D01*
X53792571Y-92746533D01*
X53697333Y-92794152D01*
X53649714Y-92841771D01*
X53602095Y-92937010D01*
X53602095Y-93175105D01*
X53649714Y-93270343D01*
X53697333Y-93317962D01*
X53792571Y-93365581D01*
X54030667Y-93365581D01*
X54125905Y-93317962D01*
X54173524Y-93270343D01*
X34831257Y-92000343D02*
X34878876Y-92047962D01*
X35021733Y-92095581D01*
X35116971Y-92095581D01*
X35259829Y-92047962D01*
X35355067Y-91952724D01*
X35402686Y-91857486D01*
X35450305Y-91667010D01*
X35450305Y-91524152D01*
X35402686Y-91333676D01*
X35355067Y-91238438D01*
X35259829Y-91143200D01*
X35116971Y-91095581D01*
X35021733Y-91095581D01*
X34878876Y-91143200D01*
X34831257Y-91190819D01*
X34450305Y-91190819D02*
X34402686Y-91143200D01*
X34307448Y-91095581D01*
X34069352Y-91095581D01*
X33974114Y-91143200D01*
X33926495Y-91190819D01*
X33878876Y-91286057D01*
X33878876Y-91381295D01*
X33926495Y-91524152D01*
X34497924Y-92095581D01*
X33878876Y-92095581D01*
X33021733Y-91095581D02*
X33212210Y-91095581D01*
X33307448Y-91143200D01*
X33355067Y-91190819D01*
X33450305Y-91333676D01*
X33497924Y-91524152D01*
X33497924Y-91905105D01*
X33450305Y-92000343D01*
X33402686Y-92047962D01*
X33307448Y-92095581D01*
X33116971Y-92095581D01*
X33021733Y-92047962D01*
X32974114Y-92000343D01*
X32926495Y-91905105D01*
X32926495Y-91667010D01*
X32974114Y-91571771D01*
X33021733Y-91524152D01*
X33116971Y-91476533D01*
X33307448Y-91476533D01*
X33402686Y-91524152D01*
X33450305Y-91571771D01*
X33497924Y-91667010D01*
X45670743Y-77233543D02*
X45718362Y-77185924D01*
X45765981Y-77043067D01*
X45765981Y-76947829D01*
X45718362Y-76804971D01*
X45623124Y-76709733D01*
X45527886Y-76662114D01*
X45337410Y-76614495D01*
X45194552Y-76614495D01*
X45004076Y-76662114D01*
X44908838Y-76709733D01*
X44813600Y-76804971D01*
X44765981Y-76947829D01*
X44765981Y-77043067D01*
X44813600Y-77185924D01*
X44861219Y-77233543D01*
X44861219Y-77614495D02*
X44813600Y-77662114D01*
X44765981Y-77757352D01*
X44765981Y-77995448D01*
X44813600Y-78090686D01*
X44861219Y-78138305D01*
X44956457Y-78185924D01*
X45051695Y-78185924D01*
X45194552Y-78138305D01*
X45765981Y-77566876D01*
X45765981Y-78185924D01*
X44765981Y-78519257D02*
X44765981Y-79185924D01*
X45765981Y-78757352D01*
X43264057Y-89765143D02*
X43311676Y-89812762D01*
X43454533Y-89860381D01*
X43549771Y-89860381D01*
X43692629Y-89812762D01*
X43787867Y-89717524D01*
X43835486Y-89622286D01*
X43883105Y-89431810D01*
X43883105Y-89288952D01*
X43835486Y-89098476D01*
X43787867Y-89003238D01*
X43692629Y-88908000D01*
X43549771Y-88860381D01*
X43454533Y-88860381D01*
X43311676Y-88908000D01*
X43264057Y-88955619D01*
X42883105Y-88955619D02*
X42835486Y-88908000D01*
X42740248Y-88860381D01*
X42502152Y-88860381D01*
X42406914Y-88908000D01*
X42359295Y-88955619D01*
X42311676Y-89050857D01*
X42311676Y-89146095D01*
X42359295Y-89288952D01*
X42930724Y-89860381D01*
X42311676Y-89860381D01*
X41740248Y-89288952D02*
X41835486Y-89241333D01*
X41883105Y-89193714D01*
X41930724Y-89098476D01*
X41930724Y-89050857D01*
X41883105Y-88955619D01*
X41835486Y-88908000D01*
X41740248Y-88860381D01*
X41549771Y-88860381D01*
X41454533Y-88908000D01*
X41406914Y-88955619D01*
X41359295Y-89050857D01*
X41359295Y-89098476D01*
X41406914Y-89193714D01*
X41454533Y-89241333D01*
X41549771Y-89288952D01*
X41740248Y-89288952D01*
X41835486Y-89336571D01*
X41883105Y-89384190D01*
X41930724Y-89479429D01*
X41930724Y-89669905D01*
X41883105Y-89765143D01*
X41835486Y-89812762D01*
X41740248Y-89860381D01*
X41549771Y-89860381D01*
X41454533Y-89812762D01*
X41406914Y-89765143D01*
X41359295Y-89669905D01*
X41359295Y-89479429D01*
X41406914Y-89384190D01*
X41454533Y-89336571D01*
X41549771Y-89288952D01*
X45162743Y-98112343D02*
X45210362Y-98064724D01*
X45257981Y-97921867D01*
X45257981Y-97826629D01*
X45210362Y-97683771D01*
X45115124Y-97588533D01*
X45019886Y-97540914D01*
X44829410Y-97493295D01*
X44686552Y-97493295D01*
X44496076Y-97540914D01*
X44400838Y-97588533D01*
X44305600Y-97683771D01*
X44257981Y-97826629D01*
X44257981Y-97921867D01*
X44305600Y-98064724D01*
X44353219Y-98112343D01*
X44353219Y-98493295D02*
X44305600Y-98540914D01*
X44257981Y-98636152D01*
X44257981Y-98874248D01*
X44305600Y-98969486D01*
X44353219Y-99017105D01*
X44448457Y-99064724D01*
X44543695Y-99064724D01*
X44686552Y-99017105D01*
X45257981Y-98445676D01*
X45257981Y-99064724D01*
X45257981Y-99540914D02*
X45257981Y-99731390D01*
X45210362Y-99826629D01*
X45162743Y-99874248D01*
X45019886Y-99969486D01*
X44829410Y-100017105D01*
X44448457Y-100017105D01*
X44353219Y-99969486D01*
X44305600Y-99921867D01*
X44257981Y-99826629D01*
X44257981Y-99636152D01*
X44305600Y-99540914D01*
X44353219Y-99493295D01*
X44448457Y-99445676D01*
X44686552Y-99445676D01*
X44781790Y-99493295D01*
X44829410Y-99540914D01*
X44877029Y-99636152D01*
X44877029Y-99826629D01*
X44829410Y-99921867D01*
X44781790Y-99969486D01*
X44686552Y-100017105D01*
X43264057Y-87733143D02*
X43311676Y-87780762D01*
X43454533Y-87828381D01*
X43549771Y-87828381D01*
X43692629Y-87780762D01*
X43787867Y-87685524D01*
X43835486Y-87590286D01*
X43883105Y-87399810D01*
X43883105Y-87256952D01*
X43835486Y-87066476D01*
X43787867Y-86971238D01*
X43692629Y-86876000D01*
X43549771Y-86828381D01*
X43454533Y-86828381D01*
X43311676Y-86876000D01*
X43264057Y-86923619D01*
X42930724Y-86828381D02*
X42311676Y-86828381D01*
X42645010Y-87209333D01*
X42502152Y-87209333D01*
X42406914Y-87256952D01*
X42359295Y-87304571D01*
X42311676Y-87399810D01*
X42311676Y-87637905D01*
X42359295Y-87733143D01*
X42406914Y-87780762D01*
X42502152Y-87828381D01*
X42787867Y-87828381D01*
X42883105Y-87780762D01*
X42930724Y-87733143D01*
X41692629Y-86828381D02*
X41597390Y-86828381D01*
X41502152Y-86876000D01*
X41454533Y-86923619D01*
X41406914Y-87018857D01*
X41359295Y-87209333D01*
X41359295Y-87447429D01*
X41406914Y-87637905D01*
X41454533Y-87733143D01*
X41502152Y-87780762D01*
X41597390Y-87828381D01*
X41692629Y-87828381D01*
X41787867Y-87780762D01*
X41835486Y-87733143D01*
X41883105Y-87637905D01*
X41930724Y-87447429D01*
X41930724Y-87209333D01*
X41883105Y-87018857D01*
X41835486Y-86923619D01*
X41787867Y-86876000D01*
X41692629Y-86828381D01*
X42622743Y-98213943D02*
X42670362Y-98166324D01*
X42717981Y-98023467D01*
X42717981Y-97928229D01*
X42670362Y-97785371D01*
X42575124Y-97690133D01*
X42479886Y-97642514D01*
X42289410Y-97594895D01*
X42146552Y-97594895D01*
X41956076Y-97642514D01*
X41860838Y-97690133D01*
X41765600Y-97785371D01*
X41717981Y-97928229D01*
X41717981Y-98023467D01*
X41765600Y-98166324D01*
X41813219Y-98213943D01*
X41717981Y-98547276D02*
X41717981Y-99166324D01*
X42098933Y-98832990D01*
X42098933Y-98975848D01*
X42146552Y-99071086D01*
X42194171Y-99118705D01*
X42289410Y-99166324D01*
X42527505Y-99166324D01*
X42622743Y-99118705D01*
X42670362Y-99071086D01*
X42717981Y-98975848D01*
X42717981Y-98690133D01*
X42670362Y-98594895D01*
X42622743Y-98547276D01*
X42717981Y-100118705D02*
X42717981Y-99547276D01*
X42717981Y-99832990D02*
X41717981Y-99832990D01*
X41860838Y-99737752D01*
X41956076Y-99642514D01*
X42003695Y-99547276D01*
X43213257Y-91847943D02*
X43260876Y-91895562D01*
X43403733Y-91943181D01*
X43498971Y-91943181D01*
X43641829Y-91895562D01*
X43737067Y-91800324D01*
X43784686Y-91705086D01*
X43832305Y-91514610D01*
X43832305Y-91371752D01*
X43784686Y-91181276D01*
X43737067Y-91086038D01*
X43641829Y-90990800D01*
X43498971Y-90943181D01*
X43403733Y-90943181D01*
X43260876Y-90990800D01*
X43213257Y-91038419D01*
X42879924Y-90943181D02*
X42260876Y-90943181D01*
X42594210Y-91324133D01*
X42451352Y-91324133D01*
X42356114Y-91371752D01*
X42308495Y-91419371D01*
X42260876Y-91514610D01*
X42260876Y-91752705D01*
X42308495Y-91847943D01*
X42356114Y-91895562D01*
X42451352Y-91943181D01*
X42737067Y-91943181D01*
X42832305Y-91895562D01*
X42879924Y-91847943D01*
X41879924Y-91038419D02*
X41832305Y-90990800D01*
X41737067Y-90943181D01*
X41498971Y-90943181D01*
X41403733Y-90990800D01*
X41356114Y-91038419D01*
X41308495Y-91133657D01*
X41308495Y-91228895D01*
X41356114Y-91371752D01*
X41927543Y-91943181D01*
X41308495Y-91943181D01*
X43079943Y-77284343D02*
X43127562Y-77236724D01*
X43175181Y-77093867D01*
X43175181Y-76998629D01*
X43127562Y-76855771D01*
X43032324Y-76760533D01*
X42937086Y-76712914D01*
X42746610Y-76665295D01*
X42603752Y-76665295D01*
X42413276Y-76712914D01*
X42318038Y-76760533D01*
X42222800Y-76855771D01*
X42175181Y-76998629D01*
X42175181Y-77093867D01*
X42222800Y-77236724D01*
X42270419Y-77284343D01*
X42175181Y-77617676D02*
X42175181Y-78236724D01*
X42556133Y-77903390D01*
X42556133Y-78046248D01*
X42603752Y-78141486D01*
X42651371Y-78189105D01*
X42746610Y-78236724D01*
X42984705Y-78236724D01*
X43079943Y-78189105D01*
X43127562Y-78141486D01*
X43175181Y-78046248D01*
X43175181Y-77760533D01*
X43127562Y-77665295D01*
X43079943Y-77617676D01*
X42175181Y-78570057D02*
X42175181Y-79189105D01*
X42556133Y-78855771D01*
X42556133Y-78998629D01*
X42603752Y-79093867D01*
X42651371Y-79141486D01*
X42746610Y-79189105D01*
X42984705Y-79189105D01*
X43079943Y-79141486D01*
X43127562Y-79093867D01*
X43175181Y-78998629D01*
X43175181Y-78712914D01*
X43127562Y-78617676D01*
X43079943Y-78570057D01*
X43264057Y-85751943D02*
X43311676Y-85799562D01*
X43454533Y-85847181D01*
X43549771Y-85847181D01*
X43692629Y-85799562D01*
X43787867Y-85704324D01*
X43835486Y-85609086D01*
X43883105Y-85418610D01*
X43883105Y-85275752D01*
X43835486Y-85085276D01*
X43787867Y-84990038D01*
X43692629Y-84894800D01*
X43549771Y-84847181D01*
X43454533Y-84847181D01*
X43311676Y-84894800D01*
X43264057Y-84942419D01*
X42930724Y-84847181D02*
X42311676Y-84847181D01*
X42645010Y-85228133D01*
X42502152Y-85228133D01*
X42406914Y-85275752D01*
X42359295Y-85323371D01*
X42311676Y-85418610D01*
X42311676Y-85656705D01*
X42359295Y-85751943D01*
X42406914Y-85799562D01*
X42502152Y-85847181D01*
X42787867Y-85847181D01*
X42883105Y-85799562D01*
X42930724Y-85751943D01*
X41454533Y-85180514D02*
X41454533Y-85847181D01*
X41692629Y-84799562D02*
X41930724Y-85513848D01*
X41311676Y-85513848D01*
X55506857Y-90933543D02*
X55554476Y-90981162D01*
X55697333Y-91028781D01*
X55792571Y-91028781D01*
X55935429Y-90981162D01*
X56030667Y-90885924D01*
X56078286Y-90790686D01*
X56125905Y-90600210D01*
X56125905Y-90457352D01*
X56078286Y-90266876D01*
X56030667Y-90171638D01*
X55935429Y-90076400D01*
X55792571Y-90028781D01*
X55697333Y-90028781D01*
X55554476Y-90076400D01*
X55506857Y-90124019D01*
X55173524Y-90028781D02*
X54554476Y-90028781D01*
X54887810Y-90409733D01*
X54744952Y-90409733D01*
X54649714Y-90457352D01*
X54602095Y-90504971D01*
X54554476Y-90600210D01*
X54554476Y-90838305D01*
X54602095Y-90933543D01*
X54649714Y-90981162D01*
X54744952Y-91028781D01*
X55030667Y-91028781D01*
X55125905Y-90981162D01*
X55173524Y-90933543D01*
X53649714Y-90028781D02*
X54125905Y-90028781D01*
X54173524Y-90504971D01*
X54125905Y-90457352D01*
X54030667Y-90409733D01*
X53792571Y-90409733D01*
X53697333Y-90457352D01*
X53649714Y-90504971D01*
X53602095Y-90600210D01*
X53602095Y-90838305D01*
X53649714Y-90933543D01*
X53697333Y-90981162D01*
X53792571Y-91028781D01*
X54030667Y-91028781D01*
X54125905Y-90981162D01*
X54173524Y-90933543D01*
X34831257Y-90273143D02*
X34878876Y-90320762D01*
X35021733Y-90368381D01*
X35116971Y-90368381D01*
X35259829Y-90320762D01*
X35355067Y-90225524D01*
X35402686Y-90130286D01*
X35450305Y-89939810D01*
X35450305Y-89796952D01*
X35402686Y-89606476D01*
X35355067Y-89511238D01*
X35259829Y-89416000D01*
X35116971Y-89368381D01*
X35021733Y-89368381D01*
X34878876Y-89416000D01*
X34831257Y-89463619D01*
X34497924Y-89368381D02*
X33878876Y-89368381D01*
X34212210Y-89749333D01*
X34069352Y-89749333D01*
X33974114Y-89796952D01*
X33926495Y-89844571D01*
X33878876Y-89939810D01*
X33878876Y-90177905D01*
X33926495Y-90273143D01*
X33974114Y-90320762D01*
X34069352Y-90368381D01*
X34355067Y-90368381D01*
X34450305Y-90320762D01*
X34497924Y-90273143D01*
X33021733Y-89368381D02*
X33212210Y-89368381D01*
X33307448Y-89416000D01*
X33355067Y-89463619D01*
X33450305Y-89606476D01*
X33497924Y-89796952D01*
X33497924Y-90177905D01*
X33450305Y-90273143D01*
X33402686Y-90320762D01*
X33307448Y-90368381D01*
X33116971Y-90368381D01*
X33021733Y-90320762D01*
X32974114Y-90273143D01*
X32926495Y-90177905D01*
X32926495Y-89939810D01*
X32974114Y-89844571D01*
X33021733Y-89796952D01*
X33116971Y-89749333D01*
X33307448Y-89749333D01*
X33402686Y-89796952D01*
X33450305Y-89844571D01*
X33497924Y-89939810D01*
X35182381Y-65682834D02*
X34706190Y-65349500D01*
X35182381Y-65111405D02*
X34182381Y-65111405D01*
X34182381Y-65492358D01*
X34230000Y-65587596D01*
X34277619Y-65635215D01*
X34372857Y-65682834D01*
X34515714Y-65682834D01*
X34610952Y-65635215D01*
X34658571Y-65587596D01*
X34706190Y-65492358D01*
X34706190Y-65111405D01*
X35182381Y-66635215D02*
X35182381Y-66063786D01*
X35182381Y-66349500D02*
X34182381Y-66349500D01*
X34325238Y-66254262D01*
X34420476Y-66159024D01*
X34468095Y-66063786D01*
X42430381Y-65682834D02*
X41954190Y-65349500D01*
X42430381Y-65111405D02*
X41430381Y-65111405D01*
X41430381Y-65492358D01*
X41478000Y-65587596D01*
X41525619Y-65635215D01*
X41620857Y-65682834D01*
X41763714Y-65682834D01*
X41858952Y-65635215D01*
X41906571Y-65587596D01*
X41954190Y-65492358D01*
X41954190Y-65111405D01*
X41525619Y-66063786D02*
X41478000Y-66111405D01*
X41430381Y-66206643D01*
X41430381Y-66444739D01*
X41478000Y-66539977D01*
X41525619Y-66587596D01*
X41620857Y-66635215D01*
X41716095Y-66635215D01*
X41858952Y-66587596D01*
X42430381Y-66016167D01*
X42430381Y-66635215D01*
X60110666Y-31508381D02*
X60444000Y-31032190D01*
X60682095Y-31508381D02*
X60682095Y-30508381D01*
X60301142Y-30508381D01*
X60205904Y-30556000D01*
X60158285Y-30603619D01*
X60110666Y-30698857D01*
X60110666Y-30841714D01*
X60158285Y-30936952D01*
X60205904Y-30984571D01*
X60301142Y-31032190D01*
X60682095Y-31032190D01*
X59777333Y-30508381D02*
X59158285Y-30508381D01*
X59491619Y-30889333D01*
X59348761Y-30889333D01*
X59253523Y-30936952D01*
X59205904Y-30984571D01*
X59158285Y-31079810D01*
X59158285Y-31317905D01*
X59205904Y-31413143D01*
X59253523Y-31460762D01*
X59348761Y-31508381D01*
X59634476Y-31508381D01*
X59729714Y-31460762D01*
X59777333Y-31413143D01*
X60110666Y-24260381D02*
X60444000Y-23784190D01*
X60682095Y-24260381D02*
X60682095Y-23260381D01*
X60301142Y-23260381D01*
X60205904Y-23308000D01*
X60158285Y-23355619D01*
X60110666Y-23450857D01*
X60110666Y-23593714D01*
X60158285Y-23688952D01*
X60205904Y-23736571D01*
X60301142Y-23784190D01*
X60682095Y-23784190D01*
X59253523Y-23593714D02*
X59253523Y-24260381D01*
X59491619Y-23212762D02*
X59729714Y-23927048D01*
X59110666Y-23927048D01*
X49950666Y-24260381D02*
X50284000Y-23784190D01*
X50522095Y-24260381D02*
X50522095Y-23260381D01*
X50141142Y-23260381D01*
X50045904Y-23308000D01*
X49998285Y-23355619D01*
X49950666Y-23450857D01*
X49950666Y-23593714D01*
X49998285Y-23688952D01*
X50045904Y-23736571D01*
X50141142Y-23784190D01*
X50522095Y-23784190D01*
X49045904Y-23260381D02*
X49522095Y-23260381D01*
X49569714Y-23736571D01*
X49522095Y-23688952D01*
X49426857Y-23641333D01*
X49188761Y-23641333D01*
X49093523Y-23688952D01*
X49045904Y-23736571D01*
X48998285Y-23831810D01*
X48998285Y-24069905D01*
X49045904Y-24165143D01*
X49093523Y-24212762D01*
X49188761Y-24260381D01*
X49426857Y-24260381D01*
X49522095Y-24212762D01*
X49569714Y-24165143D01*
X49950666Y-31508381D02*
X50284000Y-31032190D01*
X50522095Y-31508381D02*
X50522095Y-30508381D01*
X50141142Y-30508381D01*
X50045904Y-30556000D01*
X49998285Y-30603619D01*
X49950666Y-30698857D01*
X49950666Y-30841714D01*
X49998285Y-30936952D01*
X50045904Y-30984571D01*
X50141142Y-31032190D01*
X50522095Y-31032190D01*
X49093523Y-30508381D02*
X49284000Y-30508381D01*
X49379238Y-30556000D01*
X49426857Y-30603619D01*
X49522095Y-30746476D01*
X49569714Y-30936952D01*
X49569714Y-31317905D01*
X49522095Y-31413143D01*
X49474476Y-31460762D01*
X49379238Y-31508381D01*
X49188761Y-31508381D01*
X49093523Y-31460762D01*
X49045904Y-31413143D01*
X48998285Y-31317905D01*
X48998285Y-31079810D01*
X49045904Y-30984571D01*
X49093523Y-30936952D01*
X49188761Y-30889333D01*
X49379238Y-30889333D01*
X49474476Y-30936952D01*
X49522095Y-30984571D01*
X49569714Y-31079810D01*
X33218381Y-86650534D02*
X32742190Y-86317200D01*
X33218381Y-86079105D02*
X32218381Y-86079105D01*
X32218381Y-86460058D01*
X32266000Y-86555296D01*
X32313619Y-86602915D01*
X32408857Y-86650534D01*
X32551714Y-86650534D01*
X32646952Y-86602915D01*
X32694571Y-86555296D01*
X32742190Y-86460058D01*
X32742190Y-86079105D01*
X32218381Y-86983867D02*
X32218381Y-87650534D01*
X33218381Y-87221962D01*
M02*
