M48
;DRILL file {kicad (2015-01-16 BZR 5376)-product} date 2015-03-11 03:36:46
;FORMAT={-:-/ absolute / inch / decimal}
FMAT,2
INCH,TZ
T1C0.013
T2C0.031
T3C0.040
T4C0.041
T5C0.047
%
G90
G05
M72
T1
X0.284Y-2.328
X0.32Y-0.622
X0.324Y-0.502
X0.402Y-3.028
X0.48Y-0.404
X0.5008Y-0.63
X0.53Y-0.356
X0.538Y-2.3
X0.572Y-3.572
X0.61Y-1.638
X0.622Y-2.344
X0.642Y-3.438
X0.648Y-3.648
X0.662Y-2.304
X0.673Y-0.889
X0.6894Y-0.9954
X0.6894Y-1.7545
X0.7249Y-0.9255
X0.734Y-2.262
X0.74Y-0.34
X0.746Y-1.612
X0.786Y-0.6716
X0.8269Y-1.531
X0.834Y-2.294
X0.85Y-3.854
X0.882Y-0.9287
X0.8863Y-1.8245
X0.888Y-2.1
X0.956Y-2.174
X0.974Y-0.7
X1.036Y-0.704
X1.052Y-4.056
X1.054Y-4.264
X1.142Y-0.324
X1.2776Y-2.3788
X1.284Y-0.944
X1.2841Y-1.5113
X1.2927Y-2.4728
X1.313Y-3.4149
X1.32Y-1.09
X1.328Y-0.81
X1.332Y-0.998
X1.338Y-0.356
X1.3511Y-3.514
X1.3622Y-1.4687
X1.368Y-3.012
X1.374Y-0.892
X1.3755Y-3.6834
X1.399Y-3.721
X1.4Y-0.388
X1.4221Y-3.8003
X1.428Y-0.346
X1.432Y-0.454
X1.4329Y-2.5213
X1.4363Y-2.6638
X1.464Y-3.114
X1.4966Y-3.8002
X1.5Y-3.154
X1.5119Y-2.6299
X1.5383Y-2.2784
X1.54Y-0.406
X1.54Y-2.996
X1.549Y-2.6651
X1.564Y-3.1952
X1.574Y-0.37
X1.5746Y-3.7713
X1.5837Y-2.5212
X1.5837Y-2.4199
X1.592Y-3.484
X1.596Y-2.956
X1.6026Y-3.0942
X1.6082Y-2.219
X1.6157Y-3.818
X1.626Y-2.495
X1.6278Y-3.6195
X1.6517Y-3.6525
X1.6518Y-1.9665
X1.6591Y-2.5056
X1.6606Y-1.8677
X1.6846Y-1.1991
X1.692Y-2.948
X1.6952Y-2.0332
X1.6952Y-2.154
X1.7084Y-1.5757
X1.71Y-3.7994
X1.7127Y-3.1193
X1.716Y-2.87
X1.716Y-1.3935
X1.7209Y-3.6119
X1.741Y-1.6864
X1.7421Y-2.5031
X1.7478Y-1.4959
X1.7578Y-2.0946
X1.7895Y-3.0652
X1.8Y-3.355
X1.8045Y-1.4686
X1.8472Y-1.7445
X1.88Y-2.2426
X1.8892Y-1.1341
X1.9031Y-2.2967
X1.912Y-1.532
X1.9228Y-1.9376
X1.926Y-1.744
X1.9317Y-2.2309
X1.9328Y-3.56
X1.9425Y-1.42
X1.9585Y-1.8613
X1.9585Y-2.034
X1.9633Y-1.2054
X1.9694Y-2.2485
X1.978Y-3.164
X1.9853Y-2.4094
X1.9974Y-1.0776
X2.002Y-1.608
X2.006Y-3.06
X2.0209Y-1.1857
X2.0229Y-1.42
X2.0237Y-2.0081
X2.0357Y-3.4308
X2.0371Y-1.2673
X2.0403Y-2.5303
X2.0606Y-1.1445
X2.0803Y-2.034
X2.0838Y-1.22
X2.0866Y-3.7059
X2.094Y-1.742
X2.1Y-1.6607
X2.145Y-2.3695
X2.158Y-3.26
X2.1615Y-1.128
X2.17Y-2.898
X2.188Y-3.32
X2.196Y-2.852
X2.1984Y-2.0094
X2.204Y-3.21
X2.2045Y-2.1794
X2.2291Y-2.4997
X2.242Y-3.368
X2.2425Y-2.14
X2.2454Y-1.9964
X2.248Y-1.558
X2.248Y-1.744
X2.256Y-3.67
X2.26Y-3.254
X2.262Y-3.574
X2.274Y-2.818
X2.292Y-3.32
X2.292Y-3.418
X2.2975Y-1.945
X2.308Y-3.51
X2.308Y-3.616
X2.3157Y-0.9748
X2.325Y-1.42
X2.3262Y-1.6044
X2.3295Y-1.1855
X2.336Y-3.742
X2.338Y-2.886
X2.34Y-3.37
X2.35Y-1.8025
X2.3525Y-1.7025
X2.3586Y-1.3028
X2.3629Y-0.9958
X2.3875Y-2.0713
X2.3886Y-0.8869
X2.4244Y-2.1072
X2.4522Y-1.9187
X2.46Y-1.5912
X2.5396Y-1.8059
X2.5704Y-1.5572
X2.586Y-3.536
X2.5884Y-1.6294
X2.654Y-2.454
X2.66Y-2.382
X2.678Y-2.626
X2.712Y-2.556
X2.7648Y-0.9742
T2
X0.3813Y-2.4431
X0.3813Y-2.5219
X0.46Y-2.4431
X0.46Y-2.5219
X0.5388Y-2.4431
X0.5388Y-2.5219
X0.6175Y-2.4431
X0.6175Y-2.5219
X0.6962Y-2.4431
X0.6962Y-2.5219
X0.775Y-2.4431
X0.775Y-2.5219
X0.8537Y-2.4431
X0.8537Y-2.5219
X1.3931Y-1.7113
X1.3931Y-1.79
X1.3931Y-1.8688
X1.3931Y-1.9475
X1.3931Y-2.0262
X1.3931Y-2.105
X1.3931Y-2.1837
X1.4719Y-1.7113
X1.4719Y-1.79
X1.4719Y-1.8688
X1.4719Y-1.9475
X1.4719Y-2.0262
X1.4719Y-2.105
X1.4719Y-2.1837
T3
X0.11Y-0.7
X0.21Y-1.68
X0.21Y-2.08
X0.21Y-2.18
X0.35Y-0.14
X0.35Y-0.24
X0.45Y-0.14
X0.45Y-0.24
X0.55Y-0.14
X0.55Y-0.24
X0.55Y-0.5
X0.65Y-0.14
X0.65Y-0.24
X0.725Y-2.1075
X0.75Y-0.14
X0.75Y-0.24
X0.7925Y-1.32
X0.85Y-0.14
X0.85Y-0.24
X0.95Y-0.14
X0.95Y-0.24
X0.99Y-0.82
X1.05Y-0.14
X1.05Y-0.24
X1.15Y-0.14
X1.15Y-0.24
X1.15Y-0.54
X1.15Y-0.64
X1.16Y-3.04
X1.16Y-3.14
X1.16Y-3.24
X1.16Y-3.34
X1.16Y-3.66
X1.16Y-3.76
X1.16Y-3.86
X1.16Y-3.96
X1.16Y-4.06
X1.16Y-4.16
X1.195Y-0.78
X1.195Y-0.88
X1.195Y-0.98
X1.195Y-1.18
X1.195Y-1.28
X1.195Y-1.38
X1.195Y-1.48
X1.195Y-1.58
X1.195Y-1.68
X1.195Y-1.98
X1.195Y-2.1
X1.195Y-2.2
X1.195Y-2.3
X1.25Y-0.14
X1.25Y-0.24
X1.25Y-0.54
X1.25Y-0.64
X1.35Y-0.14
X1.35Y-0.24
X1.35Y-0.54
X1.35Y-0.64
X1.36Y-4.16
X1.45Y-0.14
X1.45Y-0.24
X1.45Y-0.54
X1.45Y-0.64
X1.46Y-4.16
X1.48Y-2.86
X1.5Y-0.78
X1.5475Y-0.995
X1.55Y-0.14
X1.55Y-0.24
X1.55Y-0.54
X1.55Y-0.64
X1.56Y-4.16
X1.58Y-2.86
X1.6Y-0.78
X1.65Y-0.14
X1.65Y-0.24
X1.65Y-0.54
X1.65Y-0.64
X1.65Y-4.32
X1.65Y-4.42
X1.66Y-4.16
X1.7Y-0.78
X1.725Y-2.61
X1.725Y-2.71
X1.75Y-0.14
X1.75Y-0.24
X1.75Y-0.54
X1.75Y-0.64
X1.75Y-4.32
X1.75Y-4.42
X1.76Y-4.16
X1.825Y-2.61
X1.825Y-2.71
X1.85Y-0.14
X1.85Y-0.24
X1.85Y-0.54
X1.85Y-0.64
X1.85Y-4.32
X1.85Y-4.42
X1.86Y-4.16
X1.925Y-2.61
X1.925Y-2.71
X1.94Y-2.86
X1.95Y-0.14
X1.95Y-0.24
X1.95Y-0.54
X1.95Y-0.64
X1.95Y-4.32
X1.95Y-4.42
X1.96Y-4.16
X2.Y-0.78
X2.025Y-2.61
X2.025Y-2.71
X2.04Y-2.86
X2.05Y-0.14
X2.05Y-0.24
X2.05Y-0.54
X2.05Y-0.64
X2.05Y-4.32
X2.05Y-4.42
X2.06Y-4.16
X2.1Y-0.78
X2.125Y-2.61
X2.125Y-2.71
X2.15Y-0.14
X2.15Y-0.24
X2.15Y-0.54
X2.15Y-0.64
X2.15Y-4.32
X2.15Y-4.42
X2.16Y-4.16
X2.18Y-3.86
X2.2Y-0.78
X2.225Y-2.61
X2.225Y-2.71
X2.25Y-0.14
X2.25Y-0.24
X2.25Y-0.54
X2.25Y-0.64
X2.25Y-4.32
X2.25Y-4.42
X2.3Y-0.78
X2.325Y-2.61
X2.325Y-2.71
X2.35Y-2.34
X2.35Y-4.32
X2.35Y-4.42
X2.4Y-0.78
X2.45Y-2.86
X2.45Y-2.96
X2.45Y-3.06
X2.45Y-3.16
X2.45Y-3.26
X2.45Y-3.36
X2.45Y-3.66
X2.45Y-3.76
X2.45Y-3.86
X2.45Y-3.96
X2.45Y-4.06
X2.45Y-4.16
X2.45Y-4.32
X2.45Y-4.42
X2.5Y-0.78
X2.5Y-2.29
X2.5Y-2.39
X2.5Y-2.59
X2.5Y-2.69
X2.55Y-4.32
X2.55Y-4.42
X2.69Y-0.78
X2.69Y-1.08
X2.69Y-1.18
X2.69Y-1.28
X2.69Y-1.38
X2.69Y-1.48
X2.69Y-1.58
X2.69Y-1.68
X2.69Y-1.78
X2.69Y-1.88
X2.69Y-1.98
X2.69Y-2.08
X2.69Y-2.18
X2.69Y-2.28
T4
X1.1645Y-4.3307
X1.3555Y-4.3307
T5
X1.1527Y-4.45
X1.3673Y-4.45
T0
M30
