G04 #@! TF.FileFunction,Legend,Top*
%FSLAX46Y46*%
G04 Gerber Fmt 4.6, Leading zero omitted, Abs format (unit mm)*
G04 Created by KiCad (PCBNEW (2015-01-16 BZR 5376)-product) date 2015-03-11 03:36:44*
%MOMM*%
G01*
G04 APERTURE LIST*
%ADD10C,0.100000*%
%ADD11C,0.300000*%
%ADD12C,0.150000*%
%ADD13C,0.200000*%
G04 APERTURE END LIST*
D10*
D11*
X4078973Y-68604971D02*
X3578973Y-67890686D01*
X3221830Y-68604971D02*
X3221830Y-67104971D01*
X3793258Y-67104971D01*
X3936116Y-67176400D01*
X4007544Y-67247829D01*
X4078973Y-67390686D01*
X4078973Y-67604971D01*
X4007544Y-67747829D01*
X3936116Y-67819257D01*
X3793258Y-67890686D01*
X3221830Y-67890686D01*
X5436116Y-68604971D02*
X4721830Y-68604971D01*
X4721830Y-67104971D01*
X5936116Y-68033543D02*
X7078973Y-68033543D01*
X8078973Y-67104971D02*
X8221830Y-67104971D01*
X8364687Y-67176400D01*
X8436116Y-67247829D01*
X8507545Y-67390686D01*
X8578973Y-67676400D01*
X8578973Y-68033543D01*
X8507545Y-68319257D01*
X8436116Y-68462114D01*
X8364687Y-68533543D01*
X8221830Y-68604971D01*
X8078973Y-68604971D01*
X7936116Y-68533543D01*
X7864687Y-68462114D01*
X7793259Y-68319257D01*
X7721830Y-68033543D01*
X7721830Y-67676400D01*
X7793259Y-67390686D01*
X7864687Y-67247829D01*
X7936116Y-67176400D01*
X8078973Y-67104971D01*
X9150401Y-67247829D02*
X9221830Y-67176400D01*
X9364687Y-67104971D01*
X9721830Y-67104971D01*
X9864687Y-67176400D01*
X9936116Y-67247829D01*
X10007544Y-67390686D01*
X10007544Y-67533543D01*
X9936116Y-67747829D01*
X9078973Y-68604971D01*
X10007544Y-68604971D01*
X10650401Y-68033543D02*
X11793258Y-68033543D01*
X12507544Y-67104971D02*
X12507544Y-68319257D01*
X12578972Y-68462114D01*
X12650401Y-68533543D01*
X12793258Y-68604971D01*
X13078972Y-68604971D01*
X13221830Y-68533543D01*
X13293258Y-68462114D01*
X13364687Y-68319257D01*
X13364687Y-67104971D01*
X14007544Y-68533543D02*
X14221830Y-68604971D01*
X14578973Y-68604971D01*
X14721830Y-68533543D01*
X14793259Y-68462114D01*
X14864687Y-68319257D01*
X14864687Y-68176400D01*
X14793259Y-68033543D01*
X14721830Y-67962114D01*
X14578973Y-67890686D01*
X14293259Y-67819257D01*
X14150401Y-67747829D01*
X14078973Y-67676400D01*
X14007544Y-67533543D01*
X14007544Y-67390686D01*
X14078973Y-67247829D01*
X14150401Y-67176400D01*
X14293259Y-67104971D01*
X14650401Y-67104971D01*
X14864687Y-67176400D01*
X16007544Y-67819257D02*
X16221830Y-67890686D01*
X16293258Y-67962114D01*
X16364687Y-68104971D01*
X16364687Y-68319257D01*
X16293258Y-68462114D01*
X16221830Y-68533543D01*
X16078972Y-68604971D01*
X15507544Y-68604971D01*
X15507544Y-67104971D01*
X16007544Y-67104971D01*
X16150401Y-67176400D01*
X16221830Y-67247829D01*
X16293258Y-67390686D01*
X16293258Y-67533543D01*
X16221830Y-67676400D01*
X16150401Y-67747829D01*
X16007544Y-67819257D01*
X15507544Y-67819257D01*
X19007544Y-68462114D02*
X18936115Y-68533543D01*
X18721829Y-68604971D01*
X18578972Y-68604971D01*
X18364687Y-68533543D01*
X18221829Y-68390686D01*
X18150401Y-68247829D01*
X18078972Y-67962114D01*
X18078972Y-67747829D01*
X18150401Y-67462114D01*
X18221829Y-67319257D01*
X18364687Y-67176400D01*
X18578972Y-67104971D01*
X18721829Y-67104971D01*
X18936115Y-67176400D01*
X19007544Y-67247829D01*
X19864687Y-68604971D02*
X19721829Y-68533543D01*
X19650401Y-68462114D01*
X19578972Y-68319257D01*
X19578972Y-67890686D01*
X19650401Y-67747829D01*
X19721829Y-67676400D01*
X19864687Y-67604971D01*
X20078972Y-67604971D01*
X20221829Y-67676400D01*
X20293258Y-67747829D01*
X20364687Y-67890686D01*
X20364687Y-68319257D01*
X20293258Y-68462114D01*
X20221829Y-68533543D01*
X20078972Y-68604971D01*
X19864687Y-68604971D01*
X21007544Y-67604971D02*
X21007544Y-68604971D01*
X21007544Y-67747829D02*
X21078972Y-67676400D01*
X21221830Y-67604971D01*
X21436115Y-67604971D01*
X21578972Y-67676400D01*
X21650401Y-67819257D01*
X21650401Y-68604971D01*
X22150401Y-67604971D02*
X22721830Y-67604971D01*
X22364687Y-67104971D02*
X22364687Y-68390686D01*
X22436115Y-68533543D01*
X22578973Y-68604971D01*
X22721830Y-68604971D01*
X23221830Y-68604971D02*
X23221830Y-67604971D01*
X23221830Y-67890686D02*
X23293258Y-67747829D01*
X23364687Y-67676400D01*
X23507544Y-67604971D01*
X23650401Y-67604971D01*
X24364687Y-68604971D02*
X24221829Y-68533543D01*
X24150401Y-68462114D01*
X24078972Y-68319257D01*
X24078972Y-67890686D01*
X24150401Y-67747829D01*
X24221829Y-67676400D01*
X24364687Y-67604971D01*
X24578972Y-67604971D01*
X24721829Y-67676400D01*
X24793258Y-67747829D01*
X24864687Y-67890686D01*
X24864687Y-68319257D01*
X24793258Y-68462114D01*
X24721829Y-68533543D01*
X24578972Y-68604971D01*
X24364687Y-68604971D01*
X25721830Y-68604971D02*
X25578972Y-68533543D01*
X25507544Y-68390686D01*
X25507544Y-67104971D01*
X26507544Y-68604971D02*
X26364686Y-68533543D01*
X26293258Y-68390686D01*
X26293258Y-67104971D01*
X27650400Y-68533543D02*
X27507543Y-68604971D01*
X27221829Y-68604971D01*
X27078972Y-68533543D01*
X27007543Y-68390686D01*
X27007543Y-67819257D01*
X27078972Y-67676400D01*
X27221829Y-67604971D01*
X27507543Y-67604971D01*
X27650400Y-67676400D01*
X27721829Y-67819257D01*
X27721829Y-67962114D01*
X27007543Y-68104971D01*
X28364686Y-68604971D02*
X28364686Y-67604971D01*
X28364686Y-67890686D02*
X28436114Y-67747829D01*
X28507543Y-67676400D01*
X28650400Y-67604971D01*
X28793257Y-67604971D01*
X9971829Y-71004971D02*
X9971829Y-69504971D01*
X10543257Y-69504971D01*
X10686115Y-69576400D01*
X10757543Y-69647829D01*
X10828972Y-69790686D01*
X10828972Y-70004971D01*
X10757543Y-70147829D01*
X10686115Y-70219257D01*
X10543257Y-70290686D01*
X9971829Y-70290686D01*
X12328972Y-71004971D02*
X11828972Y-70290686D01*
X11471829Y-71004971D02*
X11471829Y-69504971D01*
X12043257Y-69504971D01*
X12186115Y-69576400D01*
X12257543Y-69647829D01*
X12328972Y-69790686D01*
X12328972Y-70004971D01*
X12257543Y-70147829D01*
X12186115Y-70219257D01*
X12043257Y-70290686D01*
X11471829Y-70290686D01*
X13257543Y-69504971D02*
X13543257Y-69504971D01*
X13686115Y-69576400D01*
X13828972Y-69719257D01*
X13900400Y-70004971D01*
X13900400Y-70504971D01*
X13828972Y-70790686D01*
X13686115Y-70933543D01*
X13543257Y-71004971D01*
X13257543Y-71004971D01*
X13114686Y-70933543D01*
X12971829Y-70790686D01*
X12900400Y-70504971D01*
X12900400Y-70004971D01*
X12971829Y-69719257D01*
X13114686Y-69576400D01*
X13257543Y-69504971D01*
X14328972Y-69504971D02*
X15186115Y-69504971D01*
X14757544Y-71004971D02*
X14757544Y-69504971D01*
X15971829Y-69504971D02*
X16257543Y-69504971D01*
X16400401Y-69576400D01*
X16543258Y-69719257D01*
X16614686Y-70004971D01*
X16614686Y-70504971D01*
X16543258Y-70790686D01*
X16400401Y-70933543D01*
X16257543Y-71004971D01*
X15971829Y-71004971D01*
X15828972Y-70933543D01*
X15686115Y-70790686D01*
X15614686Y-70504971D01*
X15614686Y-70004971D01*
X15686115Y-69719257D01*
X15828972Y-69576400D01*
X15971829Y-69504971D01*
X17043258Y-69504971D02*
X17900401Y-69504971D01*
X17471830Y-71004971D02*
X17471830Y-69504971D01*
X18686115Y-70290686D02*
X18686115Y-71004971D01*
X18186115Y-69504971D02*
X18686115Y-70290686D01*
X19186115Y-69504971D01*
X19686115Y-71004971D02*
X19686115Y-69504971D01*
X20257543Y-69504971D01*
X20400401Y-69576400D01*
X20471829Y-69647829D01*
X20543258Y-69790686D01*
X20543258Y-70004971D01*
X20471829Y-70147829D01*
X20400401Y-70219257D01*
X20257543Y-70290686D01*
X19686115Y-70290686D01*
X21186115Y-70219257D02*
X21686115Y-70219257D01*
X21900401Y-71004971D02*
X21186115Y-71004971D01*
X21186115Y-69504971D01*
X21900401Y-69504971D01*
X6578972Y-73262114D02*
X6507543Y-73333543D01*
X6293257Y-73404971D01*
X6150400Y-73404971D01*
X5936115Y-73333543D01*
X5793257Y-73190686D01*
X5721829Y-73047829D01*
X5650400Y-72762114D01*
X5650400Y-72547829D01*
X5721829Y-72262114D01*
X5793257Y-72119257D01*
X5936115Y-71976400D01*
X6150400Y-71904971D01*
X6293257Y-71904971D01*
X6507543Y-71976400D01*
X6578972Y-72047829D01*
X7221829Y-73404971D02*
X7221829Y-71904971D01*
X7864686Y-73404971D02*
X7864686Y-72619257D01*
X7793257Y-72476400D01*
X7650400Y-72404971D01*
X7436115Y-72404971D01*
X7293257Y-72476400D01*
X7221829Y-72547829D01*
X8578972Y-73404971D02*
X8578972Y-72404971D01*
X8578972Y-72690686D02*
X8650400Y-72547829D01*
X8721829Y-72476400D01*
X8864686Y-72404971D01*
X9007543Y-72404971D01*
X9507543Y-73404971D02*
X9507543Y-72404971D01*
X9507543Y-71904971D02*
X9436114Y-71976400D01*
X9507543Y-72047829D01*
X9578971Y-71976400D01*
X9507543Y-71904971D01*
X9507543Y-72047829D01*
X10150400Y-73333543D02*
X10293257Y-73404971D01*
X10578972Y-73404971D01*
X10721829Y-73333543D01*
X10793257Y-73190686D01*
X10793257Y-73119257D01*
X10721829Y-72976400D01*
X10578972Y-72904971D01*
X10364686Y-72904971D01*
X10221829Y-72833543D01*
X10150400Y-72690686D01*
X10150400Y-72619257D01*
X10221829Y-72476400D01*
X10364686Y-72404971D01*
X10578972Y-72404971D01*
X10721829Y-72476400D01*
X11221829Y-72404971D02*
X11793258Y-72404971D01*
X11436115Y-71904971D02*
X11436115Y-73190686D01*
X11507543Y-73333543D01*
X11650401Y-73404971D01*
X11793258Y-73404971D01*
X12507544Y-73404971D02*
X12364686Y-73333543D01*
X12293258Y-73262114D01*
X12221829Y-73119257D01*
X12221829Y-72690686D01*
X12293258Y-72547829D01*
X12364686Y-72476400D01*
X12507544Y-72404971D01*
X12721829Y-72404971D01*
X12864686Y-72476400D01*
X12936115Y-72547829D01*
X13007544Y-72690686D01*
X13007544Y-73119257D01*
X12936115Y-73262114D01*
X12864686Y-73333543D01*
X12721829Y-73404971D01*
X12507544Y-73404971D01*
X13650401Y-72404971D02*
X13650401Y-73904971D01*
X13650401Y-72476400D02*
X13793258Y-72404971D01*
X14078972Y-72404971D01*
X14221829Y-72476400D01*
X14293258Y-72547829D01*
X14364687Y-72690686D01*
X14364687Y-73119257D01*
X14293258Y-73262114D01*
X14221829Y-73333543D01*
X14078972Y-73404971D01*
X13793258Y-73404971D01*
X13650401Y-73333543D01*
X15007544Y-73404971D02*
X15007544Y-71904971D01*
X15650401Y-73404971D02*
X15650401Y-72619257D01*
X15578972Y-72476400D01*
X15436115Y-72404971D01*
X15221830Y-72404971D01*
X15078972Y-72476400D01*
X15007544Y-72547829D01*
X16936115Y-73333543D02*
X16793258Y-73404971D01*
X16507544Y-73404971D01*
X16364687Y-73333543D01*
X16293258Y-73190686D01*
X16293258Y-72619257D01*
X16364687Y-72476400D01*
X16507544Y-72404971D01*
X16793258Y-72404971D01*
X16936115Y-72476400D01*
X17007544Y-72619257D01*
X17007544Y-72762114D01*
X16293258Y-72904971D01*
X17650401Y-73404971D02*
X17650401Y-72404971D01*
X17650401Y-72690686D02*
X17721829Y-72547829D01*
X17793258Y-72476400D01*
X17936115Y-72404971D01*
X18078972Y-72404971D01*
X19721829Y-73404971D02*
X19721829Y-71904971D01*
X20293257Y-71904971D01*
X20436115Y-71976400D01*
X20507543Y-72047829D01*
X20578972Y-72190686D01*
X20578972Y-72404971D01*
X20507543Y-72547829D01*
X20436115Y-72619257D01*
X20293257Y-72690686D01*
X19721829Y-72690686D01*
X21864686Y-73404971D02*
X21864686Y-72619257D01*
X21793257Y-72476400D01*
X21650400Y-72404971D01*
X21364686Y-72404971D01*
X21221829Y-72476400D01*
X21864686Y-73333543D02*
X21721829Y-73404971D01*
X21364686Y-73404971D01*
X21221829Y-73333543D01*
X21150400Y-73190686D01*
X21150400Y-73047829D01*
X21221829Y-72904971D01*
X21364686Y-72833543D01*
X21721829Y-72833543D01*
X21864686Y-72762114D01*
X22578972Y-73404971D02*
X22578972Y-72404971D01*
X22578972Y-72690686D02*
X22650400Y-72547829D01*
X22721829Y-72476400D01*
X22864686Y-72404971D01*
X23007543Y-72404971D01*
X23507543Y-73404971D02*
X23507543Y-72404971D01*
X23507543Y-71904971D02*
X23436114Y-71976400D01*
X23507543Y-72047829D01*
X23578971Y-71976400D01*
X23507543Y-71904971D01*
X23507543Y-72047829D01*
X24150400Y-73333543D02*
X24293257Y-73404971D01*
X24578972Y-73404971D01*
X24721829Y-73333543D01*
X24793257Y-73190686D01*
X24793257Y-73119257D01*
X24721829Y-72976400D01*
X24578972Y-72904971D01*
X24364686Y-72904971D01*
X24221829Y-72833543D01*
X24150400Y-72690686D01*
X24150400Y-72619257D01*
X24221829Y-72476400D01*
X24364686Y-72404971D01*
X24578972Y-72404971D01*
X24721829Y-72476400D01*
X25436115Y-73404971D02*
X25436115Y-71904971D01*
X26078972Y-73404971D02*
X26078972Y-72619257D01*
X26007543Y-72476400D01*
X25864686Y-72404971D01*
X25650401Y-72404971D01*
X25507543Y-72476400D01*
X25436115Y-72547829D01*
X4436114Y-75733543D02*
X4293257Y-75804971D01*
X4007543Y-75804971D01*
X3864685Y-75733543D01*
X3793257Y-75662114D01*
X3721828Y-75519257D01*
X3721828Y-75090686D01*
X3793257Y-74947829D01*
X3864685Y-74876400D01*
X4007543Y-74804971D01*
X4293257Y-74804971D01*
X4436114Y-74876400D01*
X5078971Y-75804971D02*
X5078971Y-74304971D01*
X5721828Y-75804971D02*
X5721828Y-75019257D01*
X5650399Y-74876400D01*
X5507542Y-74804971D01*
X5293257Y-74804971D01*
X5150399Y-74876400D01*
X5078971Y-74947829D01*
X6436114Y-75804971D02*
X6436114Y-74804971D01*
X6436114Y-75090686D02*
X6507542Y-74947829D01*
X6578971Y-74876400D01*
X6721828Y-74804971D01*
X6864685Y-74804971D01*
X7364685Y-75804971D02*
X7364685Y-74804971D01*
X7364685Y-74304971D02*
X7293256Y-74376400D01*
X7364685Y-74447829D01*
X7436113Y-74376400D01*
X7364685Y-74304971D01*
X7364685Y-74447829D01*
X8007542Y-75733543D02*
X8150399Y-75804971D01*
X8436114Y-75804971D01*
X8578971Y-75733543D01*
X8650399Y-75590686D01*
X8650399Y-75519257D01*
X8578971Y-75376400D01*
X8436114Y-75304971D01*
X8221828Y-75304971D01*
X8078971Y-75233543D01*
X8007542Y-75090686D01*
X8007542Y-75019257D01*
X8078971Y-74876400D01*
X8221828Y-74804971D01*
X8436114Y-74804971D01*
X8578971Y-74876400D01*
X9078971Y-74804971D02*
X9650400Y-74804971D01*
X9293257Y-74304971D02*
X9293257Y-75590686D01*
X9364685Y-75733543D01*
X9507543Y-75804971D01*
X9650400Y-75804971D01*
X10364686Y-75804971D02*
X10221828Y-75733543D01*
X10150400Y-75662114D01*
X10078971Y-75519257D01*
X10078971Y-75090686D01*
X10150400Y-74947829D01*
X10221828Y-74876400D01*
X10364686Y-74804971D01*
X10578971Y-74804971D01*
X10721828Y-74876400D01*
X10793257Y-74947829D01*
X10864686Y-75090686D01*
X10864686Y-75519257D01*
X10793257Y-75662114D01*
X10721828Y-75733543D01*
X10578971Y-75804971D01*
X10364686Y-75804971D01*
X11507543Y-74804971D02*
X11507543Y-76304971D01*
X11507543Y-74876400D02*
X11650400Y-74804971D01*
X11936114Y-74804971D01*
X12078971Y-74876400D01*
X12150400Y-74947829D01*
X12221829Y-75090686D01*
X12221829Y-75519257D01*
X12150400Y-75662114D01*
X12078971Y-75733543D01*
X11936114Y-75804971D01*
X11650400Y-75804971D01*
X11507543Y-75733543D01*
X12864686Y-75804971D02*
X12864686Y-74304971D01*
X13507543Y-75804971D02*
X13507543Y-75019257D01*
X13436114Y-74876400D01*
X13293257Y-74804971D01*
X13078972Y-74804971D01*
X12936114Y-74876400D01*
X12864686Y-74947829D01*
X14793257Y-75733543D02*
X14650400Y-75804971D01*
X14364686Y-75804971D01*
X14221829Y-75733543D01*
X14150400Y-75590686D01*
X14150400Y-75019257D01*
X14221829Y-74876400D01*
X14364686Y-74804971D01*
X14650400Y-74804971D01*
X14793257Y-74876400D01*
X14864686Y-75019257D01*
X14864686Y-75162114D01*
X14150400Y-75304971D01*
X15507543Y-75804971D02*
X15507543Y-74804971D01*
X15507543Y-75090686D02*
X15578971Y-74947829D01*
X15650400Y-74876400D01*
X15793257Y-74804971D01*
X15936114Y-74804971D01*
X16436114Y-74804971D02*
X16436114Y-76304971D01*
X16436114Y-74876400D02*
X16578971Y-74804971D01*
X16864685Y-74804971D01*
X17007542Y-74876400D01*
X17078971Y-74947829D01*
X17150400Y-75090686D01*
X17150400Y-75519257D01*
X17078971Y-75662114D01*
X17007542Y-75733543D01*
X16864685Y-75804971D01*
X16578971Y-75804971D01*
X16436114Y-75733543D01*
X18436114Y-75804971D02*
X18436114Y-75019257D01*
X18364685Y-74876400D01*
X18221828Y-74804971D01*
X17936114Y-74804971D01*
X17793257Y-74876400D01*
X18436114Y-75733543D02*
X18293257Y-75804971D01*
X17936114Y-75804971D01*
X17793257Y-75733543D01*
X17721828Y-75590686D01*
X17721828Y-75447829D01*
X17793257Y-75304971D01*
X17936114Y-75233543D01*
X18293257Y-75233543D01*
X18436114Y-75162114D01*
X19150400Y-75804971D02*
X19150400Y-74804971D01*
X19150400Y-75090686D02*
X19221828Y-74947829D01*
X19293257Y-74876400D01*
X19436114Y-74804971D01*
X19578971Y-74804971D01*
X20078971Y-75804971D02*
X20078971Y-74804971D01*
X20078971Y-74304971D02*
X20007542Y-74376400D01*
X20078971Y-74447829D01*
X20150399Y-74376400D01*
X20078971Y-74304971D01*
X20078971Y-74447829D01*
X20721828Y-75733543D02*
X20864685Y-75804971D01*
X21150400Y-75804971D01*
X21293257Y-75733543D01*
X21364685Y-75590686D01*
X21364685Y-75519257D01*
X21293257Y-75376400D01*
X21150400Y-75304971D01*
X20936114Y-75304971D01*
X20793257Y-75233543D01*
X20721828Y-75090686D01*
X20721828Y-75019257D01*
X20793257Y-74876400D01*
X20936114Y-74804971D01*
X21150400Y-74804971D01*
X21293257Y-74876400D01*
X22007543Y-75804971D02*
X22007543Y-74304971D01*
X22650400Y-75804971D02*
X22650400Y-75019257D01*
X22578971Y-74876400D01*
X22436114Y-74804971D01*
X22221829Y-74804971D01*
X22078971Y-74876400D01*
X22007543Y-74947829D01*
X23364686Y-75662114D02*
X23436114Y-75733543D01*
X23364686Y-75804971D01*
X23293257Y-75733543D01*
X23364686Y-75662114D01*
X23364686Y-75804971D01*
X24721829Y-75733543D02*
X24578972Y-75804971D01*
X24293258Y-75804971D01*
X24150400Y-75733543D01*
X24078972Y-75662114D01*
X24007543Y-75519257D01*
X24007543Y-75090686D01*
X24078972Y-74947829D01*
X24150400Y-74876400D01*
X24293258Y-74804971D01*
X24578972Y-74804971D01*
X24721829Y-74876400D01*
X25578972Y-75804971D02*
X25436114Y-75733543D01*
X25364686Y-75662114D01*
X25293257Y-75519257D01*
X25293257Y-75090686D01*
X25364686Y-74947829D01*
X25436114Y-74876400D01*
X25578972Y-74804971D01*
X25793257Y-74804971D01*
X25936114Y-74876400D01*
X26007543Y-74947829D01*
X26078972Y-75090686D01*
X26078972Y-75519257D01*
X26007543Y-75662114D01*
X25936114Y-75733543D01*
X25793257Y-75804971D01*
X25578972Y-75804971D01*
X26721829Y-75804971D02*
X26721829Y-74804971D01*
X26721829Y-74947829D02*
X26793257Y-74876400D01*
X26936115Y-74804971D01*
X27150400Y-74804971D01*
X27293257Y-74876400D01*
X27364686Y-75019257D01*
X27364686Y-75804971D01*
X27364686Y-75019257D02*
X27436115Y-74876400D01*
X27578972Y-74804971D01*
X27793257Y-74804971D01*
X27936115Y-74876400D01*
X28007543Y-75019257D01*
X28007543Y-75804971D01*
D12*
X23026000Y-81796000D02*
X23026000Y-82796000D01*
X24726000Y-82796000D02*
X24726000Y-81796000D01*
X24726000Y-94988000D02*
X24726000Y-93988000D01*
X23026000Y-93988000D02*
X23026000Y-94988000D01*
X64770000Y-59436000D02*
X64770000Y-61976000D01*
X65050000Y-56616000D02*
X65050000Y-58166000D01*
X64770000Y-59436000D02*
X62230000Y-59436000D01*
X61950000Y-58166000D02*
X61950000Y-56616000D01*
X61950000Y-56616000D02*
X65050000Y-56616000D01*
X62230000Y-59436000D02*
X62230000Y-61976000D01*
X62230000Y-61976000D02*
X64770000Y-61976000D01*
X64770000Y-67056000D02*
X64770000Y-69596000D01*
X65050000Y-64236000D02*
X65050000Y-65786000D01*
X64770000Y-67056000D02*
X62230000Y-67056000D01*
X61950000Y-65786000D02*
X61950000Y-64236000D01*
X61950000Y-64236000D02*
X65050000Y-64236000D01*
X62230000Y-67056000D02*
X62230000Y-69596000D01*
X62230000Y-69596000D02*
X64770000Y-69596000D01*
X4064000Y-54102000D02*
X4064000Y-51562000D01*
X3784000Y-56922000D02*
X3784000Y-55372000D01*
X4064000Y-54102000D02*
X6604000Y-54102000D01*
X6884000Y-55372000D02*
X6884000Y-56922000D01*
X6884000Y-56922000D02*
X3784000Y-56922000D01*
X6604000Y-54102000D02*
X6604000Y-51562000D01*
X6604000Y-51562000D02*
X4064000Y-51562000D01*
X42545000Y-70104000D02*
X60325000Y-70104000D01*
X57785000Y-65024000D02*
X42545000Y-65024000D01*
X42545000Y-70104000D02*
X42545000Y-65024000D01*
X60325000Y-70104000D02*
X60325000Y-67564000D01*
X60605000Y-66294000D02*
X60605000Y-64744000D01*
X60325000Y-67564000D02*
X57785000Y-67564000D01*
X57785000Y-67564000D02*
X57785000Y-65024000D01*
X60605000Y-64744000D02*
X59055000Y-64744000D01*
X36385500Y-42466500D02*
X36385500Y-44466500D01*
X36385500Y-44466500D02*
X38385500Y-44466500D01*
X34385500Y-56466500D02*
X38385500Y-56466500D01*
X38385500Y-56466500D02*
X38385500Y-42466500D01*
X38385500Y-42466500D02*
X34385500Y-42466500D01*
X34385500Y-42466500D02*
X34385500Y-56466500D01*
X22684500Y-63055500D02*
X20684500Y-63055500D01*
X20684500Y-63055500D02*
X20684500Y-65055500D01*
X8684500Y-61055500D02*
X8684500Y-65055500D01*
X8684500Y-65055500D02*
X22684500Y-65055500D01*
X22684500Y-65055500D02*
X22684500Y-61055500D01*
X22684500Y-61055500D02*
X8684500Y-61055500D01*
X27940000Y-17526000D02*
X58420000Y-17526000D01*
X55880000Y-12446000D02*
X27940000Y-12446000D01*
X27940000Y-17526000D02*
X27940000Y-12446000D01*
X58420000Y-17526000D02*
X58420000Y-14986000D01*
X58700000Y-13716000D02*
X58700000Y-12166000D01*
X58420000Y-14986000D02*
X55880000Y-14986000D01*
X55880000Y-14986000D02*
X55880000Y-12446000D01*
X58700000Y-12166000D02*
X57150000Y-12166000D01*
X7620000Y-7366000D02*
X58420000Y-7366000D01*
X55880000Y-2286000D02*
X7620000Y-2286000D01*
X7620000Y-7366000D02*
X7620000Y-2286000D01*
X58420000Y-7366000D02*
X58420000Y-4826000D01*
X58700000Y-3556000D02*
X58700000Y-2006000D01*
X58420000Y-4826000D02*
X55880000Y-4826000D01*
X55880000Y-4826000D02*
X55880000Y-2286000D01*
X58700000Y-2006000D02*
X57150000Y-2006000D01*
X40640000Y-113538000D02*
X66040000Y-113538000D01*
X63500000Y-108458000D02*
X40640000Y-108458000D01*
X40640000Y-113538000D02*
X40640000Y-108458000D01*
X66040000Y-113538000D02*
X66040000Y-110998000D01*
X66320000Y-109728000D02*
X66320000Y-108178000D01*
X66040000Y-110998000D02*
X63500000Y-110998000D01*
X63500000Y-110998000D02*
X63500000Y-108458000D01*
X66320000Y-108178000D02*
X64770000Y-108178000D01*
X50546000Y-71374000D02*
X53086000Y-71374000D01*
X47726000Y-71094000D02*
X49276000Y-71094000D01*
X50546000Y-71374000D02*
X50546000Y-73914000D01*
X49276000Y-74194000D02*
X47726000Y-74194000D01*
X47726000Y-74194000D02*
X47726000Y-71094000D01*
X50546000Y-73914000D02*
X53086000Y-73914000D01*
X53086000Y-73914000D02*
X53086000Y-71374000D01*
X41056000Y-78881000D02*
X42256000Y-78881000D01*
X42256000Y-80631000D02*
X41056000Y-80631000D01*
X60515000Y-52387000D02*
X60515000Y-51587000D01*
X46165000Y-52387000D02*
X46165000Y-51587000D01*
X46165000Y-38037000D02*
X46165000Y-38837000D01*
X60515000Y-38037000D02*
X60515000Y-38837000D01*
X60515000Y-52387000D02*
X59715000Y-52387000D01*
X60515000Y-38037000D02*
X59715000Y-38037000D01*
X46165000Y-38037000D02*
X46965000Y-38037000D01*
X46165000Y-52387000D02*
X46965000Y-52387000D01*
X60515000Y-51587000D02*
X61790000Y-51587000D01*
X5207000Y-36950000D02*
X5207000Y-39243000D01*
X5194300Y-30106000D02*
X1651000Y-30106000D01*
X5207000Y-27813000D02*
X17088000Y-27813000D01*
X17088000Y-39243000D02*
X5207000Y-39243000D01*
X5207000Y-27813000D02*
X5207000Y-30106000D01*
X12954000Y-50292000D02*
X16002000Y-50292000D01*
X16002000Y-50292000D02*
X16002000Y-43180000D01*
X16002000Y-43180000D02*
X12954000Y-43180000D01*
X9906000Y-50292000D02*
X9144000Y-50292000D01*
X9144000Y-50292000D02*
X6858000Y-48768000D01*
X6858000Y-48768000D02*
X6858000Y-44704000D01*
X6858000Y-44704000D02*
X9144000Y-43180000D01*
X9144000Y-43180000D02*
X9906000Y-43180000D01*
X25506500Y-47977500D02*
X25506500Y-47832500D01*
X21356500Y-47977500D02*
X21356500Y-47832500D01*
X21356500Y-42827500D02*
X21356500Y-42972500D01*
X25506500Y-42827500D02*
X25506500Y-42972500D01*
X25506500Y-47977500D02*
X21356500Y-47977500D01*
X25506500Y-42827500D02*
X21356500Y-42827500D01*
X25506500Y-47832500D02*
X26906500Y-47832500D01*
X20617000Y-24887000D02*
X20617000Y-24782000D01*
X16467000Y-24887000D02*
X16467000Y-24782000D01*
X16467000Y-14737000D02*
X16467000Y-14842000D01*
X20617000Y-14737000D02*
X20617000Y-14842000D01*
X20617000Y-24887000D02*
X16467000Y-24887000D01*
X20617000Y-14737000D02*
X16467000Y-14737000D01*
X20617000Y-24782000D02*
X21992000Y-24782000D01*
X10965000Y-24887000D02*
X10965000Y-24782000D01*
X6815000Y-24887000D02*
X6815000Y-24782000D01*
X6815000Y-14737000D02*
X6815000Y-14842000D01*
X10965000Y-14737000D02*
X10965000Y-14842000D01*
X10965000Y-24887000D02*
X6815000Y-24887000D01*
X10965000Y-14737000D02*
X6815000Y-14737000D01*
X10965000Y-24782000D02*
X12340000Y-24782000D01*
X49879000Y-93567000D02*
X49879000Y-92517000D01*
X39529000Y-93567000D02*
X39529000Y-92517000D01*
X39529000Y-83217000D02*
X39529000Y-84267000D01*
X49879000Y-83217000D02*
X49879000Y-84267000D01*
X49879000Y-93567000D02*
X48829000Y-93567000D01*
X49879000Y-83217000D02*
X48829000Y-83217000D01*
X39529000Y-83217000D02*
X40579000Y-83217000D01*
X39529000Y-93567000D02*
X40579000Y-93567000D01*
X49879000Y-92517000D02*
X51154000Y-92517000D01*
X25351000Y-89392000D02*
X25351000Y-87392000D01*
X22401000Y-87392000D02*
X22401000Y-89392000D01*
X42806500Y-31686500D02*
X42556500Y-31686500D01*
X39306500Y-36186500D02*
X39306500Y-31686500D01*
X39306500Y-31686500D02*
X42556500Y-31686500D01*
X42556500Y-36186500D02*
X35806500Y-36186500D01*
X35806500Y-36186500D02*
X35806500Y-27436500D01*
X35806500Y-27436500D02*
X42556500Y-27436500D01*
X42556500Y-27436500D02*
X42806500Y-27436500D01*
X42806500Y-27436500D02*
X42806500Y-36186500D01*
X42806500Y-36186500D02*
X42556500Y-36186500D01*
X38054000Y-64149500D02*
G75*
G03X38054000Y-64149500I-100000J0D01*
G01*
X38604000Y-64399500D02*
X38104000Y-64399500D01*
X38604000Y-67299500D02*
X38604000Y-64399500D01*
X38104000Y-67299500D02*
X38604000Y-67299500D01*
X38104000Y-64399500D02*
X38104000Y-67299500D01*
X58344000Y-27832000D02*
G75*
G03X58344000Y-27832000I-100000J0D01*
G01*
X58494000Y-27182000D02*
X58494000Y-27682000D01*
X61394000Y-27182000D02*
X58494000Y-27182000D01*
X61394000Y-27682000D02*
X61394000Y-27182000D01*
X58494000Y-27682000D02*
X61394000Y-27682000D01*
X51584000Y-27032000D02*
G75*
G03X51584000Y-27032000I-100000J0D01*
G01*
X51234000Y-27682000D02*
X51234000Y-27182000D01*
X48334000Y-27682000D02*
X51234000Y-27682000D01*
X48334000Y-27182000D02*
X48334000Y-27682000D01*
X51234000Y-27182000D02*
X48334000Y-27182000D01*
X22133143Y-82938857D02*
X22180762Y-82986476D01*
X22228381Y-83129333D01*
X22228381Y-83224571D01*
X22180762Y-83367429D01*
X22085524Y-83462667D01*
X21990286Y-83510286D01*
X21799810Y-83557905D01*
X21656952Y-83557905D01*
X21466476Y-83510286D01*
X21371238Y-83462667D01*
X21276000Y-83367429D01*
X21228381Y-83224571D01*
X21228381Y-83129333D01*
X21276000Y-82986476D01*
X21323619Y-82938857D01*
X21228381Y-82605524D02*
X21228381Y-81986476D01*
X21609333Y-82319810D01*
X21609333Y-82176952D01*
X21656952Y-82081714D01*
X21704571Y-82034095D01*
X21799810Y-81986476D01*
X22037905Y-81986476D01*
X22133143Y-82034095D01*
X22180762Y-82081714D01*
X22228381Y-82176952D01*
X22228381Y-82462667D01*
X22180762Y-82557905D01*
X22133143Y-82605524D01*
X21228381Y-81653143D02*
X21228381Y-80986476D01*
X22228381Y-81415048D01*
X22201143Y-95029257D02*
X22248762Y-95076876D01*
X22296381Y-95219733D01*
X22296381Y-95314971D01*
X22248762Y-95457829D01*
X22153524Y-95553067D01*
X22058286Y-95600686D01*
X21867810Y-95648305D01*
X21724952Y-95648305D01*
X21534476Y-95600686D01*
X21439238Y-95553067D01*
X21344000Y-95457829D01*
X21296381Y-95314971D01*
X21296381Y-95219733D01*
X21344000Y-95076876D01*
X21391619Y-95029257D01*
X21296381Y-94695924D02*
X21296381Y-94076876D01*
X21677333Y-94410210D01*
X21677333Y-94267352D01*
X21724952Y-94172114D01*
X21772571Y-94124495D01*
X21867810Y-94076876D01*
X22105905Y-94076876D01*
X22201143Y-94124495D01*
X22248762Y-94172114D01*
X22296381Y-94267352D01*
X22296381Y-94553067D01*
X22248762Y-94648305D01*
X22201143Y-94695924D01*
X21724952Y-93505448D02*
X21677333Y-93600686D01*
X21629714Y-93648305D01*
X21534476Y-93695924D01*
X21486857Y-93695924D01*
X21391619Y-93648305D01*
X21344000Y-93600686D01*
X21296381Y-93505448D01*
X21296381Y-93314971D01*
X21344000Y-93219733D01*
X21391619Y-93172114D01*
X21486857Y-93124495D01*
X21534476Y-93124495D01*
X21629714Y-93172114D01*
X21677333Y-93219733D01*
X21724952Y-93314971D01*
X21724952Y-93505448D01*
X21772571Y-93600686D01*
X21820190Y-93648305D01*
X21915429Y-93695924D01*
X22105905Y-93695924D01*
X22201143Y-93648305D01*
X22248762Y-93600686D01*
X22296381Y-93505448D01*
X22296381Y-93314971D01*
X22248762Y-93219733D01*
X22201143Y-93172114D01*
X22105905Y-93124495D01*
X21915429Y-93124495D01*
X21820190Y-93172114D01*
X21772571Y-93219733D01*
X21724952Y-93314971D01*
X65917867Y-60412381D02*
X65917867Y-61126667D01*
X65870247Y-61269524D01*
X65775009Y-61364762D01*
X65632152Y-61412381D01*
X65536914Y-61412381D01*
X66394057Y-61412381D02*
X66394057Y-60412381D01*
X66775010Y-60412381D01*
X66870248Y-60460000D01*
X66917867Y-60507619D01*
X66965486Y-60602857D01*
X66965486Y-60745714D01*
X66917867Y-60840952D01*
X66870248Y-60888571D01*
X66775010Y-60936190D01*
X66394057Y-60936190D01*
X67917867Y-61412381D02*
X67346438Y-61412381D01*
X67632152Y-61412381D02*
X67632152Y-60412381D01*
X67536914Y-60555238D01*
X67441676Y-60650476D01*
X67346438Y-60698095D01*
X65714667Y-66711581D02*
X65714667Y-67425867D01*
X65667047Y-67568724D01*
X65571809Y-67663962D01*
X65428952Y-67711581D01*
X65333714Y-67711581D01*
X66190857Y-67711581D02*
X66190857Y-66711581D01*
X66571810Y-66711581D01*
X66667048Y-66759200D01*
X66714667Y-66806819D01*
X66762286Y-66902057D01*
X66762286Y-67044914D01*
X66714667Y-67140152D01*
X66667048Y-67187771D01*
X66571810Y-67235390D01*
X66190857Y-67235390D01*
X67143238Y-66806819D02*
X67190857Y-66759200D01*
X67286095Y-66711581D01*
X67524191Y-66711581D01*
X67619429Y-66759200D01*
X67667048Y-66806819D01*
X67714667Y-66902057D01*
X67714667Y-66997295D01*
X67667048Y-67140152D01*
X67095619Y-67711581D01*
X67714667Y-67711581D01*
X4348267Y-57770781D02*
X4348267Y-58485067D01*
X4300647Y-58627924D01*
X4205409Y-58723162D01*
X4062552Y-58770781D01*
X3967314Y-58770781D01*
X4824457Y-58770781D02*
X4824457Y-57770781D01*
X5205410Y-57770781D01*
X5300648Y-57818400D01*
X5348267Y-57866019D01*
X5395886Y-57961257D01*
X5395886Y-58104114D01*
X5348267Y-58199352D01*
X5300648Y-58246971D01*
X5205410Y-58294590D01*
X4824457Y-58294590D01*
X5729219Y-57770781D02*
X6348267Y-57770781D01*
X6014933Y-58151733D01*
X6157791Y-58151733D01*
X6253029Y-58199352D01*
X6300648Y-58246971D01*
X6348267Y-58342210D01*
X6348267Y-58580305D01*
X6300648Y-58675543D01*
X6253029Y-58723162D01*
X6157791Y-58770781D01*
X5872076Y-58770781D01*
X5776838Y-58723162D01*
X5729219Y-58675543D01*
X41438534Y-78379581D02*
X41105200Y-77903390D01*
X40867105Y-78379581D02*
X40867105Y-77379581D01*
X41248058Y-77379581D01*
X41343296Y-77427200D01*
X41390915Y-77474819D01*
X41438534Y-77570057D01*
X41438534Y-77712914D01*
X41390915Y-77808152D01*
X41343296Y-77855771D01*
X41248058Y-77903390D01*
X40867105Y-77903390D01*
X42009962Y-77808152D02*
X41914724Y-77760533D01*
X41867105Y-77712914D01*
X41819486Y-77617676D01*
X41819486Y-77570057D01*
X41867105Y-77474819D01*
X41914724Y-77427200D01*
X42009962Y-77379581D01*
X42200439Y-77379581D01*
X42295677Y-77427200D01*
X42343296Y-77474819D01*
X42390915Y-77570057D01*
X42390915Y-77617676D01*
X42343296Y-77712914D01*
X42295677Y-77760533D01*
X42200439Y-77808152D01*
X42009962Y-77808152D01*
X41914724Y-77855771D01*
X41867105Y-77903390D01*
X41819486Y-77998629D01*
X41819486Y-78189105D01*
X41867105Y-78284343D01*
X41914724Y-78331962D01*
X42009962Y-78379581D01*
X42200439Y-78379581D01*
X42295677Y-78331962D01*
X42343296Y-78284343D01*
X42390915Y-78189105D01*
X42390915Y-77998629D01*
X42343296Y-77903390D01*
X42295677Y-77855771D01*
X42200439Y-77808152D01*
X60604495Y-54113181D02*
X60604495Y-54922705D01*
X60652114Y-55017943D01*
X60699733Y-55065562D01*
X60794971Y-55113181D01*
X60985448Y-55113181D01*
X61080686Y-55065562D01*
X61128305Y-55017943D01*
X61175924Y-54922705D01*
X61175924Y-54113181D01*
X62175924Y-55113181D02*
X61604495Y-55113181D01*
X61890209Y-55113181D02*
X61890209Y-54113181D01*
X61794971Y-54256038D01*
X61699733Y-54351276D01*
X61604495Y-54398895D01*
X2235295Y-28306781D02*
X2235295Y-29116305D01*
X2282914Y-29211543D01*
X2330533Y-29259162D01*
X2425771Y-29306781D01*
X2616248Y-29306781D01*
X2711486Y-29259162D01*
X2759105Y-29211543D01*
X2806724Y-29116305D01*
X2806724Y-28306781D01*
X3235295Y-28402019D02*
X3282914Y-28354400D01*
X3378152Y-28306781D01*
X3616248Y-28306781D01*
X3711486Y-28354400D01*
X3759105Y-28402019D01*
X3806724Y-28497257D01*
X3806724Y-28592495D01*
X3759105Y-28735352D01*
X3187676Y-29306781D01*
X3806724Y-29306781D01*
X5497581Y-47955105D02*
X6307105Y-47955105D01*
X6402343Y-47907486D01*
X6449962Y-47859867D01*
X6497581Y-47764629D01*
X6497581Y-47574152D01*
X6449962Y-47478914D01*
X6402343Y-47431295D01*
X6307105Y-47383676D01*
X5497581Y-47383676D01*
X5497581Y-47002724D02*
X5497581Y-46383676D01*
X5878533Y-46717010D01*
X5878533Y-46574152D01*
X5926152Y-46478914D01*
X5973771Y-46431295D01*
X6069010Y-46383676D01*
X6307105Y-46383676D01*
X6402343Y-46431295D01*
X6449962Y-46478914D01*
X6497581Y-46574152D01*
X6497581Y-46859867D01*
X6449962Y-46955105D01*
X6402343Y-47002724D01*
X22669595Y-48354881D02*
X22669595Y-49164405D01*
X22717214Y-49259643D01*
X22764833Y-49307262D01*
X22860071Y-49354881D01*
X23050548Y-49354881D01*
X23145786Y-49307262D01*
X23193405Y-49259643D01*
X23241024Y-49164405D01*
X23241024Y-48354881D01*
X24145786Y-48688214D02*
X24145786Y-49354881D01*
X23907690Y-48307262D02*
X23669595Y-49021548D01*
X24288643Y-49021548D01*
X17780095Y-25264381D02*
X17780095Y-26073905D01*
X17827714Y-26169143D01*
X17875333Y-26216762D01*
X17970571Y-26264381D01*
X18161048Y-26264381D01*
X18256286Y-26216762D01*
X18303905Y-26169143D01*
X18351524Y-26073905D01*
X18351524Y-25264381D01*
X19303905Y-25264381D02*
X18827714Y-25264381D01*
X18780095Y-25740571D01*
X18827714Y-25692952D01*
X18922952Y-25645333D01*
X19161048Y-25645333D01*
X19256286Y-25692952D01*
X19303905Y-25740571D01*
X19351524Y-25835810D01*
X19351524Y-26073905D01*
X19303905Y-26169143D01*
X19256286Y-26216762D01*
X19161048Y-26264381D01*
X18922952Y-26264381D01*
X18827714Y-26216762D01*
X18780095Y-26169143D01*
X8128095Y-25264381D02*
X8128095Y-26073905D01*
X8175714Y-26169143D01*
X8223333Y-26216762D01*
X8318571Y-26264381D01*
X8509048Y-26264381D01*
X8604286Y-26216762D01*
X8651905Y-26169143D01*
X8699524Y-26073905D01*
X8699524Y-25264381D01*
X9604286Y-25264381D02*
X9413809Y-25264381D01*
X9318571Y-25312000D01*
X9270952Y-25359619D01*
X9175714Y-25502476D01*
X9128095Y-25692952D01*
X9128095Y-26073905D01*
X9175714Y-26169143D01*
X9223333Y-26216762D01*
X9318571Y-26264381D01*
X9509048Y-26264381D01*
X9604286Y-26216762D01*
X9651905Y-26169143D01*
X9699524Y-26073905D01*
X9699524Y-25835810D01*
X9651905Y-25740571D01*
X9604286Y-25692952D01*
X9509048Y-25645333D01*
X9318571Y-25645333D01*
X9223333Y-25692952D01*
X9175714Y-25740571D01*
X9128095Y-25835810D01*
X43942095Y-95294381D02*
X43942095Y-96103905D01*
X43989714Y-96199143D01*
X44037333Y-96246762D01*
X44132571Y-96294381D01*
X44323048Y-96294381D01*
X44418286Y-96246762D01*
X44465905Y-96199143D01*
X44513524Y-96103905D01*
X44513524Y-95294381D01*
X44894476Y-95294381D02*
X45561143Y-95294381D01*
X45132571Y-96294381D01*
X20839181Y-89099924D02*
X21839181Y-88433257D01*
X20839181Y-88433257D02*
X21839181Y-89099924D01*
X21839181Y-87528495D02*
X21839181Y-88099924D01*
X21839181Y-87814210D02*
X20839181Y-87814210D01*
X20982038Y-87909448D01*
X21077276Y-88004686D01*
X21124895Y-88099924D01*
X34152686Y-32261085D02*
X34866971Y-32261085D01*
X33366971Y-32761085D02*
X34152686Y-32261085D01*
X33366971Y-31761085D01*
X34866971Y-30475371D02*
X34866971Y-31332514D01*
X34866971Y-30903942D02*
X33366971Y-30903942D01*
X33581257Y-31046799D01*
X33724114Y-31189657D01*
X33795543Y-31332514D01*
X5143524Y-40193981D02*
X4667333Y-40193981D01*
X4619714Y-40670171D01*
X4667333Y-40622552D01*
X4762571Y-40574933D01*
X5000667Y-40574933D01*
X5095905Y-40622552D01*
X5143524Y-40670171D01*
X5191143Y-40765410D01*
X5191143Y-41003505D01*
X5143524Y-41098743D01*
X5095905Y-41146362D01*
X5000667Y-41193981D01*
X4762571Y-41193981D01*
X4667333Y-41146362D01*
X4619714Y-41098743D01*
X5476857Y-40193981D02*
X5810190Y-41193981D01*
X6143524Y-40193981D01*
X18742210Y-30694381D02*
X19361258Y-30694381D01*
X19027924Y-31075333D01*
X19170782Y-31075333D01*
X19266020Y-31122952D01*
X19313639Y-31170571D01*
X19361258Y-31265810D01*
X19361258Y-31503905D01*
X19313639Y-31599143D01*
X19266020Y-31646762D01*
X19170782Y-31694381D01*
X18885067Y-31694381D01*
X18789829Y-31646762D01*
X18742210Y-31599143D01*
X19789829Y-31599143D02*
X19837448Y-31646762D01*
X19789829Y-31694381D01*
X19742210Y-31646762D01*
X19789829Y-31599143D01*
X19789829Y-31694381D01*
X20170781Y-30694381D02*
X20789829Y-30694381D01*
X20456495Y-31075333D01*
X20599353Y-31075333D01*
X20694591Y-31122952D01*
X20742210Y-31170571D01*
X20789829Y-31265810D01*
X20789829Y-31503905D01*
X20742210Y-31599143D01*
X20694591Y-31646762D01*
X20599353Y-31694381D01*
X20313638Y-31694381D01*
X20218400Y-31646762D01*
X20170781Y-31599143D01*
X21075543Y-30694381D02*
X21408876Y-31694381D01*
X21742210Y-30694381D01*
X17532458Y-51963581D02*
X16961029Y-51963581D01*
X17246743Y-51963581D02*
X17246743Y-50963581D01*
X17151505Y-51106438D01*
X17056267Y-51201676D01*
X16961029Y-51249295D01*
X17961029Y-51868343D02*
X18008648Y-51915962D01*
X17961029Y-51963581D01*
X17913410Y-51915962D01*
X17961029Y-51868343D01*
X17961029Y-51963581D01*
X18389600Y-51058819D02*
X18437219Y-51011200D01*
X18532457Y-50963581D01*
X18770553Y-50963581D01*
X18865791Y-51011200D01*
X18913410Y-51058819D01*
X18961029Y-51154057D01*
X18961029Y-51249295D01*
X18913410Y-51392152D01*
X18341981Y-51963581D01*
X18961029Y-51963581D01*
X19246743Y-50963581D02*
X19580076Y-51963581D01*
X19913410Y-50963581D01*
D13*
X37394477Y-63537595D02*
X37394477Y-62237595D01*
X37704001Y-62237595D01*
X37889715Y-62299500D01*
X38013524Y-62423310D01*
X38075429Y-62547119D01*
X38137334Y-62794738D01*
X38137334Y-62980452D01*
X38075429Y-63228071D01*
X38013524Y-63351881D01*
X37889715Y-63475690D01*
X37704001Y-63537595D01*
X37394477Y-63537595D01*
X39375429Y-63537595D02*
X38632572Y-63537595D01*
X39004001Y-63537595D02*
X39004001Y-62237595D01*
X38880191Y-62423310D01*
X38756382Y-62547119D01*
X38632572Y-62609024D01*
X57632095Y-28391523D02*
X56332095Y-28391523D01*
X56332095Y-28081999D01*
X56394000Y-27896285D01*
X56517810Y-27772476D01*
X56641619Y-27710571D01*
X56889238Y-27648666D01*
X57074952Y-27648666D01*
X57322571Y-27710571D01*
X57446381Y-27772476D01*
X57570190Y-27896285D01*
X57632095Y-28081999D01*
X57632095Y-28391523D01*
X56455905Y-27153428D02*
X56394000Y-27091523D01*
X56332095Y-26967714D01*
X56332095Y-26658190D01*
X56394000Y-26534380D01*
X56455905Y-26472476D01*
X56579714Y-26410571D01*
X56703524Y-26410571D01*
X56889238Y-26472476D01*
X57632095Y-27215333D01*
X57632095Y-26410571D01*
X53272095Y-28391523D02*
X51972095Y-28391523D01*
X51972095Y-28081999D01*
X52034000Y-27896285D01*
X52157810Y-27772476D01*
X52281619Y-27710571D01*
X52529238Y-27648666D01*
X52714952Y-27648666D01*
X52962571Y-27710571D01*
X53086381Y-27772476D01*
X53210190Y-27896285D01*
X53272095Y-28081999D01*
X53272095Y-28391523D01*
X51972095Y-27215333D02*
X51972095Y-26410571D01*
X52467333Y-26843904D01*
X52467333Y-26658190D01*
X52529238Y-26534380D01*
X52591143Y-26472476D01*
X52714952Y-26410571D01*
X53024476Y-26410571D01*
X53148286Y-26472476D01*
X53210190Y-26534380D01*
X53272095Y-26658190D01*
X53272095Y-27029618D01*
X53210190Y-27153428D01*
X53148286Y-27215333D01*
M02*
