G04 #@! TF.FileFunction,Soldermask,Top*
%FSLAX46Y46*%
G04 Gerber Fmt 4.6, Leading zero omitted, Abs format (unit mm)*
G04 Created by KiCad (PCBNEW (2015-03-27 BZR 5543)-product) date Tue 31 Mar 2015 12:00:07 AM EDT*
%MOMM*%
G01*
G04 APERTURE LIST*
%ADD10C,0.100000*%
%ADD11R,1.250000X1.000000*%
%ADD12R,0.400000X1.750000*%
%ADD13R,2.000000X1.460000*%
%ADD14R,1.778000X3.000000*%
%ADD15R,1.425000X2.000000*%
%ADD16R,1.060000X0.650000*%
%ADD17R,2.032000X2.032000*%
%ADD18O,2.032000X2.032000*%
%ADD19R,2.032000X1.727200*%
%ADD20O,2.032000X1.727200*%
%ADD21R,1.727200X1.727200*%
%ADD22O,1.727200X1.727200*%
%ADD23R,1.300000X0.700000*%
%ADD24R,0.700000X1.300000*%
%ADD25R,1.500000X0.300000*%
%ADD26R,0.300000X1.500000*%
%ADD27R,2.032000X3.657600*%
%ADD28R,2.032000X1.016000*%
%ADD29R,1.500000X0.600000*%
%ADD30R,1.550000X0.600000*%
%ADD31R,2.500000X2.000000*%
%ADD32R,1.800000X2.000000*%
G04 APERTURE END LIST*
D10*
D11*
X34290000Y-63230000D03*
X34290000Y-61230000D03*
X25400000Y-61325000D03*
X25400000Y-59325000D03*
X25400000Y-70755000D03*
X25400000Y-72755000D03*
D12*
X26868600Y-82062000D03*
X27518600Y-82062000D03*
X28168600Y-82062000D03*
X28818600Y-82062000D03*
X29468600Y-82062000D03*
D13*
X25464200Y-81857000D03*
X30873000Y-81857000D03*
D14*
X25443600Y-84387000D03*
X30893600Y-84387000D03*
D15*
X27206100Y-84887000D03*
X29131100Y-84887000D03*
D16*
X54780000Y-16830000D03*
X54780000Y-17780000D03*
X54780000Y-18730000D03*
X56980000Y-18730000D03*
X56980000Y-16830000D03*
X56980000Y-17780000D03*
X50630000Y-18730000D03*
X50630000Y-17780000D03*
X50630000Y-16830000D03*
X48430000Y-16830000D03*
X48430000Y-18730000D03*
X48430000Y-17780000D03*
X44280000Y-18730000D03*
X44280000Y-17780000D03*
X44280000Y-16830000D03*
X42080000Y-16830000D03*
X42080000Y-18730000D03*
X42080000Y-17780000D03*
D17*
X16510000Y-65405000D03*
D18*
X16510000Y-62865000D03*
X11430000Y-57150000D03*
X15240000Y-48260000D03*
X3810000Y-57150000D03*
X58420000Y-43180000D03*
X58420000Y-45720000D03*
X58420000Y-38100000D03*
X58420000Y-40640000D03*
X58420000Y-33020000D03*
X58420000Y-35560000D03*
X15240000Y-38100000D03*
X54610000Y-53340000D03*
D19*
X21590000Y-42545000D03*
D20*
X21590000Y-45085000D03*
X21590000Y-47625000D03*
X21590000Y-50165000D03*
X21590000Y-52705000D03*
X21590000Y-55245000D03*
D21*
X54610000Y-3175000D03*
D22*
X54610000Y-5715000D03*
X52070000Y-3175000D03*
X52070000Y-5715000D03*
X49530000Y-3175000D03*
X49530000Y-5715000D03*
X46990000Y-3175000D03*
X46990000Y-5715000D03*
X44450000Y-3175000D03*
X44450000Y-5715000D03*
X41910000Y-3175000D03*
X41910000Y-5715000D03*
X39370000Y-3175000D03*
X39370000Y-5715000D03*
X36830000Y-3175000D03*
X36830000Y-5715000D03*
X34290000Y-3175000D03*
X34290000Y-5715000D03*
X31750000Y-3175000D03*
X31750000Y-5715000D03*
X29210000Y-3175000D03*
X29210000Y-5715000D03*
X26670000Y-3175000D03*
X26670000Y-5715000D03*
X24130000Y-3175000D03*
X24130000Y-5715000D03*
X21590000Y-3175000D03*
X21590000Y-5715000D03*
X19050000Y-3175000D03*
X19050000Y-5715000D03*
X16510000Y-3175000D03*
X16510000Y-5715000D03*
X13970000Y-3175000D03*
X13970000Y-5715000D03*
X11430000Y-3175000D03*
X11430000Y-5715000D03*
X8890000Y-3175000D03*
X8890000Y-5715000D03*
X6350000Y-3175000D03*
X6350000Y-5715000D03*
D18*
X53340000Y-73660000D03*
D21*
X36195000Y-83185000D03*
D22*
X36195000Y-80645000D03*
X38735000Y-83185000D03*
X38735000Y-80645000D03*
X41275000Y-83185000D03*
X41275000Y-80645000D03*
X43815000Y-83185000D03*
X43815000Y-80645000D03*
X46355000Y-83185000D03*
X46355000Y-80645000D03*
X48895000Y-83185000D03*
X48895000Y-80645000D03*
X51435000Y-83185000D03*
X51435000Y-80645000D03*
X53975000Y-83185000D03*
X53975000Y-80645000D03*
X56515000Y-83185000D03*
X56515000Y-80645000D03*
X59055000Y-83185000D03*
X59055000Y-80645000D03*
D18*
X58420000Y-69850000D03*
X58420000Y-67310000D03*
X58420000Y-64770000D03*
X58420000Y-62230000D03*
D17*
X45720000Y-53340000D03*
D18*
X48260000Y-53340000D03*
D23*
X50800000Y-12385000D03*
X50800000Y-14285000D03*
X48260000Y-12385000D03*
X48260000Y-14285000D03*
X57150000Y-12385000D03*
X57150000Y-14285000D03*
X44450000Y-12385000D03*
X44450000Y-14285000D03*
X54610000Y-12385000D03*
X54610000Y-14285000D03*
X41910000Y-12385000D03*
X41910000Y-14285000D03*
X15240000Y-21910000D03*
X15240000Y-23810000D03*
X3175000Y-30160000D03*
X3175000Y-28260000D03*
X3175000Y-24445000D03*
X3175000Y-22545000D03*
D24*
X28890000Y-28575000D03*
X26990000Y-28575000D03*
D23*
X15240000Y-28260000D03*
X15240000Y-30160000D03*
D24*
X18730000Y-18415000D03*
X16830000Y-18415000D03*
X39055000Y-53340000D03*
X40955000Y-53340000D03*
D25*
X52150000Y-42830000D03*
X52150000Y-42330000D03*
X52150000Y-41830000D03*
X52150000Y-41330000D03*
X52150000Y-40830000D03*
X52150000Y-40330000D03*
X52150000Y-39830000D03*
X52150000Y-39330000D03*
X52150000Y-38830000D03*
X52150000Y-38330000D03*
X52150000Y-37830000D03*
X52150000Y-37330000D03*
X52150000Y-36830000D03*
X52150000Y-36330000D03*
X52150000Y-35830000D03*
X52150000Y-35330000D03*
X52150000Y-34830000D03*
X52150000Y-34330000D03*
X52150000Y-33830000D03*
X52150000Y-33330000D03*
X52150000Y-32830000D03*
X52150000Y-32330000D03*
X52150000Y-31830000D03*
X52150000Y-31330000D03*
X52150000Y-30830000D03*
D26*
X50450000Y-29130000D03*
X49950000Y-29130000D03*
X49450000Y-29130000D03*
X48950000Y-29130000D03*
X48450000Y-29130000D03*
X47950000Y-29130000D03*
X47450000Y-29130000D03*
X46950000Y-29130000D03*
X46450000Y-29130000D03*
X45950000Y-29130000D03*
X45450000Y-29130000D03*
X44950000Y-29130000D03*
X44450000Y-29130000D03*
X43950000Y-29130000D03*
X43450000Y-29130000D03*
X42950000Y-29130000D03*
X42450000Y-29130000D03*
X41950000Y-29130000D03*
X41450000Y-29130000D03*
X40950000Y-29130000D03*
X40450000Y-29130000D03*
X39950000Y-29130000D03*
X39450000Y-29130000D03*
X38950000Y-29130000D03*
X38450000Y-29130000D03*
D25*
X36750000Y-30830000D03*
X36750000Y-31330000D03*
X36750000Y-31830000D03*
X36750000Y-32330000D03*
X36750000Y-32830000D03*
X36750000Y-33330000D03*
X36750000Y-33830000D03*
X36750000Y-34330000D03*
X36750000Y-34830000D03*
X36750000Y-35330000D03*
X36750000Y-35830000D03*
X36750000Y-36330000D03*
X36750000Y-36830000D03*
X36750000Y-37330000D03*
X36750000Y-37830000D03*
X36750000Y-38330000D03*
X36750000Y-38830000D03*
X36750000Y-39330000D03*
X36750000Y-39830000D03*
X36750000Y-40330000D03*
X36750000Y-40830000D03*
X36750000Y-41330000D03*
X36750000Y-41830000D03*
X36750000Y-42330000D03*
X36750000Y-42830000D03*
D26*
X38450000Y-44530000D03*
X38950000Y-44530000D03*
X39450000Y-44530000D03*
X39950000Y-44530000D03*
X40450000Y-44530000D03*
X40950000Y-44530000D03*
X41450000Y-44530000D03*
X41950000Y-44530000D03*
X42450000Y-44530000D03*
X42950000Y-44530000D03*
X43450000Y-44530000D03*
X43950000Y-44530000D03*
X44450000Y-44530000D03*
X44950000Y-44530000D03*
X45450000Y-44530000D03*
X45950000Y-44530000D03*
X46450000Y-44530000D03*
X46950000Y-44530000D03*
X47450000Y-44530000D03*
X47950000Y-44530000D03*
X48450000Y-44530000D03*
X48950000Y-44530000D03*
X49450000Y-44530000D03*
X49950000Y-44530000D03*
X50450000Y-44530000D03*
D27*
X4318000Y-50800000D03*
D28*
X10922000Y-50800000D03*
X10922000Y-48514000D03*
X10922000Y-53086000D03*
D29*
X18255000Y-20955000D03*
X18255000Y-22225000D03*
X18255000Y-23495000D03*
X18255000Y-24765000D03*
X18255000Y-26035000D03*
X18255000Y-27305000D03*
X18255000Y-28575000D03*
X18255000Y-29845000D03*
X23655000Y-29845000D03*
X23655000Y-28575000D03*
X23655000Y-27305000D03*
X23655000Y-26035000D03*
X23655000Y-24765000D03*
X23655000Y-23495000D03*
X23655000Y-22225000D03*
X23655000Y-20955000D03*
D27*
X4318000Y-40640000D03*
D28*
X10922000Y-40640000D03*
X10922000Y-38354000D03*
X10922000Y-42926000D03*
D29*
X6190000Y-20955000D03*
X6190000Y-22225000D03*
X6190000Y-23495000D03*
X6190000Y-24765000D03*
X6190000Y-26035000D03*
X6190000Y-27305000D03*
X6190000Y-28575000D03*
X6190000Y-29845000D03*
X11590000Y-29845000D03*
X11590000Y-28575000D03*
X11590000Y-27305000D03*
X11590000Y-26035000D03*
X11590000Y-24765000D03*
X11590000Y-23495000D03*
X11590000Y-22225000D03*
X11590000Y-20955000D03*
D30*
X23970000Y-33655000D03*
X23970000Y-34925000D03*
X23970000Y-36195000D03*
X23970000Y-37465000D03*
X29370000Y-37465000D03*
X29370000Y-36195000D03*
X29370000Y-34925000D03*
X29370000Y-33655000D03*
D25*
X48880000Y-69790000D03*
X48880000Y-69290000D03*
X48880000Y-68790000D03*
X48880000Y-68290000D03*
X48880000Y-67790000D03*
X48880000Y-67290000D03*
X48880000Y-66790000D03*
X48880000Y-66290000D03*
X48880000Y-65790000D03*
X48880000Y-65290000D03*
X48880000Y-64790000D03*
X48880000Y-64290000D03*
X48880000Y-63790000D03*
X48880000Y-63290000D03*
X48880000Y-62790000D03*
X48880000Y-62290000D03*
D26*
X46930000Y-60340000D03*
X46430000Y-60340000D03*
X45930000Y-60340000D03*
X45430000Y-60340000D03*
X44930000Y-60340000D03*
X44430000Y-60340000D03*
X43930000Y-60340000D03*
X43430000Y-60340000D03*
X42930000Y-60340000D03*
X42430000Y-60340000D03*
X41930000Y-60340000D03*
X41430000Y-60340000D03*
X40930000Y-60340000D03*
X40430000Y-60340000D03*
X39930000Y-60340000D03*
X39430000Y-60340000D03*
D25*
X37480000Y-62290000D03*
X37480000Y-62790000D03*
X37480000Y-63290000D03*
X37480000Y-63790000D03*
X37480000Y-64290000D03*
X37480000Y-64790000D03*
X37480000Y-65290000D03*
X37480000Y-65790000D03*
X37480000Y-66290000D03*
X37480000Y-66790000D03*
X37480000Y-67290000D03*
X37480000Y-67790000D03*
X37480000Y-68290000D03*
X37480000Y-68790000D03*
X37480000Y-69290000D03*
X37480000Y-69790000D03*
D26*
X39430000Y-71740000D03*
X39930000Y-71740000D03*
X40430000Y-71740000D03*
X40930000Y-71740000D03*
X41430000Y-71740000D03*
X41930000Y-71740000D03*
X42430000Y-71740000D03*
X42930000Y-71740000D03*
X43430000Y-71740000D03*
X43930000Y-71740000D03*
X44430000Y-71740000D03*
X44930000Y-71740000D03*
X45430000Y-71740000D03*
X45930000Y-71740000D03*
X46430000Y-71740000D03*
X46930000Y-71740000D03*
D31*
X25400000Y-64040000D03*
X25400000Y-68040000D03*
D32*
X29210000Y-22420000D03*
X34290000Y-22420000D03*
X34290000Y-18220000D03*
X29210000Y-18220000D03*
M02*
