M48
;DRILL file {kicad (2015-03-27 BZR 5543)-product} date Tue 31 Mar 2015 12:00:08 AM EDT
;FORMAT={-:-/ absolute / inch / decimal}
FMAT,2
INCH,TZ
T1C0.013
T2C0.040
T3C0.041
T4C0.047
%
G90
G05
M72
T1
X0.1939Y-1.1206
X0.1941Y-0.8334
X0.25Y-0.59
X0.3Y-0.71
X0.375Y-0.645
X0.4055Y-0.9252
X0.46Y-0.575
X0.54Y-0.68
X0.5576Y-1.0509
X0.6682Y-1.0053
X0.6693Y-1.1189
X0.6858Y-1.225
X0.7572Y-0.7799
X0.7578Y-1.5463
X0.8753Y-1.0659
X0.9807Y-1.167
X0.9998Y-1.4576
X1.0175Y-3.0762
X1.0906Y-1.9063
X1.1Y-1.1102
X1.1002Y-1.3782
X1.145Y-2.48
X1.15Y-2.695
X1.17Y-0.45
X1.28Y-2.96
X1.3361Y-2.6366
X1.3459Y-1.8961
X1.3688Y-1.3333
X1.3936Y-1.4267
X1.3952Y-2.4739
X1.4Y-0.445
X1.4431Y-1.7444
X1.4737Y-1.1606
X1.485Y-0.975
X1.49Y-0.345
X1.4951Y-1.7994
X1.4963Y-1.2119
X1.5024Y-1.8688
X1.504Y-1.9218
X1.51Y-0.605
X1.53Y-0.89
X1.535Y-0.71
X1.5788Y-2.0777
X1.58Y-1.325
X1.585Y-0.82
X1.585Y-0.955
X1.5894Y-2.1755
X1.596Y-0.3188
X1.6213Y-1.8644
X1.6319Y-1.7011
X1.638Y-0.6302
X1.6485Y-1.9112
X1.6692Y-0.3554
X1.6902Y-2.4419
X1.7027Y-0.7235
X1.7098Y-2.223
X1.725Y-1.33
X1.7286Y-1.9127
X1.7466Y-0.9928
X1.75Y-1.545
X1.7906Y-2.0073
X1.7948Y-1.9731
X1.7983Y-0.3404
X1.8124Y-0.7102
X1.8322Y-0.7769
X1.8726Y-0.6116
X1.9236Y-1.8248
X1.925Y-1.54
X1.9544Y-1.6481
X1.956Y-1.1959
X1.96Y-1.355
X1.9621Y-1.7002
X1.9773Y-2.7393
X1.9961Y-1.6392
X2.0158Y-1.8333
X2.0229Y-1.1053
X2.0321Y-2.5492
X2.0342Y-0.7418
X2.051Y-0.4618
X2.075Y-0.645
X2.1195Y-1.4963
X2.1275Y-1.2099
X2.1602Y-1.3977
X2.182Y-0.6303
X2.2181Y-1.3758
X2.2433Y-0.77
T2
X0.15Y-2.25
X0.25Y-0.125
X0.25Y-0.225
X0.35Y-0.125
X0.35Y-0.225
X0.45Y-0.125
X0.45Y-0.225
X0.45Y-2.25
X0.55Y-0.125
X0.55Y-0.225
X0.6Y-1.5
X0.6Y-1.9
X0.65Y-0.125
X0.65Y-0.225
X0.65Y-2.475
X0.65Y-2.575
X0.75Y-0.125
X0.75Y-0.225
X0.85Y-0.125
X0.85Y-0.225
X0.85Y-1.675
X0.85Y-1.775
X0.85Y-1.875
X0.85Y-1.975
X0.85Y-2.075
X0.85Y-2.175
X0.95Y-0.125
X0.95Y-0.225
X1.05Y-0.125
X1.05Y-0.225
X1.15Y-0.125
X1.15Y-0.225
X1.25Y-0.125
X1.25Y-0.225
X1.35Y-0.125
X1.35Y-0.225
X1.425Y-3.175
X1.425Y-3.275
X1.45Y-0.125
X1.45Y-0.225
X1.525Y-3.175
X1.525Y-3.275
X1.55Y-0.125
X1.55Y-0.225
X1.625Y-3.175
X1.625Y-3.275
X1.65Y-0.125
X1.65Y-0.225
X1.725Y-3.175
X1.725Y-3.275
X1.75Y-0.125
X1.75Y-0.225
X1.8Y-2.1
X1.825Y-3.175
X1.825Y-3.275
X1.85Y-0.125
X1.85Y-0.225
X1.9Y-2.1
X1.925Y-3.175
X1.925Y-3.275
X1.95Y-0.125
X1.95Y-0.225
X2.025Y-3.175
X2.025Y-3.275
X2.05Y-0.125
X2.05Y-0.225
X2.1Y-2.9
X2.125Y-3.175
X2.125Y-3.275
X2.15Y-0.125
X2.15Y-0.225
X2.15Y-2.1
X2.225Y-3.175
X2.225Y-3.275
X2.3Y-1.3
X2.3Y-1.4
X2.3Y-1.5
X2.3Y-1.6
X2.3Y-1.7
X2.3Y-1.8
X2.3Y-2.45
X2.3Y-2.55
X2.3Y-2.65
X2.3Y-2.75
X2.325Y-3.175
X2.325Y-3.275
T3
X1.0135Y-3.2227
X1.2045Y-3.2227
T4
X1.0017Y-3.342
X1.2163Y-3.342
T0
M30
