G04 #@! TF.FileFunction,Legend,Bot*
%FSLAX46Y46*%
G04 Gerber Fmt 4.6, Leading zero omitted, Abs format (unit mm)*
G04 Created by KiCad (PCBNEW (2015-03-27 BZR 5543)-product) date Tue 31 Mar 2015 12:00:07 AM EDT*
%MOMM*%
G01*
G04 APERTURE LIST*
%ADD10C,0.100000*%
%ADD11C,0.150000*%
G04 APERTURE END LIST*
D10*
D11*
X53475000Y-38520000D02*
X54475000Y-38520000D01*
X54475000Y-40220000D02*
X53475000Y-40220000D01*
X7120000Y-52490000D02*
X8120000Y-52490000D01*
X8120000Y-54190000D02*
X7120000Y-54190000D01*
X42330000Y-60190000D02*
X42330000Y-59190000D01*
X44030000Y-59190000D02*
X44030000Y-60190000D01*
X35425000Y-40855000D02*
X34425000Y-40855000D01*
X34425000Y-39155000D02*
X35425000Y-39155000D01*
X37330000Y-66890000D02*
X36330000Y-66890000D01*
X36330000Y-65190000D02*
X37330000Y-65190000D01*
X48475000Y-45855000D02*
X48475000Y-46855000D01*
X46775000Y-46855000D02*
X46775000Y-45855000D01*
X41490000Y-71890000D02*
X41490000Y-72890000D01*
X39790000Y-72890000D02*
X39790000Y-71890000D01*
X49030000Y-65190000D02*
X50030000Y-65190000D01*
X50030000Y-66890000D02*
X49030000Y-66890000D01*
X35425000Y-33235000D02*
X34425000Y-33235000D01*
X34425000Y-31535000D02*
X35425000Y-31535000D01*
X53475000Y-30900000D02*
X54475000Y-30900000D01*
X54475000Y-32600000D02*
X53475000Y-32600000D01*
X10580000Y-50030000D02*
X10580000Y-49030000D01*
X12280000Y-49030000D02*
X12280000Y-50030000D01*
X31996000Y-21170000D02*
X30996000Y-21170000D01*
X30996000Y-19470000D02*
X31996000Y-19470000D01*
X25820000Y-36060000D02*
X25820000Y-35060000D01*
X27520000Y-35060000D02*
X27520000Y-36060000D01*
X20105000Y-27805000D02*
X20105000Y-26805000D01*
X21805000Y-26805000D02*
X21805000Y-27805000D01*
X35425000Y-35775000D02*
X34425000Y-35775000D01*
X34425000Y-34075000D02*
X35425000Y-34075000D01*
X53475000Y-33440000D02*
X54475000Y-33440000D01*
X54475000Y-35140000D02*
X53475000Y-35140000D01*
X10580000Y-39870000D02*
X10580000Y-38870000D01*
X12280000Y-38870000D02*
X12280000Y-39870000D01*
X43600000Y-27805000D02*
X43600000Y-26805000D01*
X45300000Y-26805000D02*
X45300000Y-27805000D01*
X45935000Y-45855000D02*
X45935000Y-46855000D01*
X44235000Y-46855000D02*
X44235000Y-45855000D01*
X43395000Y-45855000D02*
X43395000Y-46855000D01*
X41695000Y-46855000D02*
X41695000Y-45855000D01*
X35425000Y-38315000D02*
X34425000Y-38315000D01*
X34425000Y-36615000D02*
X35425000Y-36615000D01*
X45505000Y-27805000D02*
X45505000Y-26805000D01*
X47205000Y-26805000D02*
X47205000Y-27805000D01*
X53475000Y-35980000D02*
X54475000Y-35980000D01*
X54475000Y-37680000D02*
X53475000Y-37680000D01*
X41060000Y-27805000D02*
X41060000Y-26805000D01*
X42760000Y-26805000D02*
X42760000Y-27805000D01*
X40220000Y-45855000D02*
X40220000Y-46855000D01*
X38520000Y-46855000D02*
X38520000Y-45855000D01*
X8040000Y-27805000D02*
X8040000Y-26805000D01*
X9740000Y-26805000D02*
X9740000Y-27805000D01*
X44950000Y-67652000D02*
X43950000Y-67652000D01*
X43950000Y-65952000D02*
X44950000Y-65952000D01*
X49315000Y-27805000D02*
X49315000Y-26805000D01*
X51015000Y-26805000D02*
X51015000Y-27805000D01*
X44950000Y-65874000D02*
X43950000Y-65874000D01*
X43950000Y-64174000D02*
X44950000Y-64174000D01*
X49030000Y-63285000D02*
X50030000Y-63285000D01*
X50030000Y-64985000D02*
X49030000Y-64985000D01*
X44950000Y-64096000D02*
X43950000Y-64096000D01*
X43950000Y-62396000D02*
X44950000Y-62396000D01*
X44030000Y-71890000D02*
X44030000Y-72890000D01*
X42330000Y-72890000D02*
X42330000Y-71890000D01*
X44950000Y-69684000D02*
X43950000Y-69684000D01*
X43950000Y-67984000D02*
X44950000Y-67984000D01*
X40425000Y-60190000D02*
X40425000Y-59190000D01*
X42125000Y-59190000D02*
X42125000Y-60190000D01*
X37330000Y-64985000D02*
X36330000Y-64985000D01*
X36330000Y-63285000D02*
X37330000Y-63285000D01*
X18380000Y-17540000D02*
X17180000Y-17540000D01*
X17180000Y-19290000D02*
X18380000Y-19290000D01*
X49925000Y-12735000D02*
X49925000Y-13935000D01*
X51675000Y-13935000D02*
X51675000Y-12735000D01*
X47385000Y-12735000D02*
X47385000Y-13935000D01*
X49135000Y-13935000D02*
X49135000Y-12735000D01*
X56275000Y-12735000D02*
X56275000Y-13935000D01*
X58025000Y-13935000D02*
X58025000Y-12735000D01*
X43575000Y-12735000D02*
X43575000Y-13935000D01*
X45325000Y-13935000D02*
X45325000Y-12735000D01*
X53735000Y-12735000D02*
X53735000Y-13935000D01*
X55485000Y-13935000D02*
X55485000Y-12735000D01*
X41035000Y-12735000D02*
X41035000Y-13935000D01*
X42785000Y-13935000D02*
X42785000Y-12735000D01*
X14365000Y-22260000D02*
X14365000Y-23460000D01*
X16115000Y-23460000D02*
X16115000Y-22260000D01*
X2300000Y-28610000D02*
X2300000Y-29810000D01*
X4050000Y-29810000D02*
X4050000Y-28610000D01*
X4050000Y-24095000D02*
X4050000Y-22895000D01*
X2300000Y-22895000D02*
X2300000Y-24095000D01*
X28540000Y-27700000D02*
X27340000Y-27700000D01*
X27340000Y-29450000D02*
X28540000Y-29450000D01*
X14365000Y-28610000D02*
X14365000Y-29810000D01*
X16115000Y-29810000D02*
X16115000Y-28610000D01*
X32145000Y-62900000D02*
X32145000Y-64100000D01*
X33895000Y-64100000D02*
X33895000Y-62900000D01*
X51347666Y-39854143D02*
X51395285Y-39901762D01*
X51538142Y-39949381D01*
X51633380Y-39949381D01*
X51776238Y-39901762D01*
X51871476Y-39806524D01*
X51919095Y-39711286D01*
X51966714Y-39520810D01*
X51966714Y-39377952D01*
X51919095Y-39187476D01*
X51871476Y-39092238D01*
X51776238Y-38997000D01*
X51633380Y-38949381D01*
X51538142Y-38949381D01*
X51395285Y-38997000D01*
X51347666Y-39044619D01*
X50395285Y-39949381D02*
X50966714Y-39949381D01*
X50681000Y-39949381D02*
X50681000Y-38949381D01*
X50776238Y-39092238D01*
X50871476Y-39187476D01*
X50966714Y-39235095D01*
X7786666Y-51597143D02*
X7834285Y-51644762D01*
X7977142Y-51692381D01*
X8072380Y-51692381D01*
X8215238Y-51644762D01*
X8310476Y-51549524D01*
X8358095Y-51454286D01*
X8405714Y-51263810D01*
X8405714Y-51120952D01*
X8358095Y-50930476D01*
X8310476Y-50835238D01*
X8215238Y-50740000D01*
X8072380Y-50692381D01*
X7977142Y-50692381D01*
X7834285Y-50740000D01*
X7786666Y-50787619D01*
X7405714Y-50787619D02*
X7358095Y-50740000D01*
X7262857Y-50692381D01*
X7024761Y-50692381D01*
X6929523Y-50740000D01*
X6881904Y-50787619D01*
X6834285Y-50882857D01*
X6834285Y-50978095D01*
X6881904Y-51120952D01*
X7453333Y-51692381D01*
X6834285Y-51692381D01*
X44807143Y-56983334D02*
X44854762Y-56935715D01*
X44902381Y-56792858D01*
X44902381Y-56697620D01*
X44854762Y-56554762D01*
X44759524Y-56459524D01*
X44664286Y-56411905D01*
X44473810Y-56364286D01*
X44330952Y-56364286D01*
X44140476Y-56411905D01*
X44045238Y-56459524D01*
X43950000Y-56554762D01*
X43902381Y-56697620D01*
X43902381Y-56792858D01*
X43950000Y-56935715D01*
X43997619Y-56983334D01*
X43902381Y-57316667D02*
X43902381Y-57935715D01*
X44283333Y-57602381D01*
X44283333Y-57745239D01*
X44330952Y-57840477D01*
X44378571Y-57888096D01*
X44473810Y-57935715D01*
X44711905Y-57935715D01*
X44807143Y-57888096D01*
X44854762Y-57840477D01*
X44902381Y-57745239D01*
X44902381Y-57459524D01*
X44854762Y-57364286D01*
X44807143Y-57316667D01*
X38012666Y-40362143D02*
X38060285Y-40409762D01*
X38203142Y-40457381D01*
X38298380Y-40457381D01*
X38441238Y-40409762D01*
X38536476Y-40314524D01*
X38584095Y-40219286D01*
X38631714Y-40028810D01*
X38631714Y-39885952D01*
X38584095Y-39695476D01*
X38536476Y-39600238D01*
X38441238Y-39505000D01*
X38298380Y-39457381D01*
X38203142Y-39457381D01*
X38060285Y-39505000D01*
X38012666Y-39552619D01*
X37155523Y-39790714D02*
X37155523Y-40457381D01*
X37393619Y-39409762D02*
X37631714Y-40124048D01*
X37012666Y-40124048D01*
X36996666Y-68175143D02*
X37044285Y-68222762D01*
X37187142Y-68270381D01*
X37282380Y-68270381D01*
X37425238Y-68222762D01*
X37520476Y-68127524D01*
X37568095Y-68032286D01*
X37615714Y-67841810D01*
X37615714Y-67698952D01*
X37568095Y-67508476D01*
X37520476Y-67413238D01*
X37425238Y-67318000D01*
X37282380Y-67270381D01*
X37187142Y-67270381D01*
X37044285Y-67318000D01*
X36996666Y-67365619D01*
X36091904Y-67270381D02*
X36568095Y-67270381D01*
X36615714Y-67746571D01*
X36568095Y-67698952D01*
X36472857Y-67651333D01*
X36234761Y-67651333D01*
X36139523Y-67698952D01*
X36091904Y-67746571D01*
X36044285Y-67841810D01*
X36044285Y-68079905D01*
X36091904Y-68175143D01*
X36139523Y-68222762D01*
X36234761Y-68270381D01*
X36472857Y-68270381D01*
X36568095Y-68222762D01*
X36615714Y-68175143D01*
X47982143Y-43521334D02*
X48029762Y-43473715D01*
X48077381Y-43330858D01*
X48077381Y-43235620D01*
X48029762Y-43092762D01*
X47934524Y-42997524D01*
X47839286Y-42949905D01*
X47648810Y-42902286D01*
X47505952Y-42902286D01*
X47315476Y-42949905D01*
X47220238Y-42997524D01*
X47125000Y-43092762D01*
X47077381Y-43235620D01*
X47077381Y-43330858D01*
X47125000Y-43473715D01*
X47172619Y-43521334D01*
X47077381Y-44378477D02*
X47077381Y-44188000D01*
X47125000Y-44092762D01*
X47172619Y-44045143D01*
X47315476Y-43949905D01*
X47505952Y-43902286D01*
X47886905Y-43902286D01*
X47982143Y-43949905D01*
X48029762Y-43997524D01*
X48077381Y-44092762D01*
X48077381Y-44283239D01*
X48029762Y-44378477D01*
X47982143Y-44426096D01*
X47886905Y-44473715D01*
X47648810Y-44473715D01*
X47553571Y-44426096D01*
X47505952Y-44378477D01*
X47458333Y-44283239D01*
X47458333Y-44092762D01*
X47505952Y-43997524D01*
X47553571Y-43949905D01*
X47648810Y-43902286D01*
X40997143Y-75017334D02*
X41044762Y-74969715D01*
X41092381Y-74826858D01*
X41092381Y-74731620D01*
X41044762Y-74588762D01*
X40949524Y-74493524D01*
X40854286Y-74445905D01*
X40663810Y-74398286D01*
X40520952Y-74398286D01*
X40330476Y-74445905D01*
X40235238Y-74493524D01*
X40140000Y-74588762D01*
X40092381Y-74731620D01*
X40092381Y-74826858D01*
X40140000Y-74969715D01*
X40187619Y-75017334D01*
X40092381Y-75350667D02*
X40092381Y-76017334D01*
X41092381Y-75588762D01*
X52236666Y-66651143D02*
X52284285Y-66698762D01*
X52427142Y-66746381D01*
X52522380Y-66746381D01*
X52665238Y-66698762D01*
X52760476Y-66603524D01*
X52808095Y-66508286D01*
X52855714Y-66317810D01*
X52855714Y-66174952D01*
X52808095Y-65984476D01*
X52760476Y-65889238D01*
X52665238Y-65794000D01*
X52522380Y-65746381D01*
X52427142Y-65746381D01*
X52284285Y-65794000D01*
X52236666Y-65841619D01*
X51665238Y-66174952D02*
X51760476Y-66127333D01*
X51808095Y-66079714D01*
X51855714Y-65984476D01*
X51855714Y-65936857D01*
X51808095Y-65841619D01*
X51760476Y-65794000D01*
X51665238Y-65746381D01*
X51474761Y-65746381D01*
X51379523Y-65794000D01*
X51331904Y-65841619D01*
X51284285Y-65936857D01*
X51284285Y-65984476D01*
X51331904Y-66079714D01*
X51379523Y-66127333D01*
X51474761Y-66174952D01*
X51665238Y-66174952D01*
X51760476Y-66222571D01*
X51808095Y-66270190D01*
X51855714Y-66365429D01*
X51855714Y-66555905D01*
X51808095Y-66651143D01*
X51760476Y-66698762D01*
X51665238Y-66746381D01*
X51474761Y-66746381D01*
X51379523Y-66698762D01*
X51331904Y-66651143D01*
X51284285Y-66555905D01*
X51284285Y-66365429D01*
X51331904Y-66270190D01*
X51379523Y-66222571D01*
X51474761Y-66174952D01*
X38012666Y-32742143D02*
X38060285Y-32789762D01*
X38203142Y-32837381D01*
X38298380Y-32837381D01*
X38441238Y-32789762D01*
X38536476Y-32694524D01*
X38584095Y-32599286D01*
X38631714Y-32408810D01*
X38631714Y-32265952D01*
X38584095Y-32075476D01*
X38536476Y-31980238D01*
X38441238Y-31885000D01*
X38298380Y-31837381D01*
X38203142Y-31837381D01*
X38060285Y-31885000D01*
X38012666Y-31932619D01*
X37536476Y-32837381D02*
X37346000Y-32837381D01*
X37250761Y-32789762D01*
X37203142Y-32742143D01*
X37107904Y-32599286D01*
X37060285Y-32408810D01*
X37060285Y-32027857D01*
X37107904Y-31932619D01*
X37155523Y-31885000D01*
X37250761Y-31837381D01*
X37441238Y-31837381D01*
X37536476Y-31885000D01*
X37584095Y-31932619D01*
X37631714Y-32027857D01*
X37631714Y-32265952D01*
X37584095Y-32361190D01*
X37536476Y-32408810D01*
X37441238Y-32456429D01*
X37250761Y-32456429D01*
X37155523Y-32408810D01*
X37107904Y-32361190D01*
X37060285Y-32265952D01*
X51315857Y-32234143D02*
X51363476Y-32281762D01*
X51506333Y-32329381D01*
X51601571Y-32329381D01*
X51744429Y-32281762D01*
X51839667Y-32186524D01*
X51887286Y-32091286D01*
X51934905Y-31900810D01*
X51934905Y-31757952D01*
X51887286Y-31567476D01*
X51839667Y-31472238D01*
X51744429Y-31377000D01*
X51601571Y-31329381D01*
X51506333Y-31329381D01*
X51363476Y-31377000D01*
X51315857Y-31424619D01*
X50363476Y-32329381D02*
X50934905Y-32329381D01*
X50649191Y-32329381D02*
X50649191Y-31329381D01*
X50744429Y-31472238D01*
X50839667Y-31567476D01*
X50934905Y-31615095D01*
X49744429Y-31329381D02*
X49649190Y-31329381D01*
X49553952Y-31377000D01*
X49506333Y-31424619D01*
X49458714Y-31519857D01*
X49411095Y-31710333D01*
X49411095Y-31948429D01*
X49458714Y-32138905D01*
X49506333Y-32234143D01*
X49553952Y-32281762D01*
X49649190Y-32329381D01*
X49744429Y-32329381D01*
X49839667Y-32281762D01*
X49887286Y-32234143D01*
X49934905Y-32138905D01*
X49982524Y-31948429D01*
X49982524Y-31710333D01*
X49934905Y-31519857D01*
X49887286Y-31424619D01*
X49839667Y-31377000D01*
X49744429Y-31329381D01*
X9687143Y-48887143D02*
X9734762Y-48839524D01*
X9782381Y-48696667D01*
X9782381Y-48601429D01*
X9734762Y-48458571D01*
X9639524Y-48363333D01*
X9544286Y-48315714D01*
X9353810Y-48268095D01*
X9210952Y-48268095D01*
X9020476Y-48315714D01*
X8925238Y-48363333D01*
X8830000Y-48458571D01*
X8782381Y-48601429D01*
X8782381Y-48696667D01*
X8830000Y-48839524D01*
X8877619Y-48887143D01*
X9782381Y-49839524D02*
X9782381Y-49268095D01*
X9782381Y-49553809D02*
X8782381Y-49553809D01*
X8925238Y-49458571D01*
X9020476Y-49363333D01*
X9068095Y-49268095D01*
X9782381Y-50791905D02*
X9782381Y-50220476D01*
X9782381Y-50506190D02*
X8782381Y-50506190D01*
X8925238Y-50410952D01*
X9020476Y-50315714D01*
X9068095Y-50220476D01*
X32138857Y-22777143D02*
X32186476Y-22824762D01*
X32329333Y-22872381D01*
X32424571Y-22872381D01*
X32567429Y-22824762D01*
X32662667Y-22729524D01*
X32710286Y-22634286D01*
X32757905Y-22443810D01*
X32757905Y-22300952D01*
X32710286Y-22110476D01*
X32662667Y-22015238D01*
X32567429Y-21920000D01*
X32424571Y-21872381D01*
X32329333Y-21872381D01*
X32186476Y-21920000D01*
X32138857Y-21967619D01*
X31186476Y-22872381D02*
X31757905Y-22872381D01*
X31472191Y-22872381D02*
X31472191Y-21872381D01*
X31567429Y-22015238D01*
X31662667Y-22110476D01*
X31757905Y-22158095D01*
X30805524Y-21967619D02*
X30757905Y-21920000D01*
X30662667Y-21872381D01*
X30424571Y-21872381D01*
X30329333Y-21920000D01*
X30281714Y-21967619D01*
X30234095Y-22062857D01*
X30234095Y-22158095D01*
X30281714Y-22300952D01*
X30853143Y-22872381D01*
X30234095Y-22872381D01*
X24927143Y-34917143D02*
X24974762Y-34869524D01*
X25022381Y-34726667D01*
X25022381Y-34631429D01*
X24974762Y-34488571D01*
X24879524Y-34393333D01*
X24784286Y-34345714D01*
X24593810Y-34298095D01*
X24450952Y-34298095D01*
X24260476Y-34345714D01*
X24165238Y-34393333D01*
X24070000Y-34488571D01*
X24022381Y-34631429D01*
X24022381Y-34726667D01*
X24070000Y-34869524D01*
X24117619Y-34917143D01*
X25022381Y-35869524D02*
X25022381Y-35298095D01*
X25022381Y-35583809D02*
X24022381Y-35583809D01*
X24165238Y-35488571D01*
X24260476Y-35393333D01*
X24308095Y-35298095D01*
X24022381Y-36202857D02*
X24022381Y-36821905D01*
X24403333Y-36488571D01*
X24403333Y-36631429D01*
X24450952Y-36726667D01*
X24498571Y-36774286D01*
X24593810Y-36821905D01*
X24831905Y-36821905D01*
X24927143Y-36774286D01*
X24974762Y-36726667D01*
X25022381Y-36631429D01*
X25022381Y-36345714D01*
X24974762Y-36250476D01*
X24927143Y-36202857D01*
X19212143Y-26662143D02*
X19259762Y-26614524D01*
X19307381Y-26471667D01*
X19307381Y-26376429D01*
X19259762Y-26233571D01*
X19164524Y-26138333D01*
X19069286Y-26090714D01*
X18878810Y-26043095D01*
X18735952Y-26043095D01*
X18545476Y-26090714D01*
X18450238Y-26138333D01*
X18355000Y-26233571D01*
X18307381Y-26376429D01*
X18307381Y-26471667D01*
X18355000Y-26614524D01*
X18402619Y-26662143D01*
X19307381Y-27614524D02*
X19307381Y-27043095D01*
X19307381Y-27328809D02*
X18307381Y-27328809D01*
X18450238Y-27233571D01*
X18545476Y-27138333D01*
X18593095Y-27043095D01*
X18640714Y-28471667D02*
X19307381Y-28471667D01*
X18259762Y-28233571D02*
X18974048Y-27995476D01*
X18974048Y-28614524D01*
X38996857Y-35282143D02*
X39044476Y-35329762D01*
X39187333Y-35377381D01*
X39282571Y-35377381D01*
X39425429Y-35329762D01*
X39520667Y-35234524D01*
X39568286Y-35139286D01*
X39615905Y-34948810D01*
X39615905Y-34805952D01*
X39568286Y-34615476D01*
X39520667Y-34520238D01*
X39425429Y-34425000D01*
X39282571Y-34377381D01*
X39187333Y-34377381D01*
X39044476Y-34425000D01*
X38996857Y-34472619D01*
X38044476Y-35377381D02*
X38615905Y-35377381D01*
X38330191Y-35377381D02*
X38330191Y-34377381D01*
X38425429Y-34520238D01*
X38520667Y-34615476D01*
X38615905Y-34663095D01*
X37139714Y-34377381D02*
X37615905Y-34377381D01*
X37663524Y-34853571D01*
X37615905Y-34805952D01*
X37520667Y-34758333D01*
X37282571Y-34758333D01*
X37187333Y-34805952D01*
X37139714Y-34853571D01*
X37092095Y-34948810D01*
X37092095Y-35186905D01*
X37139714Y-35282143D01*
X37187333Y-35329762D01*
X37282571Y-35377381D01*
X37520667Y-35377381D01*
X37615905Y-35329762D01*
X37663524Y-35282143D01*
X51315857Y-34012143D02*
X51363476Y-34059762D01*
X51506333Y-34107381D01*
X51601571Y-34107381D01*
X51744429Y-34059762D01*
X51839667Y-33964524D01*
X51887286Y-33869286D01*
X51934905Y-33678810D01*
X51934905Y-33535952D01*
X51887286Y-33345476D01*
X51839667Y-33250238D01*
X51744429Y-33155000D01*
X51601571Y-33107381D01*
X51506333Y-33107381D01*
X51363476Y-33155000D01*
X51315857Y-33202619D01*
X50363476Y-34107381D02*
X50934905Y-34107381D01*
X50649191Y-34107381D02*
X50649191Y-33107381D01*
X50744429Y-33250238D01*
X50839667Y-33345476D01*
X50934905Y-33393095D01*
X49506333Y-33107381D02*
X49696810Y-33107381D01*
X49792048Y-33155000D01*
X49839667Y-33202619D01*
X49934905Y-33345476D01*
X49982524Y-33535952D01*
X49982524Y-33916905D01*
X49934905Y-34012143D01*
X49887286Y-34059762D01*
X49792048Y-34107381D01*
X49601571Y-34107381D01*
X49506333Y-34059762D01*
X49458714Y-34012143D01*
X49411095Y-33916905D01*
X49411095Y-33678810D01*
X49458714Y-33583571D01*
X49506333Y-33535952D01*
X49601571Y-33488333D01*
X49792048Y-33488333D01*
X49887286Y-33535952D01*
X49934905Y-33583571D01*
X49982524Y-33678810D01*
X9687143Y-38727143D02*
X9734762Y-38679524D01*
X9782381Y-38536667D01*
X9782381Y-38441429D01*
X9734762Y-38298571D01*
X9639524Y-38203333D01*
X9544286Y-38155714D01*
X9353810Y-38108095D01*
X9210952Y-38108095D01*
X9020476Y-38155714D01*
X8925238Y-38203333D01*
X8830000Y-38298571D01*
X8782381Y-38441429D01*
X8782381Y-38536667D01*
X8830000Y-38679524D01*
X8877619Y-38727143D01*
X9782381Y-39679524D02*
X9782381Y-39108095D01*
X9782381Y-39393809D02*
X8782381Y-39393809D01*
X8925238Y-39298571D01*
X9020476Y-39203333D01*
X9068095Y-39108095D01*
X8782381Y-40012857D02*
X8782381Y-40679524D01*
X9782381Y-40250952D01*
X44553143Y-29837143D02*
X44600762Y-29789524D01*
X44648381Y-29646667D01*
X44648381Y-29551429D01*
X44600762Y-29408571D01*
X44505524Y-29313333D01*
X44410286Y-29265714D01*
X44219810Y-29218095D01*
X44076952Y-29218095D01*
X43886476Y-29265714D01*
X43791238Y-29313333D01*
X43696000Y-29408571D01*
X43648381Y-29551429D01*
X43648381Y-29646667D01*
X43696000Y-29789524D01*
X43743619Y-29837143D01*
X44648381Y-30789524D02*
X44648381Y-30218095D01*
X44648381Y-30503809D02*
X43648381Y-30503809D01*
X43791238Y-30408571D01*
X43886476Y-30313333D01*
X43934095Y-30218095D01*
X44076952Y-31360952D02*
X44029333Y-31265714D01*
X43981714Y-31218095D01*
X43886476Y-31170476D01*
X43838857Y-31170476D01*
X43743619Y-31218095D01*
X43696000Y-31265714D01*
X43648381Y-31360952D01*
X43648381Y-31551429D01*
X43696000Y-31646667D01*
X43743619Y-31694286D01*
X43838857Y-31741905D01*
X43886476Y-31741905D01*
X43981714Y-31694286D01*
X44029333Y-31646667D01*
X44076952Y-31551429D01*
X44076952Y-31360952D01*
X44124571Y-31265714D01*
X44172190Y-31218095D01*
X44267429Y-31170476D01*
X44457905Y-31170476D01*
X44553143Y-31218095D01*
X44600762Y-31265714D01*
X44648381Y-31360952D01*
X44648381Y-31551429D01*
X44600762Y-31646667D01*
X44553143Y-31694286D01*
X44457905Y-31741905D01*
X44267429Y-31741905D01*
X44172190Y-31694286D01*
X44124571Y-31646667D01*
X44076952Y-31551429D01*
X45442143Y-42664143D02*
X45489762Y-42616524D01*
X45537381Y-42473667D01*
X45537381Y-42378429D01*
X45489762Y-42235571D01*
X45394524Y-42140333D01*
X45299286Y-42092714D01*
X45108810Y-42045095D01*
X44965952Y-42045095D01*
X44775476Y-42092714D01*
X44680238Y-42140333D01*
X44585000Y-42235571D01*
X44537381Y-42378429D01*
X44537381Y-42473667D01*
X44585000Y-42616524D01*
X44632619Y-42664143D01*
X45537381Y-43616524D02*
X45537381Y-43045095D01*
X45537381Y-43330809D02*
X44537381Y-43330809D01*
X44680238Y-43235571D01*
X44775476Y-43140333D01*
X44823095Y-43045095D01*
X45537381Y-44092714D02*
X45537381Y-44283190D01*
X45489762Y-44378429D01*
X45442143Y-44426048D01*
X45299286Y-44521286D01*
X45108810Y-44568905D01*
X44727857Y-44568905D01*
X44632619Y-44521286D01*
X44585000Y-44473667D01*
X44537381Y-44378429D01*
X44537381Y-44187952D01*
X44585000Y-44092714D01*
X44632619Y-44045095D01*
X44727857Y-43997476D01*
X44965952Y-43997476D01*
X45061190Y-44045095D01*
X45108810Y-44092714D01*
X45156429Y-44187952D01*
X45156429Y-44378429D01*
X45108810Y-44473667D01*
X45061190Y-44521286D01*
X44965952Y-44568905D01*
X43029143Y-42537143D02*
X43076762Y-42489524D01*
X43124381Y-42346667D01*
X43124381Y-42251429D01*
X43076762Y-42108571D01*
X42981524Y-42013333D01*
X42886286Y-41965714D01*
X42695810Y-41918095D01*
X42552952Y-41918095D01*
X42362476Y-41965714D01*
X42267238Y-42013333D01*
X42172000Y-42108571D01*
X42124381Y-42251429D01*
X42124381Y-42346667D01*
X42172000Y-42489524D01*
X42219619Y-42537143D01*
X42219619Y-42918095D02*
X42172000Y-42965714D01*
X42124381Y-43060952D01*
X42124381Y-43299048D01*
X42172000Y-43394286D01*
X42219619Y-43441905D01*
X42314857Y-43489524D01*
X42410095Y-43489524D01*
X42552952Y-43441905D01*
X43124381Y-42870476D01*
X43124381Y-43489524D01*
X42124381Y-44108571D02*
X42124381Y-44203810D01*
X42172000Y-44299048D01*
X42219619Y-44346667D01*
X42314857Y-44394286D01*
X42505333Y-44441905D01*
X42743429Y-44441905D01*
X42933905Y-44394286D01*
X43029143Y-44346667D01*
X43076762Y-44299048D01*
X43124381Y-44203810D01*
X43124381Y-44108571D01*
X43076762Y-44013333D01*
X43029143Y-43965714D01*
X42933905Y-43918095D01*
X42743429Y-43870476D01*
X42505333Y-43870476D01*
X42314857Y-43918095D01*
X42219619Y-43965714D01*
X42172000Y-44013333D01*
X42124381Y-44108571D01*
X38869857Y-37695143D02*
X38917476Y-37742762D01*
X39060333Y-37790381D01*
X39155571Y-37790381D01*
X39298429Y-37742762D01*
X39393667Y-37647524D01*
X39441286Y-37552286D01*
X39488905Y-37361810D01*
X39488905Y-37218952D01*
X39441286Y-37028476D01*
X39393667Y-36933238D01*
X39298429Y-36838000D01*
X39155571Y-36790381D01*
X39060333Y-36790381D01*
X38917476Y-36838000D01*
X38869857Y-36885619D01*
X38488905Y-36885619D02*
X38441286Y-36838000D01*
X38346048Y-36790381D01*
X38107952Y-36790381D01*
X38012714Y-36838000D01*
X37965095Y-36885619D01*
X37917476Y-36980857D01*
X37917476Y-37076095D01*
X37965095Y-37218952D01*
X38536524Y-37790381D01*
X37917476Y-37790381D01*
X36965095Y-37790381D02*
X37536524Y-37790381D01*
X37250810Y-37790381D02*
X37250810Y-36790381D01*
X37346048Y-36933238D01*
X37441286Y-37028476D01*
X37536524Y-37076095D01*
X46712143Y-29837143D02*
X46759762Y-29789524D01*
X46807381Y-29646667D01*
X46807381Y-29551429D01*
X46759762Y-29408571D01*
X46664524Y-29313333D01*
X46569286Y-29265714D01*
X46378810Y-29218095D01*
X46235952Y-29218095D01*
X46045476Y-29265714D01*
X45950238Y-29313333D01*
X45855000Y-29408571D01*
X45807381Y-29551429D01*
X45807381Y-29646667D01*
X45855000Y-29789524D01*
X45902619Y-29837143D01*
X45902619Y-30218095D02*
X45855000Y-30265714D01*
X45807381Y-30360952D01*
X45807381Y-30599048D01*
X45855000Y-30694286D01*
X45902619Y-30741905D01*
X45997857Y-30789524D01*
X46093095Y-30789524D01*
X46235952Y-30741905D01*
X46807381Y-30170476D01*
X46807381Y-30789524D01*
X45902619Y-31170476D02*
X45855000Y-31218095D01*
X45807381Y-31313333D01*
X45807381Y-31551429D01*
X45855000Y-31646667D01*
X45902619Y-31694286D01*
X45997857Y-31741905D01*
X46093095Y-31741905D01*
X46235952Y-31694286D01*
X46807381Y-31122857D01*
X46807381Y-31741905D01*
X51569857Y-37187143D02*
X51617476Y-37234762D01*
X51760333Y-37282381D01*
X51855571Y-37282381D01*
X51998429Y-37234762D01*
X52093667Y-37139524D01*
X52141286Y-37044286D01*
X52188905Y-36853810D01*
X52188905Y-36710952D01*
X52141286Y-36520476D01*
X52093667Y-36425238D01*
X51998429Y-36330000D01*
X51855571Y-36282381D01*
X51760333Y-36282381D01*
X51617476Y-36330000D01*
X51569857Y-36377619D01*
X51188905Y-36377619D02*
X51141286Y-36330000D01*
X51046048Y-36282381D01*
X50807952Y-36282381D01*
X50712714Y-36330000D01*
X50665095Y-36377619D01*
X50617476Y-36472857D01*
X50617476Y-36568095D01*
X50665095Y-36710952D01*
X51236524Y-37282381D01*
X50617476Y-37282381D01*
X50284143Y-36282381D02*
X49665095Y-36282381D01*
X49998429Y-36663333D01*
X49855571Y-36663333D01*
X49760333Y-36710952D01*
X49712714Y-36758571D01*
X49665095Y-36853810D01*
X49665095Y-37091905D01*
X49712714Y-37187143D01*
X49760333Y-37234762D01*
X49855571Y-37282381D01*
X50141286Y-37282381D01*
X50236524Y-37234762D01*
X50284143Y-37187143D01*
X42140143Y-29837143D02*
X42187762Y-29789524D01*
X42235381Y-29646667D01*
X42235381Y-29551429D01*
X42187762Y-29408571D01*
X42092524Y-29313333D01*
X41997286Y-29265714D01*
X41806810Y-29218095D01*
X41663952Y-29218095D01*
X41473476Y-29265714D01*
X41378238Y-29313333D01*
X41283000Y-29408571D01*
X41235381Y-29551429D01*
X41235381Y-29646667D01*
X41283000Y-29789524D01*
X41330619Y-29837143D01*
X41330619Y-30218095D02*
X41283000Y-30265714D01*
X41235381Y-30360952D01*
X41235381Y-30599048D01*
X41283000Y-30694286D01*
X41330619Y-30741905D01*
X41425857Y-30789524D01*
X41521095Y-30789524D01*
X41663952Y-30741905D01*
X42235381Y-30170476D01*
X42235381Y-30789524D01*
X41235381Y-31694286D02*
X41235381Y-31218095D01*
X41711571Y-31170476D01*
X41663952Y-31218095D01*
X41616333Y-31313333D01*
X41616333Y-31551429D01*
X41663952Y-31646667D01*
X41711571Y-31694286D01*
X41806810Y-31741905D01*
X42044905Y-31741905D01*
X42140143Y-31694286D01*
X42187762Y-31646667D01*
X42235381Y-31551429D01*
X42235381Y-31313333D01*
X42187762Y-31218095D01*
X42140143Y-31170476D01*
X39727143Y-42410143D02*
X39774762Y-42362524D01*
X39822381Y-42219667D01*
X39822381Y-42124429D01*
X39774762Y-41981571D01*
X39679524Y-41886333D01*
X39584286Y-41838714D01*
X39393810Y-41791095D01*
X39250952Y-41791095D01*
X39060476Y-41838714D01*
X38965238Y-41886333D01*
X38870000Y-41981571D01*
X38822381Y-42124429D01*
X38822381Y-42219667D01*
X38870000Y-42362524D01*
X38917619Y-42410143D01*
X38917619Y-42791095D02*
X38870000Y-42838714D01*
X38822381Y-42933952D01*
X38822381Y-43172048D01*
X38870000Y-43267286D01*
X38917619Y-43314905D01*
X39012857Y-43362524D01*
X39108095Y-43362524D01*
X39250952Y-43314905D01*
X39822381Y-42743476D01*
X39822381Y-43362524D01*
X38822381Y-44219667D02*
X38822381Y-44029190D01*
X38870000Y-43933952D01*
X38917619Y-43886333D01*
X39060476Y-43791095D01*
X39250952Y-43743476D01*
X39631905Y-43743476D01*
X39727143Y-43791095D01*
X39774762Y-43838714D01*
X39822381Y-43933952D01*
X39822381Y-44124429D01*
X39774762Y-44219667D01*
X39727143Y-44267286D01*
X39631905Y-44314905D01*
X39393810Y-44314905D01*
X39298571Y-44267286D01*
X39250952Y-44219667D01*
X39203333Y-44124429D01*
X39203333Y-43933952D01*
X39250952Y-43838714D01*
X39298571Y-43791095D01*
X39393810Y-43743476D01*
X7147143Y-26662143D02*
X7194762Y-26614524D01*
X7242381Y-26471667D01*
X7242381Y-26376429D01*
X7194762Y-26233571D01*
X7099524Y-26138333D01*
X7004286Y-26090714D01*
X6813810Y-26043095D01*
X6670952Y-26043095D01*
X6480476Y-26090714D01*
X6385238Y-26138333D01*
X6290000Y-26233571D01*
X6242381Y-26376429D01*
X6242381Y-26471667D01*
X6290000Y-26614524D01*
X6337619Y-26662143D01*
X6337619Y-27043095D02*
X6290000Y-27090714D01*
X6242381Y-27185952D01*
X6242381Y-27424048D01*
X6290000Y-27519286D01*
X6337619Y-27566905D01*
X6432857Y-27614524D01*
X6528095Y-27614524D01*
X6670952Y-27566905D01*
X7242381Y-26995476D01*
X7242381Y-27614524D01*
X6242381Y-27947857D02*
X6242381Y-28614524D01*
X7242381Y-28185952D01*
X42044857Y-67159143D02*
X42092476Y-67206762D01*
X42235333Y-67254381D01*
X42330571Y-67254381D01*
X42473429Y-67206762D01*
X42568667Y-67111524D01*
X42616286Y-67016286D01*
X42663905Y-66825810D01*
X42663905Y-66682952D01*
X42616286Y-66492476D01*
X42568667Y-66397238D01*
X42473429Y-66302000D01*
X42330571Y-66254381D01*
X42235333Y-66254381D01*
X42092476Y-66302000D01*
X42044857Y-66349619D01*
X41663905Y-66349619D02*
X41616286Y-66302000D01*
X41521048Y-66254381D01*
X41282952Y-66254381D01*
X41187714Y-66302000D01*
X41140095Y-66349619D01*
X41092476Y-66444857D01*
X41092476Y-66540095D01*
X41140095Y-66682952D01*
X41711524Y-67254381D01*
X41092476Y-67254381D01*
X40521048Y-66682952D02*
X40616286Y-66635333D01*
X40663905Y-66587714D01*
X40711524Y-66492476D01*
X40711524Y-66444857D01*
X40663905Y-66349619D01*
X40616286Y-66302000D01*
X40521048Y-66254381D01*
X40330571Y-66254381D01*
X40235333Y-66302000D01*
X40187714Y-66349619D01*
X40140095Y-66444857D01*
X40140095Y-66492476D01*
X40187714Y-66587714D01*
X40235333Y-66635333D01*
X40330571Y-66682952D01*
X40521048Y-66682952D01*
X40616286Y-66730571D01*
X40663905Y-66778190D01*
X40711524Y-66873429D01*
X40711524Y-67063905D01*
X40663905Y-67159143D01*
X40616286Y-67206762D01*
X40521048Y-67254381D01*
X40330571Y-67254381D01*
X40235333Y-67206762D01*
X40187714Y-67159143D01*
X40140095Y-67063905D01*
X40140095Y-66873429D01*
X40187714Y-66778190D01*
X40235333Y-66730571D01*
X40330571Y-66682952D01*
X48998143Y-29583143D02*
X49045762Y-29535524D01*
X49093381Y-29392667D01*
X49093381Y-29297429D01*
X49045762Y-29154571D01*
X48950524Y-29059333D01*
X48855286Y-29011714D01*
X48664810Y-28964095D01*
X48521952Y-28964095D01*
X48331476Y-29011714D01*
X48236238Y-29059333D01*
X48141000Y-29154571D01*
X48093381Y-29297429D01*
X48093381Y-29392667D01*
X48141000Y-29535524D01*
X48188619Y-29583143D01*
X48188619Y-29964095D02*
X48141000Y-30011714D01*
X48093381Y-30106952D01*
X48093381Y-30345048D01*
X48141000Y-30440286D01*
X48188619Y-30487905D01*
X48283857Y-30535524D01*
X48379095Y-30535524D01*
X48521952Y-30487905D01*
X49093381Y-29916476D01*
X49093381Y-30535524D01*
X49093381Y-31011714D02*
X49093381Y-31202190D01*
X49045762Y-31297429D01*
X48998143Y-31345048D01*
X48855286Y-31440286D01*
X48664810Y-31487905D01*
X48283857Y-31487905D01*
X48188619Y-31440286D01*
X48141000Y-31392667D01*
X48093381Y-31297429D01*
X48093381Y-31106952D01*
X48141000Y-31011714D01*
X48188619Y-30964095D01*
X48283857Y-30916476D01*
X48521952Y-30916476D01*
X48617190Y-30964095D01*
X48664810Y-31011714D01*
X48712429Y-31106952D01*
X48712429Y-31297429D01*
X48664810Y-31392667D01*
X48617190Y-31440286D01*
X48521952Y-31487905D01*
X42044857Y-65381143D02*
X42092476Y-65428762D01*
X42235333Y-65476381D01*
X42330571Y-65476381D01*
X42473429Y-65428762D01*
X42568667Y-65333524D01*
X42616286Y-65238286D01*
X42663905Y-65047810D01*
X42663905Y-64904952D01*
X42616286Y-64714476D01*
X42568667Y-64619238D01*
X42473429Y-64524000D01*
X42330571Y-64476381D01*
X42235333Y-64476381D01*
X42092476Y-64524000D01*
X42044857Y-64571619D01*
X41711524Y-64476381D02*
X41092476Y-64476381D01*
X41425810Y-64857333D01*
X41282952Y-64857333D01*
X41187714Y-64904952D01*
X41140095Y-64952571D01*
X41092476Y-65047810D01*
X41092476Y-65285905D01*
X41140095Y-65381143D01*
X41187714Y-65428762D01*
X41282952Y-65476381D01*
X41568667Y-65476381D01*
X41663905Y-65428762D01*
X41711524Y-65381143D01*
X40473429Y-64476381D02*
X40378190Y-64476381D01*
X40282952Y-64524000D01*
X40235333Y-64571619D01*
X40187714Y-64666857D01*
X40140095Y-64857333D01*
X40140095Y-65095429D01*
X40187714Y-65285905D01*
X40235333Y-65381143D01*
X40282952Y-65428762D01*
X40378190Y-65476381D01*
X40473429Y-65476381D01*
X40568667Y-65428762D01*
X40616286Y-65381143D01*
X40663905Y-65285905D01*
X40711524Y-65095429D01*
X40711524Y-64857333D01*
X40663905Y-64666857D01*
X40616286Y-64571619D01*
X40568667Y-64524000D01*
X40473429Y-64476381D01*
X53474857Y-64111143D02*
X53522476Y-64158762D01*
X53665333Y-64206381D01*
X53760571Y-64206381D01*
X53903429Y-64158762D01*
X53998667Y-64063524D01*
X54046286Y-63968286D01*
X54093905Y-63777810D01*
X54093905Y-63634952D01*
X54046286Y-63444476D01*
X53998667Y-63349238D01*
X53903429Y-63254000D01*
X53760571Y-63206381D01*
X53665333Y-63206381D01*
X53522476Y-63254000D01*
X53474857Y-63301619D01*
X53141524Y-63206381D02*
X52522476Y-63206381D01*
X52855810Y-63587333D01*
X52712952Y-63587333D01*
X52617714Y-63634952D01*
X52570095Y-63682571D01*
X52522476Y-63777810D01*
X52522476Y-64015905D01*
X52570095Y-64111143D01*
X52617714Y-64158762D01*
X52712952Y-64206381D01*
X52998667Y-64206381D01*
X53093905Y-64158762D01*
X53141524Y-64111143D01*
X51570095Y-64206381D02*
X52141524Y-64206381D01*
X51855810Y-64206381D02*
X51855810Y-63206381D01*
X51951048Y-63349238D01*
X52046286Y-63444476D01*
X52141524Y-63492095D01*
X42044857Y-63603143D02*
X42092476Y-63650762D01*
X42235333Y-63698381D01*
X42330571Y-63698381D01*
X42473429Y-63650762D01*
X42568667Y-63555524D01*
X42616286Y-63460286D01*
X42663905Y-63269810D01*
X42663905Y-63126952D01*
X42616286Y-62936476D01*
X42568667Y-62841238D01*
X42473429Y-62746000D01*
X42330571Y-62698381D01*
X42235333Y-62698381D01*
X42092476Y-62746000D01*
X42044857Y-62793619D01*
X41711524Y-62698381D02*
X41092476Y-62698381D01*
X41425810Y-63079333D01*
X41282952Y-63079333D01*
X41187714Y-63126952D01*
X41140095Y-63174571D01*
X41092476Y-63269810D01*
X41092476Y-63507905D01*
X41140095Y-63603143D01*
X41187714Y-63650762D01*
X41282952Y-63698381D01*
X41568667Y-63698381D01*
X41663905Y-63650762D01*
X41711524Y-63603143D01*
X40711524Y-62793619D02*
X40663905Y-62746000D01*
X40568667Y-62698381D01*
X40330571Y-62698381D01*
X40235333Y-62746000D01*
X40187714Y-62793619D01*
X40140095Y-62888857D01*
X40140095Y-62984095D01*
X40187714Y-63126952D01*
X40759143Y-63698381D01*
X40140095Y-63698381D01*
X43537143Y-74795143D02*
X43584762Y-74747524D01*
X43632381Y-74604667D01*
X43632381Y-74509429D01*
X43584762Y-74366571D01*
X43489524Y-74271333D01*
X43394286Y-74223714D01*
X43203810Y-74176095D01*
X43060952Y-74176095D01*
X42870476Y-74223714D01*
X42775238Y-74271333D01*
X42680000Y-74366571D01*
X42632381Y-74509429D01*
X42632381Y-74604667D01*
X42680000Y-74747524D01*
X42727619Y-74795143D01*
X42632381Y-75128476D02*
X42632381Y-75747524D01*
X43013333Y-75414190D01*
X43013333Y-75557048D01*
X43060952Y-75652286D01*
X43108571Y-75699905D01*
X43203810Y-75747524D01*
X43441905Y-75747524D01*
X43537143Y-75699905D01*
X43584762Y-75652286D01*
X43632381Y-75557048D01*
X43632381Y-75271333D01*
X43584762Y-75176095D01*
X43537143Y-75128476D01*
X42632381Y-76080857D02*
X42632381Y-76699905D01*
X43013333Y-76366571D01*
X43013333Y-76509429D01*
X43060952Y-76604667D01*
X43108571Y-76652286D01*
X43203810Y-76699905D01*
X43441905Y-76699905D01*
X43537143Y-76652286D01*
X43584762Y-76604667D01*
X43632381Y-76509429D01*
X43632381Y-76223714D01*
X43584762Y-76128476D01*
X43537143Y-76080857D01*
X42044857Y-69191143D02*
X42092476Y-69238762D01*
X42235333Y-69286381D01*
X42330571Y-69286381D01*
X42473429Y-69238762D01*
X42568667Y-69143524D01*
X42616286Y-69048286D01*
X42663905Y-68857810D01*
X42663905Y-68714952D01*
X42616286Y-68524476D01*
X42568667Y-68429238D01*
X42473429Y-68334000D01*
X42330571Y-68286381D01*
X42235333Y-68286381D01*
X42092476Y-68334000D01*
X42044857Y-68381619D01*
X41711524Y-68286381D02*
X41092476Y-68286381D01*
X41425810Y-68667333D01*
X41282952Y-68667333D01*
X41187714Y-68714952D01*
X41140095Y-68762571D01*
X41092476Y-68857810D01*
X41092476Y-69095905D01*
X41140095Y-69191143D01*
X41187714Y-69238762D01*
X41282952Y-69286381D01*
X41568667Y-69286381D01*
X41663905Y-69238762D01*
X41711524Y-69191143D01*
X40235333Y-68619714D02*
X40235333Y-69286381D01*
X40473429Y-68238762D02*
X40711524Y-68953048D01*
X40092476Y-68953048D01*
X41759143Y-55745143D02*
X41806762Y-55697524D01*
X41854381Y-55554667D01*
X41854381Y-55459429D01*
X41806762Y-55316571D01*
X41711524Y-55221333D01*
X41616286Y-55173714D01*
X41425810Y-55126095D01*
X41282952Y-55126095D01*
X41092476Y-55173714D01*
X40997238Y-55221333D01*
X40902000Y-55316571D01*
X40854381Y-55459429D01*
X40854381Y-55554667D01*
X40902000Y-55697524D01*
X40949619Y-55745143D01*
X40854381Y-56078476D02*
X40854381Y-56697524D01*
X41235333Y-56364190D01*
X41235333Y-56507048D01*
X41282952Y-56602286D01*
X41330571Y-56649905D01*
X41425810Y-56697524D01*
X41663905Y-56697524D01*
X41759143Y-56649905D01*
X41806762Y-56602286D01*
X41854381Y-56507048D01*
X41854381Y-56221333D01*
X41806762Y-56126095D01*
X41759143Y-56078476D01*
X40854381Y-57602286D02*
X40854381Y-57126095D01*
X41330571Y-57078476D01*
X41282952Y-57126095D01*
X41235333Y-57221333D01*
X41235333Y-57459429D01*
X41282952Y-57554667D01*
X41330571Y-57602286D01*
X41425810Y-57649905D01*
X41663905Y-57649905D01*
X41759143Y-57602286D01*
X41806762Y-57554667D01*
X41854381Y-57459429D01*
X41854381Y-57221333D01*
X41806762Y-57126095D01*
X41759143Y-57078476D01*
X37980857Y-62841143D02*
X38028476Y-62888762D01*
X38171333Y-62936381D01*
X38266571Y-62936381D01*
X38409429Y-62888762D01*
X38504667Y-62793524D01*
X38552286Y-62698286D01*
X38599905Y-62507810D01*
X38599905Y-62364952D01*
X38552286Y-62174476D01*
X38504667Y-62079238D01*
X38409429Y-61984000D01*
X38266571Y-61936381D01*
X38171333Y-61936381D01*
X38028476Y-61984000D01*
X37980857Y-62031619D01*
X37647524Y-61936381D02*
X37028476Y-61936381D01*
X37361810Y-62317333D01*
X37218952Y-62317333D01*
X37123714Y-62364952D01*
X37076095Y-62412571D01*
X37028476Y-62507810D01*
X37028476Y-62745905D01*
X37076095Y-62841143D01*
X37123714Y-62888762D01*
X37218952Y-62936381D01*
X37504667Y-62936381D01*
X37599905Y-62888762D01*
X37647524Y-62841143D01*
X36171333Y-61936381D02*
X36361810Y-61936381D01*
X36457048Y-61984000D01*
X36504667Y-62031619D01*
X36599905Y-62174476D01*
X36647524Y-62364952D01*
X36647524Y-62745905D01*
X36599905Y-62841143D01*
X36552286Y-62888762D01*
X36457048Y-62936381D01*
X36266571Y-62936381D01*
X36171333Y-62888762D01*
X36123714Y-62841143D01*
X36076095Y-62745905D01*
X36076095Y-62507810D01*
X36123714Y-62412571D01*
X36171333Y-62364952D01*
X36266571Y-62317333D01*
X36457048Y-62317333D01*
X36552286Y-62364952D01*
X36599905Y-62412571D01*
X36647524Y-62507810D01*
X18168857Y-16962381D02*
X18502191Y-16486190D01*
X18740286Y-16962381D02*
X18740286Y-15962381D01*
X18359333Y-15962381D01*
X18264095Y-16010000D01*
X18216476Y-16057619D01*
X18168857Y-16152857D01*
X18168857Y-16295714D01*
X18216476Y-16390952D01*
X18264095Y-16438571D01*
X18359333Y-16486190D01*
X18740286Y-16486190D01*
X17216476Y-16962381D02*
X17787905Y-16962381D01*
X17502191Y-16962381D02*
X17502191Y-15962381D01*
X17597429Y-16105238D01*
X17692667Y-16200476D01*
X17787905Y-16248095D01*
X16835524Y-16057619D02*
X16787905Y-16010000D01*
X16692667Y-15962381D01*
X16454571Y-15962381D01*
X16359333Y-16010000D01*
X16311714Y-16057619D01*
X16264095Y-16152857D01*
X16264095Y-16248095D01*
X16311714Y-16390952D01*
X16883143Y-16962381D01*
X16264095Y-16962381D01*
X51252381Y-9517143D02*
X50776190Y-9183809D01*
X51252381Y-8945714D02*
X50252381Y-8945714D01*
X50252381Y-9326667D01*
X50300000Y-9421905D01*
X50347619Y-9469524D01*
X50442857Y-9517143D01*
X50585714Y-9517143D01*
X50680952Y-9469524D01*
X50728571Y-9421905D01*
X50776190Y-9326667D01*
X50776190Y-8945714D01*
X51252381Y-10469524D02*
X51252381Y-9898095D01*
X51252381Y-10183809D02*
X50252381Y-10183809D01*
X50395238Y-10088571D01*
X50490476Y-9993333D01*
X50538095Y-9898095D01*
X50252381Y-10802857D02*
X50252381Y-11421905D01*
X50633333Y-11088571D01*
X50633333Y-11231429D01*
X50680952Y-11326667D01*
X50728571Y-11374286D01*
X50823810Y-11421905D01*
X51061905Y-11421905D01*
X51157143Y-11374286D01*
X51204762Y-11326667D01*
X51252381Y-11231429D01*
X51252381Y-10945714D01*
X51204762Y-10850476D01*
X51157143Y-10802857D01*
X48712381Y-9517143D02*
X48236190Y-9183809D01*
X48712381Y-8945714D02*
X47712381Y-8945714D01*
X47712381Y-9326667D01*
X47760000Y-9421905D01*
X47807619Y-9469524D01*
X47902857Y-9517143D01*
X48045714Y-9517143D01*
X48140952Y-9469524D01*
X48188571Y-9421905D01*
X48236190Y-9326667D01*
X48236190Y-8945714D01*
X48712381Y-10469524D02*
X48712381Y-9898095D01*
X48712381Y-10183809D02*
X47712381Y-10183809D01*
X47855238Y-10088571D01*
X47950476Y-9993333D01*
X47998095Y-9898095D01*
X48045714Y-11326667D02*
X48712381Y-11326667D01*
X47664762Y-11088571D02*
X48379048Y-10850476D01*
X48379048Y-11469524D01*
X57602381Y-9517143D02*
X57126190Y-9183809D01*
X57602381Y-8945714D02*
X56602381Y-8945714D01*
X56602381Y-9326667D01*
X56650000Y-9421905D01*
X56697619Y-9469524D01*
X56792857Y-9517143D01*
X56935714Y-9517143D01*
X57030952Y-9469524D01*
X57078571Y-9421905D01*
X57126190Y-9326667D01*
X57126190Y-8945714D01*
X57602381Y-10469524D02*
X57602381Y-9898095D01*
X57602381Y-10183809D02*
X56602381Y-10183809D01*
X56745238Y-10088571D01*
X56840476Y-9993333D01*
X56888095Y-9898095D01*
X56602381Y-11374286D02*
X56602381Y-10898095D01*
X57078571Y-10850476D01*
X57030952Y-10898095D01*
X56983333Y-10993333D01*
X56983333Y-11231429D01*
X57030952Y-11326667D01*
X57078571Y-11374286D01*
X57173810Y-11421905D01*
X57411905Y-11421905D01*
X57507143Y-11374286D01*
X57554762Y-11326667D01*
X57602381Y-11231429D01*
X57602381Y-10993333D01*
X57554762Y-10898095D01*
X57507143Y-10850476D01*
X44902381Y-9771143D02*
X44426190Y-9437809D01*
X44902381Y-9199714D02*
X43902381Y-9199714D01*
X43902381Y-9580667D01*
X43950000Y-9675905D01*
X43997619Y-9723524D01*
X44092857Y-9771143D01*
X44235714Y-9771143D01*
X44330952Y-9723524D01*
X44378571Y-9675905D01*
X44426190Y-9580667D01*
X44426190Y-9199714D01*
X44902381Y-10723524D02*
X44902381Y-10152095D01*
X44902381Y-10437809D02*
X43902381Y-10437809D01*
X44045238Y-10342571D01*
X44140476Y-10247333D01*
X44188095Y-10152095D01*
X43902381Y-11580667D02*
X43902381Y-11390190D01*
X43950000Y-11294952D01*
X43997619Y-11247333D01*
X44140476Y-11152095D01*
X44330952Y-11104476D01*
X44711905Y-11104476D01*
X44807143Y-11152095D01*
X44854762Y-11199714D01*
X44902381Y-11294952D01*
X44902381Y-11485429D01*
X44854762Y-11580667D01*
X44807143Y-11628286D01*
X44711905Y-11675905D01*
X44473810Y-11675905D01*
X44378571Y-11628286D01*
X44330952Y-11580667D01*
X44283333Y-11485429D01*
X44283333Y-11294952D01*
X44330952Y-11199714D01*
X44378571Y-11152095D01*
X44473810Y-11104476D01*
X55316381Y-9771143D02*
X54840190Y-9437809D01*
X55316381Y-9199714D02*
X54316381Y-9199714D01*
X54316381Y-9580667D01*
X54364000Y-9675905D01*
X54411619Y-9723524D01*
X54506857Y-9771143D01*
X54649714Y-9771143D01*
X54744952Y-9723524D01*
X54792571Y-9675905D01*
X54840190Y-9580667D01*
X54840190Y-9199714D01*
X55316381Y-10723524D02*
X55316381Y-10152095D01*
X55316381Y-10437809D02*
X54316381Y-10437809D01*
X54459238Y-10342571D01*
X54554476Y-10247333D01*
X54602095Y-10152095D01*
X54316381Y-11056857D02*
X54316381Y-11723524D01*
X55316381Y-11294952D01*
X41854381Y-9771143D02*
X41378190Y-9437809D01*
X41854381Y-9199714D02*
X40854381Y-9199714D01*
X40854381Y-9580667D01*
X40902000Y-9675905D01*
X40949619Y-9723524D01*
X41044857Y-9771143D01*
X41187714Y-9771143D01*
X41282952Y-9723524D01*
X41330571Y-9675905D01*
X41378190Y-9580667D01*
X41378190Y-9199714D01*
X41854381Y-10723524D02*
X41854381Y-10152095D01*
X41854381Y-10437809D02*
X40854381Y-10437809D01*
X40997238Y-10342571D01*
X41092476Y-10247333D01*
X41140095Y-10152095D01*
X41282952Y-11294952D02*
X41235333Y-11199714D01*
X41187714Y-11152095D01*
X41092476Y-11104476D01*
X41044857Y-11104476D01*
X40949619Y-11152095D01*
X40902000Y-11199714D01*
X40854381Y-11294952D01*
X40854381Y-11485429D01*
X40902000Y-11580667D01*
X40949619Y-11628286D01*
X41044857Y-11675905D01*
X41092476Y-11675905D01*
X41187714Y-11628286D01*
X41235333Y-11580667D01*
X41282952Y-11485429D01*
X41282952Y-11294952D01*
X41330571Y-11199714D01*
X41378190Y-11152095D01*
X41473429Y-11104476D01*
X41663905Y-11104476D01*
X41759143Y-11152095D01*
X41806762Y-11199714D01*
X41854381Y-11294952D01*
X41854381Y-11485429D01*
X41806762Y-11580667D01*
X41759143Y-11628286D01*
X41663905Y-11675905D01*
X41473429Y-11675905D01*
X41378190Y-11628286D01*
X41330571Y-11580667D01*
X41282952Y-11485429D01*
X15438381Y-19169143D02*
X14962190Y-18835809D01*
X15438381Y-18597714D02*
X14438381Y-18597714D01*
X14438381Y-18978667D01*
X14486000Y-19073905D01*
X14533619Y-19121524D01*
X14628857Y-19169143D01*
X14771714Y-19169143D01*
X14866952Y-19121524D01*
X14914571Y-19073905D01*
X14962190Y-18978667D01*
X14962190Y-18597714D01*
X15438381Y-20121524D02*
X15438381Y-19550095D01*
X15438381Y-19835809D02*
X14438381Y-19835809D01*
X14581238Y-19740571D01*
X14676476Y-19645333D01*
X14724095Y-19550095D01*
X15438381Y-20597714D02*
X15438381Y-20788190D01*
X15390762Y-20883429D01*
X15343143Y-20931048D01*
X15200286Y-21026286D01*
X15009810Y-21073905D01*
X14628857Y-21073905D01*
X14533619Y-21026286D01*
X14486000Y-20978667D01*
X14438381Y-20883429D01*
X14438381Y-20692952D01*
X14486000Y-20597714D01*
X14533619Y-20550095D01*
X14628857Y-20502476D01*
X14866952Y-20502476D01*
X14962190Y-20550095D01*
X15009810Y-20597714D01*
X15057429Y-20692952D01*
X15057429Y-20883429D01*
X15009810Y-20978667D01*
X14962190Y-21026286D01*
X14866952Y-21073905D01*
X3627381Y-31615143D02*
X3151190Y-31281809D01*
X3627381Y-31043714D02*
X2627381Y-31043714D01*
X2627381Y-31424667D01*
X2675000Y-31519905D01*
X2722619Y-31567524D01*
X2817857Y-31615143D01*
X2960714Y-31615143D01*
X3055952Y-31567524D01*
X3103571Y-31519905D01*
X3151190Y-31424667D01*
X3151190Y-31043714D01*
X2722619Y-31996095D02*
X2675000Y-32043714D01*
X2627381Y-32138952D01*
X2627381Y-32377048D01*
X2675000Y-32472286D01*
X2722619Y-32519905D01*
X2817857Y-32567524D01*
X2913095Y-32567524D01*
X3055952Y-32519905D01*
X3627381Y-31948476D01*
X3627381Y-32567524D01*
X2627381Y-33186571D02*
X2627381Y-33281810D01*
X2675000Y-33377048D01*
X2722619Y-33424667D01*
X2817857Y-33472286D01*
X3008333Y-33519905D01*
X3246429Y-33519905D01*
X3436905Y-33472286D01*
X3532143Y-33424667D01*
X3579762Y-33377048D01*
X3627381Y-33281810D01*
X3627381Y-33186571D01*
X3579762Y-33091333D01*
X3532143Y-33043714D01*
X3436905Y-32996095D01*
X3246429Y-32948476D01*
X3008333Y-32948476D01*
X2817857Y-32996095D01*
X2722619Y-33043714D01*
X2675000Y-33091333D01*
X2627381Y-33186571D01*
X3627381Y-19931143D02*
X3151190Y-19597809D01*
X3627381Y-19359714D02*
X2627381Y-19359714D01*
X2627381Y-19740667D01*
X2675000Y-19835905D01*
X2722619Y-19883524D01*
X2817857Y-19931143D01*
X2960714Y-19931143D01*
X3055952Y-19883524D01*
X3103571Y-19835905D01*
X3151190Y-19740667D01*
X3151190Y-19359714D01*
X2722619Y-20312095D02*
X2675000Y-20359714D01*
X2627381Y-20454952D01*
X2627381Y-20693048D01*
X2675000Y-20788286D01*
X2722619Y-20835905D01*
X2817857Y-20883524D01*
X2913095Y-20883524D01*
X3055952Y-20835905D01*
X3627381Y-20264476D01*
X3627381Y-20883524D01*
X3627381Y-21835905D02*
X3627381Y-21264476D01*
X3627381Y-21550190D02*
X2627381Y-21550190D01*
X2770238Y-21454952D01*
X2865476Y-21359714D01*
X2913095Y-21264476D01*
X31630857Y-28900381D02*
X31964191Y-28424190D01*
X32202286Y-28900381D02*
X32202286Y-27900381D01*
X31821333Y-27900381D01*
X31726095Y-27948000D01*
X31678476Y-27995619D01*
X31630857Y-28090857D01*
X31630857Y-28233714D01*
X31678476Y-28328952D01*
X31726095Y-28376571D01*
X31821333Y-28424190D01*
X32202286Y-28424190D01*
X31249905Y-27995619D02*
X31202286Y-27948000D01*
X31107048Y-27900381D01*
X30868952Y-27900381D01*
X30773714Y-27948000D01*
X30726095Y-27995619D01*
X30678476Y-28090857D01*
X30678476Y-28186095D01*
X30726095Y-28328952D01*
X31297524Y-28900381D01*
X30678476Y-28900381D01*
X30297524Y-27995619D02*
X30249905Y-27948000D01*
X30154667Y-27900381D01*
X29916571Y-27900381D01*
X29821333Y-27948000D01*
X29773714Y-27995619D01*
X29726095Y-28090857D01*
X29726095Y-28186095D01*
X29773714Y-28328952D01*
X30345143Y-28900381D01*
X29726095Y-28900381D01*
X15692381Y-31615143D02*
X15216190Y-31281809D01*
X15692381Y-31043714D02*
X14692381Y-31043714D01*
X14692381Y-31424667D01*
X14740000Y-31519905D01*
X14787619Y-31567524D01*
X14882857Y-31615143D01*
X15025714Y-31615143D01*
X15120952Y-31567524D01*
X15168571Y-31519905D01*
X15216190Y-31424667D01*
X15216190Y-31043714D01*
X14787619Y-31996095D02*
X14740000Y-32043714D01*
X14692381Y-32138952D01*
X14692381Y-32377048D01*
X14740000Y-32472286D01*
X14787619Y-32519905D01*
X14882857Y-32567524D01*
X14978095Y-32567524D01*
X15120952Y-32519905D01*
X15692381Y-31948476D01*
X15692381Y-32567524D01*
X14692381Y-32900857D02*
X14692381Y-33519905D01*
X15073333Y-33186571D01*
X15073333Y-33329429D01*
X15120952Y-33424667D01*
X15168571Y-33472286D01*
X15263810Y-33519905D01*
X15501905Y-33519905D01*
X15597143Y-33472286D01*
X15644762Y-33424667D01*
X15692381Y-33329429D01*
X15692381Y-33043714D01*
X15644762Y-32948476D01*
X15597143Y-32900857D01*
X31694381Y-62857143D02*
X31218190Y-62523809D01*
X31694381Y-62285714D02*
X30694381Y-62285714D01*
X30694381Y-62666667D01*
X30742000Y-62761905D01*
X30789619Y-62809524D01*
X30884857Y-62857143D01*
X31027714Y-62857143D01*
X31122952Y-62809524D01*
X31170571Y-62761905D01*
X31218190Y-62666667D01*
X31218190Y-62285714D01*
X30789619Y-63238095D02*
X30742000Y-63285714D01*
X30694381Y-63380952D01*
X30694381Y-63619048D01*
X30742000Y-63714286D01*
X30789619Y-63761905D01*
X30884857Y-63809524D01*
X30980095Y-63809524D01*
X31122952Y-63761905D01*
X31694381Y-63190476D01*
X31694381Y-63809524D01*
X30694381Y-64714286D02*
X30694381Y-64238095D01*
X31170571Y-64190476D01*
X31122952Y-64238095D01*
X31075333Y-64333333D01*
X31075333Y-64571429D01*
X31122952Y-64666667D01*
X31170571Y-64714286D01*
X31265810Y-64761905D01*
X31503905Y-64761905D01*
X31599143Y-64714286D01*
X31646762Y-64666667D01*
X31694381Y-64571429D01*
X31694381Y-64333333D01*
X31646762Y-64238095D01*
X31599143Y-64190476D01*
M02*
