G04 #@! TF.FileFunction,Soldermask,Bot*
%FSLAX46Y46*%
G04 Gerber Fmt 4.6, Leading zero omitted, Abs format (unit mm)*
G04 Created by KiCad (PCBNEW (2015-03-27 BZR 5543)-product) date Tue 31 Mar 2015 12:00:07 AM EDT*
%MOMM*%
G01*
G04 APERTURE LIST*
%ADD10C,0.100000*%
%ADD11R,1.000000X1.250000*%
%ADD12R,1.250000X1.000000*%
%ADD13R,2.000000X1.460000*%
%ADD14R,1.778000X3.000000*%
%ADD15R,2.032000X2.032000*%
%ADD16O,2.032000X2.032000*%
%ADD17R,2.032000X1.727200*%
%ADD18O,2.032000X1.727200*%
%ADD19R,1.727200X1.727200*%
%ADD20O,1.727200X1.727200*%
%ADD21R,0.700000X1.300000*%
%ADD22R,1.300000X0.700000*%
G04 APERTURE END LIST*
D10*
D11*
X54975000Y-39370000D03*
X52975000Y-39370000D03*
X8620000Y-53340000D03*
X6620000Y-53340000D03*
D12*
X43180000Y-58690000D03*
X43180000Y-60690000D03*
D11*
X33925000Y-40005000D03*
X35925000Y-40005000D03*
X35830000Y-66040000D03*
X37830000Y-66040000D03*
D12*
X47625000Y-47355000D03*
X47625000Y-45355000D03*
X40640000Y-73390000D03*
X40640000Y-71390000D03*
D11*
X50530000Y-66040000D03*
X48530000Y-66040000D03*
X33925000Y-32385000D03*
X35925000Y-32385000D03*
X54975000Y-31750000D03*
X52975000Y-31750000D03*
D12*
X11430000Y-48530000D03*
X11430000Y-50530000D03*
D11*
X30496000Y-20320000D03*
X32496000Y-20320000D03*
D12*
X26670000Y-34560000D03*
X26670000Y-36560000D03*
X20955000Y-26305000D03*
X20955000Y-28305000D03*
D11*
X33925000Y-34925000D03*
X35925000Y-34925000D03*
X54975000Y-34290000D03*
X52975000Y-34290000D03*
D12*
X11430000Y-38370000D03*
X11430000Y-40370000D03*
X44450000Y-26305000D03*
X44450000Y-28305000D03*
X45085000Y-47355000D03*
X45085000Y-45355000D03*
X42545000Y-47355000D03*
X42545000Y-45355000D03*
D11*
X33925000Y-37465000D03*
X35925000Y-37465000D03*
D12*
X46355000Y-26305000D03*
X46355000Y-28305000D03*
D11*
X54975000Y-36830000D03*
X52975000Y-36830000D03*
D12*
X41910000Y-26305000D03*
X41910000Y-28305000D03*
X39370000Y-47355000D03*
X39370000Y-45355000D03*
X8890000Y-26305000D03*
X8890000Y-28305000D03*
D11*
X43450000Y-66802000D03*
X45450000Y-66802000D03*
D12*
X50165000Y-26305000D03*
X50165000Y-28305000D03*
D11*
X43450000Y-65024000D03*
X45450000Y-65024000D03*
X50530000Y-64135000D03*
X48530000Y-64135000D03*
X43450000Y-63246000D03*
X45450000Y-63246000D03*
D12*
X43180000Y-73390000D03*
X43180000Y-71390000D03*
D11*
X43450000Y-68834000D03*
X45450000Y-68834000D03*
D12*
X41275000Y-58690000D03*
X41275000Y-60690000D03*
D11*
X35830000Y-64135000D03*
X37830000Y-64135000D03*
D13*
X25464200Y-81857000D03*
X30873000Y-81857000D03*
D14*
X25443600Y-84387000D03*
X30893600Y-84387000D03*
D15*
X16510000Y-65405000D03*
D16*
X16510000Y-62865000D03*
X11430000Y-57150000D03*
X15240000Y-48260000D03*
X3810000Y-57150000D03*
X58420000Y-43180000D03*
X58420000Y-45720000D03*
X58420000Y-38100000D03*
X58420000Y-40640000D03*
X58420000Y-33020000D03*
X58420000Y-35560000D03*
X15240000Y-38100000D03*
X54610000Y-53340000D03*
D17*
X21590000Y-42545000D03*
D18*
X21590000Y-45085000D03*
X21590000Y-47625000D03*
X21590000Y-50165000D03*
X21590000Y-52705000D03*
X21590000Y-55245000D03*
D19*
X54610000Y-3175000D03*
D20*
X54610000Y-5715000D03*
X52070000Y-3175000D03*
X52070000Y-5715000D03*
X49530000Y-3175000D03*
X49530000Y-5715000D03*
X46990000Y-3175000D03*
X46990000Y-5715000D03*
X44450000Y-3175000D03*
X44450000Y-5715000D03*
X41910000Y-3175000D03*
X41910000Y-5715000D03*
X39370000Y-3175000D03*
X39370000Y-5715000D03*
X36830000Y-3175000D03*
X36830000Y-5715000D03*
X34290000Y-3175000D03*
X34290000Y-5715000D03*
X31750000Y-3175000D03*
X31750000Y-5715000D03*
X29210000Y-3175000D03*
X29210000Y-5715000D03*
X26670000Y-3175000D03*
X26670000Y-5715000D03*
X24130000Y-3175000D03*
X24130000Y-5715000D03*
X21590000Y-3175000D03*
X21590000Y-5715000D03*
X19050000Y-3175000D03*
X19050000Y-5715000D03*
X16510000Y-3175000D03*
X16510000Y-5715000D03*
X13970000Y-3175000D03*
X13970000Y-5715000D03*
X11430000Y-3175000D03*
X11430000Y-5715000D03*
X8890000Y-3175000D03*
X8890000Y-5715000D03*
X6350000Y-3175000D03*
X6350000Y-5715000D03*
D16*
X53340000Y-73660000D03*
D19*
X36195000Y-83185000D03*
D20*
X36195000Y-80645000D03*
X38735000Y-83185000D03*
X38735000Y-80645000D03*
X41275000Y-83185000D03*
X41275000Y-80645000D03*
X43815000Y-83185000D03*
X43815000Y-80645000D03*
X46355000Y-83185000D03*
X46355000Y-80645000D03*
X48895000Y-83185000D03*
X48895000Y-80645000D03*
X51435000Y-83185000D03*
X51435000Y-80645000D03*
X53975000Y-83185000D03*
X53975000Y-80645000D03*
X56515000Y-83185000D03*
X56515000Y-80645000D03*
X59055000Y-83185000D03*
X59055000Y-80645000D03*
D16*
X58420000Y-69850000D03*
X58420000Y-67310000D03*
X58420000Y-64770000D03*
X58420000Y-62230000D03*
D15*
X45720000Y-53340000D03*
D16*
X48260000Y-53340000D03*
D21*
X16830000Y-18415000D03*
X18730000Y-18415000D03*
D22*
X50800000Y-14285000D03*
X50800000Y-12385000D03*
X48260000Y-14285000D03*
X48260000Y-12385000D03*
X57150000Y-14285000D03*
X57150000Y-12385000D03*
X44450000Y-14285000D03*
X44450000Y-12385000D03*
X54610000Y-14285000D03*
X54610000Y-12385000D03*
X41910000Y-14285000D03*
X41910000Y-12385000D03*
X15240000Y-23810000D03*
X15240000Y-21910000D03*
X3175000Y-30160000D03*
X3175000Y-28260000D03*
X3175000Y-22545000D03*
X3175000Y-24445000D03*
D21*
X26990000Y-28575000D03*
X28890000Y-28575000D03*
D22*
X15240000Y-30160000D03*
X15240000Y-28260000D03*
X33020000Y-64450000D03*
X33020000Y-62550000D03*
M02*
